%TF.GenerationSoftware,KiCad,Pcbnew,10.0.1*%
%TF.CreationDate,2026-06-22T23:25:14+02:00*%
%TF.ProjectId,sb_prep,73625f70-7265-4702-9e6b-696361645f70,rev?*%
%TF.SameCoordinates,Original*%
%TF.FileFunction,Copper,L1,Top*%
%TF.FilePolarity,Positive*%
%FSLAX46Y46*%
G04 Gerber Fmt 4.6, Leading zero omitted, Abs format (unit mm)*
G04 Created by KiCad (PCBNEW 10.0.1) date 2026-06-22 23:25:14*
%MOMM*%
%LPD*%
G01*
G04 APERTURE LIST*
G04 Aperture macros list*
%AMRoundRect*
0 Rectangle with rounded corners*
0 $1 Rounding radius*
0 $2 $3 $4 $5 $6 $7 $8 $9 X,Y pos of 4 corners*
0 Add a 4 corners polygon primitive as box body*
4,1,4,$2,$3,$4,$5,$6,$7,$8,$9,$2,$3,0*
0 Add four circle primitives for the rounded corners*
1,1,$1+$1,$2,$3*
1,1,$1+$1,$4,$5*
1,1,$1+$1,$6,$7*
1,1,$1+$1,$8,$9*
0 Add four rect primitives between the rounded corners*
20,1,$1+$1,$2,$3,$4,$5,0*
20,1,$1+$1,$4,$5,$6,$7,0*
20,1,$1+$1,$6,$7,$8,$9,0*
20,1,$1+$1,$8,$9,$2,$3,0*%
G04 Aperture macros list end*
%TA.AperFunction,SMDPad,CuDef*%
%ADD10RoundRect,0.140000X0.170000X-0.140000X0.170000X0.140000X-0.170000X0.140000X-0.170000X-0.140000X0*%
%TD*%
%TA.AperFunction,SMDPad,CuDef*%
%ADD11RoundRect,0.135000X0.185000X-0.135000X0.185000X0.135000X-0.185000X0.135000X-0.185000X-0.135000X0*%
%TD*%
%TA.AperFunction,SMDPad,CuDef*%
%ADD12R,0.675000X0.250000*%
%TD*%
%TA.AperFunction,SMDPad,CuDef*%
%ADD13R,0.250000X0.675000*%
%TD*%
%TA.AperFunction,SMDPad,CuDef*%
%ADD14R,0.500000X0.300000*%
%TD*%
%TA.AperFunction,SMDPad,CuDef*%
%ADD15RoundRect,0.150000X-0.150000X-0.625000X0.150000X-0.625000X0.150000X0.625000X-0.150000X0.625000X0*%
%TD*%
%TA.AperFunction,SMDPad,CuDef*%
%ADD16RoundRect,0.250000X-0.350000X-0.650000X0.350000X-0.650000X0.350000X0.650000X-0.350000X0.650000X0*%
%TD*%
%TA.AperFunction,SMDPad,CuDef*%
%ADD17RoundRect,0.062500X-0.062500X-0.137500X0.062500X-0.137500X0.062500X0.137500X-0.062500X0.137500X0*%
%TD*%
%TA.AperFunction,SMDPad,CuDef*%
%ADD18RoundRect,0.062500X-0.137500X-0.062500X0.137500X-0.062500X0.137500X0.062500X-0.137500X0.062500X0*%
%TD*%
%TA.AperFunction,SMDPad,CuDef*%
%ADD19RoundRect,0.250000X0.475000X-0.250000X0.475000X0.250000X-0.475000X0.250000X-0.475000X-0.250000X0*%
%TD*%
%TA.AperFunction,SMDPad,CuDef*%
%ADD20R,0.254000X0.675000*%
%TD*%
%TA.AperFunction,SMDPad,CuDef*%
%ADD21R,0.675000X0.254000*%
%TD*%
G04 APERTURE END LIST*
D10*
%TO.P,C4,1*%
%TO.N,+3V3*%
X21996700Y-20176900D03*
%TO.P,C4,2*%
%TO.N,GND*%
X21996700Y-19216900D03*
%TD*%
D11*
%TO.P,R3,1*%
%TO.N,+3V3*%
X24996700Y-20206900D03*
%TO.P,R3,2*%
%TO.N,BOOTN_N*%
X24996700Y-19186900D03*
%TD*%
D12*
%TO.P,U3,1*%
%TO.N,GND*%
X14234200Y-15446900D03*
%TO.P,U3,2*%
%TO.N,N/C*%
X14234200Y-15946900D03*
%TO.P,U3,3*%
X14234200Y-16446900D03*
%TO.P,U3,4*%
%TO.N,INT_LSM*%
X14234200Y-16946900D03*
D13*
%TO.P,U3,5*%
%TO.N,+3V3*%
X14996700Y-17209400D03*
%TO.P,U3,6*%
%TO.N,GND*%
X15496700Y-17209400D03*
%TO.P,U3,7*%
X15996700Y-17209400D03*
D12*
%TO.P,U3,8*%
%TO.N,+3V3*%
X16759200Y-16946900D03*
%TO.P,U3,9*%
%TO.N,N/C*%
X16759200Y-16446900D03*
%TO.P,U3,10*%
X16759200Y-15946900D03*
%TO.P,U3,11*%
X16759200Y-15446900D03*
D13*
%TO.P,U3,12*%
%TO.N,+3V3*%
X15996700Y-15184400D03*
%TO.P,U3,13*%
%TO.N,I2C_SCL*%
X15496700Y-15184400D03*
%TO.P,U3,14*%
%TO.N,I2C_SDA*%
X14996700Y-15184400D03*
%TD*%
D10*
%TO.P,C1,1*%
%TO.N,+3V3*%
X5500000Y-7980000D03*
%TO.P,C1,2*%
%TO.N,GND*%
X5500000Y-7020000D03*
%TD*%
%TO.P,C3,1*%
%TO.N,+3V3*%
X18996700Y-16676900D03*
%TO.P,C3,2*%
%TO.N,GND*%
X18996700Y-15716900D03*
%TD*%
%TO.P,C5,1*%
%TO.N,+3V3*%
X9500000Y-7980000D03*
%TO.P,C5,2*%
%TO.N,GND*%
X9500000Y-7020000D03*
%TD*%
D14*
%TO.P,U5,1*%
%TO.N,I2C_SDA*%
X8800000Y-3600000D03*
%TO.P,U5,2*%
%TO.N,I2C_SCL*%
X8800000Y-4400000D03*
%TO.P,U5,3*%
%TO.N,+3V3*%
X10200000Y-4400000D03*
%TO.P,U5,4*%
%TO.N,GND*%
X10200000Y-3600000D03*
%TD*%
D11*
%TO.P,R4,1*%
%TO.N,+3V3*%
X26996700Y-20206900D03*
%TO.P,R4,2*%
%TO.N,RST_BNO*%
X26996700Y-19186900D03*
%TD*%
D10*
%TO.P,C7,1*%
%TO.N,CAP_BNO*%
X21996700Y-23176900D03*
%TO.P,C7,2*%
%TO.N,GND*%
X21996700Y-22216900D03*
%TD*%
D11*
%TO.P,R2,1*%
%TO.N,+3V3*%
X15496700Y-26706900D03*
%TO.P,R2,2*%
%TO.N,I2C_SCL*%
X15496700Y-25686900D03*
%TD*%
D15*
%TO.P,J1,1*%
%TO.N,GND*%
X3000000Y-24000000D03*
%TO.P,J1,2*%
%TO.N,+3V3*%
X4000000Y-24000000D03*
%TO.P,J1,3*%
%TO.N,I2C_SDA*%
X5000000Y-24000000D03*
%TO.P,J1,4*%
%TO.N,I2C_SCL*%
X6000000Y-24000000D03*
D16*
%TO.P,J1,MP*%
%TO.N,GND*%
X1700000Y-27875000D03*
X7300000Y-27875000D03*
%TD*%
D17*
%TO.P,U1,1*%
%TO.N,+3V3*%
X5900000Y-3150000D03*
%TO.P,U1,2*%
%TO.N,I2C_SCL*%
X5500000Y-3150000D03*
%TO.P,U1,3*%
%TO.N,GND*%
X5100000Y-3150000D03*
D18*
%TO.P,U1,4*%
%TO.N,I2C_SDA*%
X4650000Y-3800000D03*
%TO.P,U1,5*%
%TO.N,+3V3*%
X4650000Y-4200000D03*
D17*
%TO.P,U1,6*%
X5100000Y-4850000D03*
%TO.P,U1,7*%
%TO.N,N/C*%
X5500000Y-4850000D03*
%TO.P,U1,8*%
%TO.N,GND*%
X5900000Y-4850000D03*
D18*
%TO.P,U1,9*%
X6350000Y-4200000D03*
%TO.P,U1,10*%
%TO.N,+3V3*%
X6350000Y-3800000D03*
%TD*%
D19*
%TO.P,C6,1*%
%TO.N,+3V3*%
X18496700Y-27146900D03*
%TO.P,C6,2*%
%TO.N,GND*%
X18496700Y-25246900D03*
%TD*%
D11*
%TO.P,R1,1*%
%TO.N,+3V3*%
X12996700Y-26706900D03*
%TO.P,R1,2*%
%TO.N,I2C_SDA*%
X12996700Y-25686900D03*
%TD*%
D20*
%TO.P,U4,1*%
%TO.N,GND*%
X13246700Y-19534400D03*
D21*
%TO.P,U4,2*%
X13109200Y-20446900D03*
%TO.P,U4,3*%
%TO.N,+3V3*%
X13109200Y-20946900D03*
%TO.P,U4,4*%
%TO.N,BOOTN_N*%
X13109200Y-21446900D03*
%TO.P,U4,5*%
%TO.N,GND*%
X13109200Y-21946900D03*
D20*
%TO.P,U4,6*%
X13246700Y-22859400D03*
%TO.P,U4,7*%
X13746700Y-22859400D03*
%TO.P,U4,8*%
X14246700Y-22859400D03*
%TO.P,U4,9*%
%TO.N,CAP_BNO*%
X14746700Y-22859400D03*
%TO.P,U4,10*%
%TO.N,GND*%
X15246700Y-22859400D03*
%TO.P,U4,11*%
%TO.N,RST_BNO*%
X15746700Y-22859400D03*
%TO.P,U4,12*%
%TO.N,GND*%
X16246700Y-22859400D03*
%TO.P,U4,13*%
X16746700Y-22859400D03*
%TO.P,U4,14*%
%TO.N,INT_BNO*%
X17246700Y-22859400D03*
%TO.P,U4,15*%
%TO.N,N/C*%
X17746700Y-22859400D03*
D21*
%TO.P,U4,16*%
X17884200Y-21946900D03*
%TO.P,U4,17*%
%TO.N,GND*%
X17884200Y-21446900D03*
%TO.P,U4,18*%
%TO.N,+3V3*%
X17884200Y-20946900D03*
%TO.P,U4,19*%
%TO.N,I2C_SCL*%
X17884200Y-20446900D03*
D20*
%TO.P,U4,20*%
%TO.N,I2C_SDA*%
X17746700Y-19534400D03*
%TO.P,U4,21*%
%TO.N,GND*%
X17246700Y-19534400D03*
%TO.P,U4,22*%
X16746700Y-19534400D03*
%TO.P,U4,23*%
X16246700Y-19534400D03*
%TO.P,U4,24*%
X15746700Y-19534400D03*
%TO.P,U4,25*%
X15246700Y-19534400D03*
%TO.P,U4,26*%
X14746700Y-19534400D03*
%TO.P,U4,27*%
%TO.N,N/C*%
X14246700Y-19534400D03*
%TO.P,U4,28*%
%TO.N,+3V3*%
X13746700Y-19534400D03*
%TD*%
%TA.AperFunction,Conductor*%
%TO.N,GND*%
G36*
X1977826Y-321674D02*
G01*
X1999500Y-374000D01*
X1999500Y-8999793D01*
X1999500Y-9000207D01*
X1999793Y-9000500D01*
X3631200Y-9000500D01*
X3631200Y-22272468D01*
X3670417Y-22418830D01*
X3670421Y-22418839D01*
X3727391Y-22517513D01*
X3746185Y-22550065D01*
X3797171Y-22601051D01*
X3818845Y-22653376D01*
X3797171Y-22705702D01*
X3750661Y-22727147D01*
X3747432Y-22727401D01*
X3589600Y-22773256D01*
X3448134Y-22856919D01*
X3331916Y-22973137D01*
X3317141Y-22998121D01*
X3271849Y-23032126D01*
X3242778Y-23033678D01*
X3183223Y-23025000D01*
X3125000Y-23025000D01*
X3125000Y-24974999D01*
X3183211Y-24974999D01*
X3183221Y-24974998D01*
X3242778Y-24966321D01*
X3297682Y-24980225D01*
X3317142Y-25001879D01*
X3331919Y-25026865D01*
X3448135Y-25143081D01*
X3499999Y-25173753D01*
X3589598Y-25226742D01*
X3589602Y-25226744D01*
X3747431Y-25272598D01*
X3784306Y-25275500D01*
X3784307Y-25275500D01*
X4215693Y-25275500D01*
X4215694Y-25275500D01*
X4252569Y-25272598D01*
X4410398Y-25226744D01*
X4462330Y-25196030D01*
X4518402Y-25188050D01*
X4537670Y-25196031D01*
X4589598Y-25226742D01*
X4589599Y-25226742D01*
X4589602Y-25226744D01*
X4747431Y-25272598D01*
X4784306Y-25275500D01*
X4784307Y-25275500D01*
X5215693Y-25275500D01*
X5215694Y-25275500D01*
X5252569Y-25272598D01*
X5410398Y-25226744D01*
X5462330Y-25196030D01*
X5518402Y-25188050D01*
X5537670Y-25196031D01*
X5589598Y-25226742D01*
X5589599Y-25226742D01*
X5589602Y-25226744D01*
X5747431Y-25272598D01*
X5784306Y-25275500D01*
X5784307Y-25275500D01*
X6215693Y-25275500D01*
X6215694Y-25275500D01*
X6252569Y-25272598D01*
X6410398Y-25226744D01*
X6551865Y-25143081D01*
X6668081Y-25026865D01*
X6751744Y-24885398D01*
X6797598Y-24727569D01*
X6800500Y-24690694D01*
X6800500Y-24149400D01*
X6822174Y-24097074D01*
X6874500Y-24075400D01*
X9531567Y-24075400D01*
X9583893Y-24097074D01*
X9605567Y-24149400D01*
X9604145Y-24163837D01*
X9596000Y-24204783D01*
X9596000Y-24352616D01*
X9624840Y-24497607D01*
X9624843Y-24497617D01*
X9681415Y-24634194D01*
X9763548Y-24757115D01*
X9868084Y-24861651D01*
X9991005Y-24943784D01*
X10078981Y-24980225D01*
X10127587Y-25000358D01*
X10272582Y-25029200D01*
X10272584Y-25029200D01*
X10420416Y-25029200D01*
X10420418Y-25029200D01*
X10565413Y-25000358D01*
X10701995Y-24943784D01*
X10824916Y-24861651D01*
X10929451Y-24757116D01*
X11011584Y-24634195D01*
X11068158Y-24497613D01*
X11097000Y-24352618D01*
X11097000Y-24204782D01*
X11088855Y-24163835D01*
X11099904Y-24108288D01*
X11146996Y-24076822D01*
X11161433Y-24075400D01*
X11891800Y-24075400D01*
X11944126Y-24097074D01*
X11965800Y-24149400D01*
X11965800Y-25307268D01*
X12005017Y-25453630D01*
X12005021Y-25453639D01*
X12078850Y-25581514D01*
X12080785Y-25584865D01*
X12154526Y-25658606D01*
X12176200Y-25710931D01*
X12176200Y-25886079D01*
X12179035Y-25922106D01*
X12223830Y-26076292D01*
X12223832Y-26076295D01*
X12272879Y-26159232D01*
X12274040Y-26167393D01*
X12279431Y-26173633D01*
X12277493Y-26191654D01*
X12280859Y-26215304D01*
X12275308Y-26230120D01*
X12274162Y-26232400D01*
X12223831Y-26317507D01*
X12213444Y-26353257D01*
X12210399Y-26359320D01*
X12193712Y-26373736D01*
X12179925Y-26390946D01*
X12171200Y-26393186D01*
X12167542Y-26396347D01*
X12160805Y-26395855D01*
X12144275Y-26400100D01*
X11267432Y-26400100D01*
X11121069Y-26439317D01*
X11121060Y-26439321D01*
X10989837Y-26515083D01*
X10882683Y-26622237D01*
X10806921Y-26753460D01*
X10806917Y-26753469D01*
X10767700Y-26899831D01*
X10767700Y-27051368D01*
X10806917Y-27197730D01*
X10806921Y-27197739D01*
X10828144Y-27234498D01*
X10882685Y-27328965D01*
X10989835Y-27436115D01*
X11121065Y-27511881D01*
X11267431Y-27551099D01*
X11267432Y-27551100D01*
X11267434Y-27551100D01*
X12803765Y-27551100D01*
X12803766Y-27551100D01*
X12950135Y-27511881D01*
X12992685Y-27487313D01*
X13029686Y-27477399D01*
X13245880Y-27477399D01*
X13281904Y-27474565D01*
X13436093Y-27429769D01*
X13574298Y-27348035D01*
X13687835Y-27234498D01*
X13769569Y-27096293D01*
X13814365Y-26942104D01*
X13817200Y-26906081D01*
X13817199Y-26507720D01*
X13814365Y-26471696D01*
X13769569Y-26317507D01*
X13720518Y-26234567D01*
X13712539Y-26178497D01*
X13720516Y-26159235D01*
X13769569Y-26076293D01*
X13814365Y-25922104D01*
X13817200Y-25886081D01*
X13817199Y-25487720D01*
X13814365Y-25451696D01*
X13769569Y-25297507D01*
X13687835Y-25159302D01*
X13574298Y-25045765D01*
X13500091Y-25001879D01*
X13436094Y-24964031D01*
X13281904Y-24919235D01*
X13281907Y-24919235D01*
X13254886Y-24917108D01*
X13245881Y-24916400D01*
X13245880Y-24916400D01*
X13190800Y-24916400D01*
X13138474Y-24894726D01*
X13116800Y-24842400D01*
X13116800Y-24149400D01*
X13138474Y-24097074D01*
X13190800Y-24075400D01*
X14065868Y-24075400D01*
X14065868Y-24075399D01*
X14212235Y-24036181D01*
X14343465Y-23960415D01*
X14450615Y-23853265D01*
X14519243Y-23734396D01*
X14564174Y-23699921D01*
X14583319Y-23697399D01*
X14921572Y-23697399D01*
X14981183Y-23690991D01*
X15061875Y-23660895D01*
X15116029Y-23640697D01*
X15116029Y-23640696D01*
X15116031Y-23640696D01*
X15202353Y-23576074D01*
X15257231Y-23562068D01*
X15291047Y-23576075D01*
X15377369Y-23640696D01*
X15377370Y-23640697D01*
X15488305Y-23682072D01*
X15512217Y-23690991D01*
X15571827Y-23697400D01*
X15921572Y-23697399D01*
X15981183Y-23690991D01*
X16061875Y-23660895D01*
X16116029Y-23640697D01*
X16116029Y-23640696D01*
X16116031Y-23640696D01*
X16231246Y-23554446D01*
X16317496Y-23439231D01*
X16317499Y-23439222D01*
X16319568Y-23435436D01*
X16363668Y-23399898D01*
X16367414Y-23398903D01*
X16479597Y-23372254D01*
X16495420Y-23374799D01*
X16511137Y-23371673D01*
X16533451Y-23380916D01*
X16535516Y-23381248D01*
X16536055Y-23381994D01*
X16537812Y-23382722D01*
X16541664Y-23385296D01*
X16600003Y-23396900D01*
X16608883Y-23396900D01*
X16661209Y-23418574D01*
X16673832Y-23435436D01*
X16675903Y-23439228D01*
X16675904Y-23439231D01*
X16762154Y-23554446D01*
X16851525Y-23621349D01*
X16880425Y-23670058D01*
X16866418Y-23724936D01*
X16859504Y-23732915D01*
X15697693Y-24894726D01*
X15645367Y-24916400D01*
X15247520Y-24916400D01*
X15211493Y-24919235D01*
X15057305Y-24964031D01*
X14919101Y-25045765D01*
X14805565Y-25159301D01*
X14723831Y-25297505D01*
X14679035Y-25451693D01*
X14676200Y-25487719D01*
X14676200Y-25662867D01*
X14654526Y-25715193D01*
X14526285Y-25843434D01*
X14450521Y-25974660D01*
X14450517Y-25974669D01*
X14411300Y-26121031D01*
X14411300Y-26272568D01*
X14450517Y-26418930D01*
X14450521Y-26418939D01*
X14501779Y-26507720D01*
X14526285Y-26550165D01*
X14633435Y-26657315D01*
X14639200Y-26660643D01*
X14673678Y-26705575D01*
X14676200Y-26724729D01*
X14676200Y-26906079D01*
X14679035Y-26942106D01*
X14717131Y-27073233D01*
X14710916Y-27129528D01*
X14707598Y-27134989D01*
X14660416Y-27205603D01*
X14603843Y-27342182D01*
X14603840Y-27342192D01*
X14575000Y-27487183D01*
X14575000Y-27635016D01*
X14603840Y-27780007D01*
X14603843Y-27780017D01*
X14660415Y-27916594D01*
X14709204Y-27989611D01*
X14742549Y-28039516D01*
X14847084Y-28144051D01*
X14970005Y-28226184D01*
X15106587Y-28282758D01*
X15251582Y-28311600D01*
X15251584Y-28311600D01*
X15399416Y-28311600D01*
X15399418Y-28311600D01*
X15544413Y-28282758D01*
X15680995Y-28226184D01*
X15803916Y-28144051D01*
X15908451Y-28039516D01*
X15990584Y-27916595D01*
X16047158Y-27780013D01*
X16076000Y-27635018D01*
X16076000Y-27487182D01*
X16073622Y-27475227D01*
X16072200Y-27460790D01*
X16072200Y-27380784D01*
X16093873Y-27328459D01*
X16187835Y-27234498D01*
X16269569Y-27096293D01*
X16314365Y-26942104D01*
X16317200Y-26906081D01*
X16317200Y-26846894D01*
X17271200Y-26846894D01*
X17271200Y-27446900D01*
X17271200Y-27446905D01*
X17271201Y-27446908D01*
X17281701Y-27549697D01*
X17336886Y-27716234D01*
X17428988Y-27865556D01*
X17553044Y-27989612D01*
X17702366Y-28081714D01*
X17868903Y-28136899D01*
X17971691Y-28147400D01*
X19021708Y-28147399D01*
X19124497Y-28136899D01*
X19291034Y-28081714D01*
X19440356Y-27989612D01*
X19564412Y-27865556D01*
X19656514Y-27716234D01*
X19711699Y-27549697D01*
X19722200Y-27446909D01*
X19722199Y-26846892D01*
X19711699Y-26744103D01*
X19656514Y-26577566D01*
X19564412Y-26428244D01*
X19440356Y-26304188D01*
X19291034Y-26212086D01*
X19124497Y-26156901D01*
X19121058Y-26156165D01*
X19109365Y-26148103D01*
X19095436Y-26145333D01*
X19086971Y-26132664D01*
X19074428Y-26124017D01*
X19063970Y-26098241D01*
X19047338Y-26014627D01*
X19058387Y-25959078D01*
X19095476Y-25930342D01*
X19184346Y-25899245D01*
X19293491Y-25818692D01*
X19293492Y-25818691D01*
X19374047Y-25709543D01*
X19418846Y-25581514D01*
X19418848Y-25581506D01*
X19421699Y-25551098D01*
X19421700Y-25551097D01*
X19421700Y-25371900D01*
X17571701Y-25371900D01*
X17571701Y-25551105D01*
X17574550Y-25581502D01*
X17574552Y-25581511D01*
X17619352Y-25709543D01*
X17665832Y-25772521D01*
X17679466Y-25827493D01*
X17667822Y-25857575D01*
X17659114Y-25870606D01*
X17602543Y-26007182D01*
X17602540Y-26007192D01*
X17578463Y-26128235D01*
X17574512Y-26148103D01*
X17573700Y-26152183D01*
X17573700Y-26252880D01*
X17552026Y-26305206D01*
X17428988Y-26428244D01*
X17336886Y-26577566D01*
X17281701Y-26744101D01*
X17278544Y-26775001D01*
X17271393Y-26845007D01*
X17271200Y-26846894D01*
X16317200Y-26846894D01*
X16317199Y-26705575D01*
X16317199Y-26507720D01*
X16314365Y-26471696D01*
X16269569Y-26317507D01*
X16220518Y-26234567D01*
X16212539Y-26178497D01*
X16220516Y-26159235D01*
X16269569Y-26076293D01*
X16311972Y-25930342D01*
X16315420Y-25918473D01*
X16316996Y-25918930D01*
X16334325Y-25885853D01*
X17488833Y-24731344D01*
X17541157Y-24709672D01*
X17593483Y-24731346D01*
X17615157Y-24783672D01*
X17611005Y-24808112D01*
X17574551Y-24912292D01*
X17574551Y-24912293D01*
X17571700Y-24942701D01*
X17571700Y-25121900D01*
X18371700Y-25121900D01*
X18621700Y-25121900D01*
X19421699Y-25121900D01*
X19421699Y-24942706D01*
X19421698Y-24942694D01*
X19418849Y-24912297D01*
X19418847Y-24912288D01*
X19374047Y-24784256D01*
X19293492Y-24675108D01*
X19293491Y-24675107D01*
X19184343Y-24594552D01*
X19184344Y-24594552D01*
X19056314Y-24549753D01*
X19056306Y-24549751D01*
X19025898Y-24546900D01*
X18621700Y-24546900D01*
X18621700Y-25121900D01*
X18371700Y-25121900D01*
X18371700Y-24546900D01*
X17967506Y-24546900D01*
X17967493Y-24546901D01*
X17937097Y-24549750D01*
X17937095Y-24549750D01*
X17832912Y-24586205D01*
X17776364Y-24583028D01*
X17738624Y-24540797D01*
X17741801Y-24484249D01*
X17756142Y-24464035D01*
X18853362Y-23366816D01*
X18853365Y-23366815D01*
X18960515Y-23259665D01*
X19036281Y-23128435D01*
X19075499Y-22982069D01*
X19075500Y-22982069D01*
X19075500Y-22972210D01*
X21186200Y-22972210D01*
X21186200Y-23381589D01*
X21189057Y-23417895D01*
X21234206Y-23573296D01*
X21303811Y-23690991D01*
X21316583Y-23712587D01*
X21431013Y-23827017D01*
X21570305Y-23909394D01*
X21725707Y-23954543D01*
X21762010Y-23957400D01*
X21762011Y-23957400D01*
X22231389Y-23957400D01*
X22231390Y-23957400D01*
X22267693Y-23954543D01*
X22423095Y-23909394D01*
X22562387Y-23827017D01*
X22676817Y-23712587D01*
X22759194Y-23573295D01*
X22804343Y-23417893D01*
X22807200Y-23381590D01*
X22807200Y-22972210D01*
X22804343Y-22935907D01*
X22759194Y-22780505D01*
X22676817Y-22641213D01*
X22562387Y-22526783D01*
X22562384Y-22526780D01*
X22536916Y-22511718D01*
X22502910Y-22466426D01*
X22501219Y-22438364D01*
X22506700Y-22396736D01*
X22506700Y-22341900D01*
X21486700Y-22341900D01*
X21486700Y-22396738D01*
X21492180Y-22438365D01*
X21477521Y-22493073D01*
X21456484Y-22511718D01*
X21431013Y-22526782D01*
X21316583Y-22641212D01*
X21234206Y-22780503D01*
X21189057Y-22935904D01*
X21186200Y-22972210D01*
X19075500Y-22972210D01*
X19075500Y-22037061D01*
X21486700Y-22037061D01*
X21486700Y-22091900D01*
X21871700Y-22091900D01*
X22121700Y-22091900D01*
X22506700Y-22091900D01*
X22506700Y-22037061D01*
X22500181Y-21987545D01*
X22449507Y-21878875D01*
X22364724Y-21794092D01*
X22256053Y-21743418D01*
X22256054Y-21743418D01*
X22206538Y-21736900D01*
X22121700Y-21736900D01*
X22121700Y-22091900D01*
X21871700Y-22091900D01*
X21871700Y-21736900D01*
X21786862Y-21736900D01*
X21737345Y-21743418D01*
X21628675Y-21794092D01*
X21543892Y-21878875D01*
X21493218Y-21987545D01*
X21486700Y-22037061D01*
X19075500Y-22037061D01*
X19075500Y-20424232D01*
X19075499Y-20424231D01*
X19036282Y-20277869D01*
X19036281Y-20277865D01*
X19036277Y-20277858D01*
X19033813Y-20273589D01*
X19023900Y-20236592D01*
X19023900Y-19972210D01*
X21186200Y-19972210D01*
X21186200Y-20381589D01*
X21189057Y-20417895D01*
X21234206Y-20573296D01*
X21262875Y-20621772D01*
X21316583Y-20712587D01*
X21431013Y-20827017D01*
X21570305Y-20909394D01*
X21725707Y-20954543D01*
X21762010Y-20957400D01*
X21762011Y-20957400D01*
X22231389Y-20957400D01*
X22231390Y-20957400D01*
X22267693Y-20954543D01*
X22423095Y-20909394D01*
X22562387Y-20827017D01*
X22676817Y-20712587D01*
X22759194Y-20573295D01*
X22804343Y-20417893D01*
X22807200Y-20381590D01*
X22807200Y-19972210D01*
X22804343Y-19935907D01*
X22759194Y-19780505D01*
X22676817Y-19641213D01*
X22562387Y-19526783D01*
X22562384Y-19526780D01*
X22536916Y-19511718D01*
X22502910Y-19466426D01*
X22501219Y-19438364D01*
X22506700Y-19396736D01*
X22506700Y-19341900D01*
X21486700Y-19341900D01*
X21486700Y-19396738D01*
X21492180Y-19438365D01*
X21477521Y-19493073D01*
X21456484Y-19511718D01*
X21431013Y-19526782D01*
X21316583Y-19641212D01*
X21234206Y-19780503D01*
X21189057Y-19935904D01*
X21186200Y-19972210D01*
X19023900Y-19972210D01*
X19023900Y-19071192D01*
X19038037Y-19037061D01*
X21486700Y-19037061D01*
X21486700Y-19091900D01*
X21871700Y-19091900D01*
X22121700Y-19091900D01*
X22506700Y-19091900D01*
X22506700Y-19037061D01*
X22501284Y-18995925D01*
X22501284Y-18995923D01*
X22500204Y-18987719D01*
X24176200Y-18987719D01*
X24176200Y-19386079D01*
X24179035Y-19422106D01*
X24223830Y-19576292D01*
X24223832Y-19576295D01*
X24272879Y-19659232D01*
X24280859Y-19715304D01*
X24272879Y-19734568D01*
X24223832Y-19817504D01*
X24223830Y-19817507D01*
X24179035Y-19971693D01*
X24176200Y-20007719D01*
X24176200Y-20406079D01*
X24179035Y-20442106D01*
X24223831Y-20596294D01*
X24276928Y-20686075D01*
X24305565Y-20734498D01*
X24399526Y-20828459D01*
X24421200Y-20880784D01*
X24421200Y-22065868D01*
X24460417Y-22212230D01*
X24460421Y-22212239D01*
X24506576Y-22292181D01*
X24535281Y-22341900D01*
X24536184Y-22343463D01*
X24536189Y-22343470D01*
X24536217Y-22343498D01*
X24536231Y-22343525D01*
X24539136Y-22347310D01*
X24538510Y-22347789D01*
X24556462Y-22381379D01*
X24583540Y-22517507D01*
X24583543Y-22517517D01*
X24640115Y-22654094D01*
X24719737Y-22773256D01*
X24722249Y-22777016D01*
X24826784Y-22881551D01*
X24949705Y-22963684D01*
X25086287Y-23020258D01*
X25231282Y-23049100D01*
X25231284Y-23049100D01*
X25379116Y-23049100D01*
X25379118Y-23049100D01*
X25524113Y-23020258D01*
X25660695Y-22963684D01*
X25783616Y-22881551D01*
X25888151Y-22777016D01*
X25970284Y-22654095D01*
X26026858Y-22517513D01*
X26055700Y-22372518D01*
X26055700Y-22224682D01*
X26026858Y-22079687D01*
X26026201Y-22078102D01*
X25970284Y-21943105D01*
X25888151Y-21820184D01*
X25783615Y-21715648D01*
X25722570Y-21674860D01*
X25660695Y-21633516D01*
X25660693Y-21633515D01*
X25617880Y-21615781D01*
X25577832Y-21575731D01*
X25572200Y-21547414D01*
X25572200Y-20880784D01*
X25593873Y-20828459D01*
X25687835Y-20734498D01*
X25769569Y-20596293D01*
X25814365Y-20442104D01*
X25817200Y-20406081D01*
X25817199Y-20007720D01*
X25814365Y-19971696D01*
X25769569Y-19817507D01*
X25720518Y-19734567D01*
X25712539Y-19678497D01*
X25720516Y-19659235D01*
X25769569Y-19576293D01*
X25814365Y-19422104D01*
X25817200Y-19386081D01*
X25817199Y-18987720D01*
X25817199Y-18987719D01*
X26176200Y-18987719D01*
X26176200Y-19386079D01*
X26179035Y-19422106D01*
X26223830Y-19576292D01*
X26223832Y-19576295D01*
X26272879Y-19659232D01*
X26280859Y-19715304D01*
X26272879Y-19734568D01*
X26223832Y-19817504D01*
X26223830Y-19817507D01*
X26179035Y-19971693D01*
X26176200Y-20007719D01*
X26176200Y-20406079D01*
X26179035Y-20442106D01*
X26223831Y-20596294D01*
X26276928Y-20686075D01*
X26305565Y-20734498D01*
X26399526Y-20828459D01*
X26421200Y-20880784D01*
X26421200Y-21738868D01*
X26460417Y-21885230D01*
X26460421Y-21885239D01*
X26536183Y-22016462D01*
X26536185Y-22016465D01*
X26731077Y-22211357D01*
X26863211Y-22343491D01*
X26883463Y-22381380D01*
X26910540Y-22517507D01*
X26910543Y-22517517D01*
X26967115Y-22654094D01*
X27046737Y-22773256D01*
X27049249Y-22777016D01*
X27153784Y-22881551D01*
X27276705Y-22963684D01*
X27413287Y-23020258D01*
X27558282Y-23049100D01*
X27558284Y-23049100D01*
X27706116Y-23049100D01*
X27706118Y-23049100D01*
X27851113Y-23020258D01*
X27987695Y-22963684D01*
X28110616Y-22881551D01*
X28215151Y-22777016D01*
X28297284Y-22654095D01*
X28353858Y-22517513D01*
X28382700Y-22372518D01*
X28382700Y-22224682D01*
X28353858Y-22079687D01*
X28353201Y-22078102D01*
X28297284Y-21943105D01*
X28215151Y-21820184D01*
X28110615Y-21715648D01*
X27987694Y-21633515D01*
X27851117Y-21576943D01*
X27851107Y-21576940D01*
X27741565Y-21555151D01*
X27714979Y-21549862D01*
X27677091Y-21529611D01*
X27593874Y-21446394D01*
X27572200Y-21394068D01*
X27572200Y-20880784D01*
X27593873Y-20828459D01*
X27687835Y-20734498D01*
X27769569Y-20596293D01*
X27814365Y-20442104D01*
X27817200Y-20406081D01*
X27817199Y-20007720D01*
X27814365Y-19971696D01*
X27769569Y-19817507D01*
X27720518Y-19734567D01*
X27712539Y-19678497D01*
X27720516Y-19659235D01*
X27769569Y-19576293D01*
X27814365Y-19422104D01*
X27817200Y-19386081D01*
X27817199Y-18987720D01*
X27814365Y-18951696D01*
X27769569Y-18797507D01*
X27767549Y-18794092D01*
X27716987Y-18708596D01*
X27687835Y-18659302D01*
X27600432Y-18571899D01*
X27578758Y-18519573D01*
X27600431Y-18467248D01*
X27677093Y-18390586D01*
X27714978Y-18370337D01*
X27851113Y-18343258D01*
X27987695Y-18286684D01*
X28110616Y-18204551D01*
X28215151Y-18100016D01*
X28297284Y-17977095D01*
X28353858Y-17840513D01*
X28382700Y-17695518D01*
X28382700Y-17547682D01*
X28353858Y-17402687D01*
X28297284Y-17266105D01*
X28215151Y-17143184D01*
X28110616Y-17038649D01*
X27987695Y-16956516D01*
X27987696Y-16956516D01*
X27987694Y-16956515D01*
X27851117Y-16899943D01*
X27851107Y-16899940D01*
X27754011Y-16880626D01*
X27706118Y-16871100D01*
X27558282Y-16871100D01*
X27517177Y-16879276D01*
X27413292Y-16899940D01*
X27413282Y-16899943D01*
X27276705Y-16956515D01*
X27153784Y-17038648D01*
X27153783Y-17038650D01*
X27049250Y-17143183D01*
X27049248Y-17143184D01*
X26967115Y-17266105D01*
X26910543Y-17402682D01*
X26910540Y-17402692D01*
X26883463Y-17538819D01*
X26863211Y-17576708D01*
X26643335Y-17796585D01*
X26536183Y-17903737D01*
X26460421Y-18034960D01*
X26460417Y-18034969D01*
X26421200Y-18181331D01*
X26421200Y-18513015D01*
X26399526Y-18565341D01*
X26305565Y-18659301D01*
X26223831Y-18797505D01*
X26179035Y-18951693D01*
X26176200Y-18987719D01*
X25817199Y-18987719D01*
X25814365Y-18951696D01*
X25791501Y-18872998D01*
X25797716Y-18816706D01*
X25810233Y-18800033D01*
X25888151Y-18722116D01*
X25970284Y-18599195D01*
X26026858Y-18462613D01*
X26055700Y-18317618D01*
X26055700Y-18169782D01*
X26026858Y-18024787D01*
X26012737Y-17990697D01*
X25970284Y-17888205D01*
X25888151Y-17765284D01*
X25783615Y-17660748D01*
X25660694Y-17578615D01*
X25524117Y-17522043D01*
X25524107Y-17522040D01*
X25427011Y-17502726D01*
X25379118Y-17493200D01*
X25231282Y-17493200D01*
X25190177Y-17501376D01*
X25086292Y-17522040D01*
X25086282Y-17522043D01*
X24949705Y-17578615D01*
X24826784Y-17660748D01*
X24826783Y-17660750D01*
X24722250Y-17765283D01*
X24722248Y-17765284D01*
X24640115Y-17888205D01*
X24583543Y-18024782D01*
X24583540Y-18024792D01*
X24556462Y-18160920D01*
X24538513Y-18194511D01*
X24539136Y-18194990D01*
X24536243Y-18198758D01*
X24536225Y-18198794D01*
X24536189Y-18198829D01*
X24536184Y-18198836D01*
X24460421Y-18330060D01*
X24460417Y-18330069D01*
X24421200Y-18476431D01*
X24421200Y-18513015D01*
X24399526Y-18565341D01*
X24305565Y-18659301D01*
X24223831Y-18797505D01*
X24179035Y-18951693D01*
X24176200Y-18987719D01*
X22500204Y-18987719D01*
X22500181Y-18987546D01*
X22449507Y-18878875D01*
X22364724Y-18794092D01*
X22256053Y-18743418D01*
X22256054Y-18743418D01*
X22206538Y-18736900D01*
X22121700Y-18736900D01*
X22121700Y-19091900D01*
X21871700Y-19091900D01*
X21871700Y-18736900D01*
X21786862Y-18736900D01*
X21737345Y-18743418D01*
X21628675Y-18794092D01*
X21543892Y-18878875D01*
X21493218Y-18987545D01*
X21486700Y-19037061D01*
X19038037Y-19037061D01*
X19045574Y-19018866D01*
X19083460Y-18998615D01*
X19224513Y-18970558D01*
X19361095Y-18913984D01*
X19484016Y-18831851D01*
X19588551Y-18727316D01*
X19670684Y-18604395D01*
X19727258Y-18467813D01*
X19756100Y-18322818D01*
X19756100Y-18174982D01*
X19727258Y-18029987D01*
X19705349Y-17977095D01*
X19670684Y-17893405D01*
X19601076Y-17789229D01*
X19588551Y-17770484D01*
X19588550Y-17770483D01*
X19586531Y-17767461D01*
X19587488Y-17766820D01*
X19572200Y-17724082D01*
X19572200Y-17347856D01*
X19593874Y-17295530D01*
X19629003Y-17260401D01*
X19676817Y-17212587D01*
X19759194Y-17073295D01*
X19804343Y-16917893D01*
X19807200Y-16881590D01*
X19807200Y-16472210D01*
X19804343Y-16435907D01*
X19759194Y-16280505D01*
X19676817Y-16141213D01*
X19562387Y-16026783D01*
X19562384Y-16026780D01*
X19536916Y-16011718D01*
X19502910Y-15966426D01*
X19501219Y-15938364D01*
X19506700Y-15896736D01*
X19506700Y-15841900D01*
X19070700Y-15841900D01*
X19018374Y-15820226D01*
X18996700Y-15767900D01*
X18996700Y-15716900D01*
X18945700Y-15716900D01*
X18893374Y-15695226D01*
X18871700Y-15642900D01*
X18871700Y-15591900D01*
X19121700Y-15591900D01*
X19506700Y-15591900D01*
X19506700Y-15537061D01*
X19500181Y-15487545D01*
X19449507Y-15378875D01*
X19364724Y-15294092D01*
X19256053Y-15243418D01*
X19256054Y-15243418D01*
X19206538Y-15236900D01*
X19121700Y-15236900D01*
X19121700Y-15591900D01*
X18871700Y-15591900D01*
X18871700Y-15236900D01*
X18786862Y-15236900D01*
X18737345Y-15243418D01*
X18628675Y-15294092D01*
X18543892Y-15378875D01*
X18543892Y-15378876D01*
X18528439Y-15412015D01*
X18486681Y-15450278D01*
X18430098Y-15447808D01*
X18409046Y-15433067D01*
X18212879Y-15236900D01*
X17135665Y-14159685D01*
X17135662Y-14159683D01*
X17135661Y-14159682D01*
X17004439Y-14083921D01*
X17004430Y-14083917D01*
X16858068Y-14044700D01*
X16858066Y-14044700D01*
X15572466Y-14044700D01*
X15420934Y-14044700D01*
X15420932Y-14044700D01*
X15269881Y-14085174D01*
X15269495Y-14083734D01*
X15223905Y-14083734D01*
X15223519Y-14085174D01*
X15072468Y-14044700D01*
X15072466Y-14044700D01*
X14334166Y-14044700D01*
X14182633Y-14044700D01*
X14182631Y-14044700D01*
X14036268Y-14083917D01*
X14036263Y-14083919D01*
X13905037Y-14159683D01*
X12080783Y-15983937D01*
X12005021Y-16115160D01*
X12005017Y-16115169D01*
X11965800Y-16261531D01*
X11965800Y-22340500D01*
X11944126Y-22392826D01*
X11891800Y-22414500D01*
X5269032Y-22414500D01*
X5216706Y-22392826D01*
X4803874Y-21979994D01*
X4782200Y-21927668D01*
X4782200Y-9432034D01*
X4803874Y-9379708D01*
X4856200Y-9358034D01*
X4884516Y-9363666D01*
X4950887Y-9391158D01*
X5095882Y-9420000D01*
X5095884Y-9420000D01*
X5243716Y-9420000D01*
X5243718Y-9420000D01*
X5388713Y-9391158D01*
X5525295Y-9334584D01*
X5648216Y-9252451D01*
X5752751Y-9147916D01*
X5829276Y-9033388D01*
X5876368Y-9001922D01*
X5890805Y-9000500D01*
X9048395Y-9000500D01*
X9100721Y-9022174D01*
X9109924Y-9033388D01*
X9186449Y-9147916D01*
X9290984Y-9252451D01*
X9413905Y-9334584D01*
X9550487Y-9391158D01*
X9695482Y-9420000D01*
X9695484Y-9420000D01*
X9843316Y-9420000D01*
X9843318Y-9420000D01*
X9988313Y-9391158D01*
X10124895Y-9334584D01*
X10247816Y-9252451D01*
X10352351Y-9147916D01*
X10428876Y-9033388D01*
X10475968Y-9001922D01*
X10490405Y-9000500D01*
X12500207Y-9000500D01*
X12500500Y-9000207D01*
X12500500Y-374000D01*
X12522174Y-321674D01*
X12574500Y-300000D01*
X29626000Y-300000D01*
X29678326Y-321674D01*
X29700000Y-374000D01*
X29700000Y-29626000D01*
X29678326Y-29678326D01*
X29626000Y-29700000D01*
X374000Y-29700000D01*
X321674Y-29678326D01*
X300000Y-29626000D01*
X300000Y-28579205D01*
X900001Y-28579205D01*
X902850Y-28609602D01*
X902852Y-28609611D01*
X947652Y-28737643D01*
X1028207Y-28846791D01*
X1028208Y-28846792D01*
X1137356Y-28927347D01*
X1137355Y-28927347D01*
X1265385Y-28972146D01*
X1265393Y-28972148D01*
X1295802Y-28974999D01*
X1575000Y-28974999D01*
X1825000Y-28974999D01*
X2104194Y-28974999D01*
X2104205Y-28974998D01*
X2134602Y-28972149D01*
X2134611Y-28972147D01*
X2262643Y-28927347D01*
X2371791Y-28846792D01*
X2371792Y-28846791D01*
X2452347Y-28737643D01*
X2497146Y-28609614D01*
X2497148Y-28609606D01*
X2499998Y-28579205D01*
X6500001Y-28579205D01*
X6502850Y-28609602D01*
X6502852Y-28609611D01*
X6547652Y-28737643D01*
X6628207Y-28846791D01*
X6628208Y-28846792D01*
X6737356Y-28927347D01*
X6737355Y-28927347D01*
X6865385Y-28972146D01*
X6865393Y-28972148D01*
X6895802Y-28974999D01*
X7175000Y-28974999D01*
X7425000Y-28974999D01*
X7704194Y-28974999D01*
X7704205Y-28974998D01*
X7734602Y-28972149D01*
X7734611Y-28972147D01*
X7862643Y-28927347D01*
X7971791Y-28846792D01*
X7971792Y-28846791D01*
X8052347Y-28737643D01*
X8097146Y-28609614D01*
X8097148Y-28609606D01*
X8099999Y-28579198D01*
X8100000Y-28579197D01*
X8100000Y-28000000D01*
X7425000Y-28000000D01*
X7425000Y-28974999D01*
X7175000Y-28974999D01*
X7175000Y-28000000D01*
X6500001Y-28000000D01*
X6500001Y-28579205D01*
X2499998Y-28579205D01*
X2499999Y-28579198D01*
X2500000Y-28579197D01*
X2500000Y-28000000D01*
X1825000Y-28000000D01*
X1825000Y-28974999D01*
X1575000Y-28974999D01*
X1575000Y-28000000D01*
X900001Y-28000000D01*
X900001Y-28579205D01*
X300000Y-28579205D01*
X300000Y-27170801D01*
X900000Y-27170801D01*
X900000Y-27750000D01*
X1575000Y-27750000D01*
X1825000Y-27750000D01*
X2499999Y-27750000D01*
X2499999Y-27170807D01*
X2499999Y-27170801D01*
X6500000Y-27170801D01*
X6500000Y-27750000D01*
X7175000Y-27750000D01*
X7425000Y-27750000D01*
X8099999Y-27750000D01*
X8099999Y-27170806D01*
X8099998Y-27170794D01*
X8097149Y-27140397D01*
X8097147Y-27140388D01*
X8052347Y-27012356D01*
X7971792Y-26903208D01*
X7971791Y-26903207D01*
X7862643Y-26822652D01*
X7862644Y-26822652D01*
X7734614Y-26777853D01*
X7734606Y-26777851D01*
X7704198Y-26775000D01*
X7425000Y-26775000D01*
X7425000Y-27750000D01*
X7175000Y-27750000D01*
X7175000Y-26775000D01*
X6895806Y-26775000D01*
X6895793Y-26775001D01*
X6865397Y-26777850D01*
X6865388Y-26777852D01*
X6737356Y-26822652D01*
X6628208Y-26903207D01*
X6628207Y-26903208D01*
X6547652Y-27012356D01*
X6502853Y-27140385D01*
X6502851Y-27140393D01*
X6500000Y-27170801D01*
X2499999Y-27170801D01*
X2499998Y-27170793D01*
X2497149Y-27140397D01*
X2497147Y-27140388D01*
X2452347Y-27012356D01*
X2371792Y-26903208D01*
X2371791Y-26903207D01*
X2262643Y-26822652D01*
X2262644Y-26822652D01*
X2134614Y-26777853D01*
X2134606Y-26777851D01*
X2104198Y-26775000D01*
X1825000Y-26775000D01*
X1825000Y-27750000D01*
X1575000Y-27750000D01*
X1575000Y-26775000D01*
X1295806Y-26775000D01*
X1295793Y-26775001D01*
X1265397Y-26777850D01*
X1265388Y-26777852D01*
X1137356Y-26822652D01*
X1028208Y-26903207D01*
X1028207Y-26903208D01*
X947652Y-27012356D01*
X902853Y-27140385D01*
X902851Y-27140393D01*
X900000Y-27170801D01*
X300000Y-27170801D01*
X300000Y-24658224D01*
X2500001Y-24658224D01*
X2509912Y-24726250D01*
X2561213Y-24831188D01*
X2643810Y-24913785D01*
X2748750Y-24965087D01*
X2816781Y-24974999D01*
X2874999Y-24974998D01*
X2875000Y-24974998D01*
X2875000Y-24125000D01*
X2500001Y-24125000D01*
X2500001Y-24658224D01*
X300000Y-24658224D01*
X300000Y-23341776D01*
X2500000Y-23341776D01*
X2500000Y-23875000D01*
X2875000Y-23875000D01*
X2875000Y-23025000D01*
X2874999Y-23024999D01*
X2816789Y-23025000D01*
X2816776Y-23025001D01*
X2748749Y-23034912D01*
X2643811Y-23086213D01*
X2561214Y-23168810D01*
X2509912Y-23273750D01*
X2500000Y-23341776D01*
X300000Y-23341776D01*
X300000Y-374000D01*
X321674Y-321674D01*
X374000Y-300000D01*
X1925500Y-300000D01*
X1977826Y-321674D01*
G37*
%TD.AperFunction*%
%TA.AperFunction,Conductor*%
G36*
X14234588Y-22024529D02*
G01*
X14239980Y-22023153D01*
X14260128Y-22035108D01*
X14281774Y-22044074D01*
X14283903Y-22049215D01*
X14288688Y-22052054D01*
X14294481Y-22074753D01*
X14303448Y-22096400D01*
X14301318Y-22101540D01*
X14302695Y-22106932D01*
X14290739Y-22127080D01*
X14281774Y-22148726D01*
X14273794Y-22155640D01*
X14262155Y-22164352D01*
X14262154Y-22164353D01*
X14175905Y-22279567D01*
X14173832Y-22283364D01*
X14129732Y-22318902D01*
X14125986Y-22319897D01*
X14013803Y-22346546D01*
X13997977Y-22344000D01*
X13982260Y-22347126D01*
X13959945Y-22337883D01*
X13957884Y-22337552D01*
X13957345Y-22336806D01*
X13955591Y-22336080D01*
X13951735Y-22333504D01*
X13951734Y-22333503D01*
X13893397Y-22321900D01*
X13871700Y-22321900D01*
X13871700Y-22734400D01*
X14045200Y-22734400D01*
X14097526Y-22756074D01*
X14119200Y-22808400D01*
X14119200Y-22850400D01*
X14097526Y-22902726D01*
X14045200Y-22924400D01*
X13320700Y-22924400D01*
X13268374Y-22902726D01*
X13246700Y-22850400D01*
X13246700Y-22808400D01*
X13268374Y-22756074D01*
X13320700Y-22734400D01*
X13621700Y-22734400D01*
X13621700Y-22321900D01*
X13604595Y-22304795D01*
X13582921Y-22252469D01*
X13595392Y-22211357D01*
X13635096Y-22151935D01*
X13646700Y-22093594D01*
X13647057Y-22089977D01*
X13649270Y-22090195D01*
X13668374Y-22044074D01*
X13720700Y-22022400D01*
X14229448Y-22022400D01*
X14234588Y-22024529D01*
G37*
%TD.AperFunction*%
%TA.AperFunction,Conductor*%
G36*
X17723524Y-16375303D02*
G01*
X17749151Y-16400930D01*
X17851226Y-16503005D01*
X17872900Y-16555331D01*
X17872900Y-18622400D01*
X17851226Y-18674726D01*
X17798900Y-18696400D01*
X17571827Y-18696400D01*
X17512214Y-18702809D01*
X17377370Y-18753102D01*
X17377369Y-18753103D01*
X17262154Y-18839354D01*
X17175905Y-18954567D01*
X17173832Y-18958364D01*
X17129732Y-18993902D01*
X17125986Y-18994897D01*
X17013803Y-19021546D01*
X16997977Y-19019000D01*
X16982260Y-19022126D01*
X16959945Y-19012883D01*
X16957884Y-19012552D01*
X16957345Y-19011806D01*
X16955591Y-19011080D01*
X16951735Y-19008504D01*
X16951734Y-19008503D01*
X16893397Y-18996900D01*
X16871700Y-18996900D01*
X16871700Y-19409400D01*
X17045200Y-19409400D01*
X17097526Y-19431074D01*
X17119200Y-19483399D01*
X17119201Y-19585399D01*
X17097527Y-19637725D01*
X17045202Y-19659400D01*
X16871700Y-19659400D01*
X16871700Y-20071900D01*
X16893397Y-20071900D01*
X16951735Y-20060296D01*
X16955588Y-20057722D01*
X16970024Y-20054850D01*
X16982263Y-20046673D01*
X16996700Y-20049544D01*
X17011137Y-20046673D01*
X17037812Y-20057722D01*
X17047160Y-20063968D01*
X17078626Y-20111060D01*
X17075383Y-20151357D01*
X17052609Y-20212418D01*
X17046200Y-20272026D01*
X17046200Y-20621772D01*
X17053104Y-20685985D01*
X17052258Y-20686075D01*
X17052258Y-20707724D01*
X17053104Y-20707815D01*
X17046200Y-20772026D01*
X17046200Y-21121772D01*
X17052609Y-21181385D01*
X17102902Y-21316229D01*
X17102903Y-21316230D01*
X17167525Y-21402553D01*
X17181532Y-21457431D01*
X17167525Y-21491247D01*
X17102903Y-21577569D01*
X17102902Y-21577570D01*
X17052610Y-21712412D01*
X17052609Y-21712417D01*
X17046200Y-21772026D01*
X17046200Y-21963754D01*
X17024526Y-22016080D01*
X16998060Y-22033088D01*
X16877370Y-22078102D01*
X16877369Y-22078103D01*
X16762154Y-22164354D01*
X16675905Y-22279567D01*
X16673832Y-22283364D01*
X16629732Y-22318902D01*
X16625986Y-22319897D01*
X16513803Y-22346546D01*
X16497977Y-22344000D01*
X16482260Y-22347126D01*
X16459945Y-22337883D01*
X16457884Y-22337552D01*
X16457345Y-22336806D01*
X16455591Y-22336080D01*
X16451735Y-22333504D01*
X16451734Y-22333503D01*
X16393394Y-22321899D01*
X16389777Y-22321543D01*
X16389995Y-22319329D01*
X16343874Y-22300226D01*
X16322200Y-22247900D01*
X16322200Y-20790140D01*
X16327833Y-20761821D01*
X16345358Y-20719513D01*
X16374200Y-20574518D01*
X16374200Y-20426682D01*
X16345358Y-20281687D01*
X16300843Y-20174218D01*
X16300843Y-20117581D01*
X16340891Y-20077533D01*
X16354069Y-20073466D01*
X16481559Y-20046817D01*
X16496361Y-20049612D01*
X16511137Y-20046673D01*
X16536556Y-20057202D01*
X16537213Y-20057326D01*
X16537353Y-20057532D01*
X16537812Y-20057722D01*
X16541664Y-20060296D01*
X16600003Y-20071900D01*
X16621700Y-20071900D01*
X16621700Y-19659400D01*
X14948200Y-19659400D01*
X14895874Y-19637726D01*
X14874200Y-19585401D01*
X14874199Y-19483401D01*
X14895873Y-19431075D01*
X14948198Y-19409400D01*
X15121700Y-19409400D01*
X15371700Y-19409400D01*
X15621700Y-19409400D01*
X15871700Y-19409400D01*
X16121700Y-19409400D01*
X16371700Y-19409400D01*
X16621700Y-19409400D01*
X16621700Y-18996900D01*
X16600003Y-18996900D01*
X16541665Y-19008503D01*
X16541664Y-19008504D01*
X16537809Y-19011080D01*
X16482260Y-19022126D01*
X16455591Y-19011080D01*
X16451735Y-19008504D01*
X16451734Y-19008503D01*
X16393397Y-18996900D01*
X16371700Y-18996900D01*
X16371700Y-19409400D01*
X16121700Y-19409400D01*
X16121700Y-18996900D01*
X16100003Y-18996900D01*
X16041665Y-19008503D01*
X16041664Y-19008504D01*
X16037809Y-19011080D01*
X15982260Y-19022126D01*
X15955591Y-19011080D01*
X15951735Y-19008504D01*
X15951734Y-19008503D01*
X15893397Y-18996900D01*
X15871700Y-18996900D01*
X15871700Y-19409400D01*
X15621700Y-19409400D01*
X15621700Y-18996900D01*
X15600003Y-18996900D01*
X15541665Y-19008503D01*
X15541664Y-19008504D01*
X15537809Y-19011080D01*
X15482260Y-19022126D01*
X15455591Y-19011080D01*
X15451735Y-19008504D01*
X15451734Y-19008503D01*
X15393397Y-18996900D01*
X15371700Y-18996900D01*
X15371700Y-19409400D01*
X15121700Y-19409400D01*
X15121700Y-18996900D01*
X15100003Y-18996900D01*
X15041665Y-19008503D01*
X15041664Y-19008504D01*
X15037809Y-19011080D01*
X14982260Y-19022126D01*
X14979597Y-19021546D01*
X14867414Y-18994897D01*
X14850953Y-18982997D01*
X14832191Y-18975226D01*
X14822741Y-18962603D01*
X14821514Y-18961716D01*
X14821359Y-18960757D01*
X14819568Y-18958364D01*
X14817497Y-18954574D01*
X14817496Y-18954569D01*
X14731246Y-18839354D01*
X14616031Y-18753104D01*
X14616030Y-18753103D01*
X14616029Y-18753102D01*
X14481187Y-18702810D01*
X14481184Y-18702809D01*
X14481183Y-18702809D01*
X14421573Y-18696400D01*
X14071827Y-18696400D01*
X14021268Y-18701835D01*
X14012217Y-18702809D01*
X14012216Y-18702809D01*
X14007615Y-18703304D01*
X14007524Y-18702460D01*
X13985875Y-18702457D01*
X13985785Y-18703304D01*
X13981183Y-18702809D01*
X13921573Y-18696400D01*
X13571827Y-18696400D01*
X13512214Y-18702809D01*
X13377370Y-18753102D01*
X13377369Y-18753103D01*
X13262153Y-18839354D01*
X13250039Y-18855537D01*
X13201330Y-18884436D01*
X13146452Y-18870428D01*
X13117553Y-18821719D01*
X13116800Y-18811189D01*
X13116800Y-16606331D01*
X13138473Y-16554006D01*
X13269876Y-16422602D01*
X13322200Y-16400930D01*
X13374526Y-16422604D01*
X13396200Y-16474929D01*
X13396200Y-16619772D01*
X13402609Y-16679387D01*
X13402728Y-16679888D01*
X13402728Y-16680487D01*
X13403104Y-16683985D01*
X13402728Y-16684025D01*
X13402728Y-16709774D01*
X13403104Y-16709815D01*
X13402728Y-16713302D01*
X13402729Y-16713907D01*
X13402609Y-16714412D01*
X13396200Y-16774026D01*
X13396200Y-17119772D01*
X13402609Y-17179385D01*
X13452902Y-17314229D01*
X13452903Y-17314230D01*
X13473967Y-17342367D01*
X13539154Y-17429446D01*
X13632109Y-17499032D01*
X13654369Y-17515696D01*
X13654370Y-17515697D01*
X13765305Y-17557072D01*
X13789217Y-17565991D01*
X13848827Y-17572400D01*
X14302324Y-17572399D01*
X14354650Y-17594073D01*
X14375900Y-17638487D01*
X14377609Y-17654385D01*
X14427902Y-17789229D01*
X14427903Y-17789230D01*
X14433409Y-17796585D01*
X14514154Y-17904446D01*
X14629369Y-17990696D01*
X14629370Y-17990697D01*
X14720785Y-18024792D01*
X14764217Y-18040991D01*
X14823827Y-18047400D01*
X15169572Y-18047399D01*
X15229183Y-18040991D01*
X15296607Y-18015843D01*
X15364029Y-17990697D01*
X15364029Y-17990696D01*
X15364031Y-17990696D01*
X15479246Y-17904446D01*
X15565496Y-17789231D01*
X15565499Y-17789222D01*
X15567568Y-17785436D01*
X15611668Y-17749898D01*
X15614901Y-17749027D01*
X15729084Y-17721041D01*
X15745170Y-17723510D01*
X15761131Y-17720335D01*
X15782716Y-17729275D01*
X15785065Y-17729636D01*
X15785710Y-17730515D01*
X15787817Y-17731388D01*
X15793665Y-17735296D01*
X15852003Y-17746900D01*
X15871700Y-17746900D01*
X15871700Y-17394693D01*
X15893374Y-17342367D01*
X15945700Y-17320693D01*
X15998026Y-17342367D01*
X16004937Y-17350343D01*
X16064154Y-17429446D01*
X16092046Y-17450326D01*
X16120946Y-17499032D01*
X16121700Y-17509565D01*
X16121700Y-17746900D01*
X16141397Y-17746900D01*
X16199735Y-17735296D01*
X16265891Y-17691092D01*
X16265892Y-17691091D01*
X16310095Y-17624936D01*
X16312884Y-17618204D01*
X16316912Y-17619872D01*
X16339641Y-17585222D01*
X16381271Y-17572399D01*
X17144572Y-17572399D01*
X17204183Y-17565991D01*
X17322014Y-17522043D01*
X17339029Y-17515697D01*
X17339029Y-17515696D01*
X17339031Y-17515696D01*
X17454246Y-17429446D01*
X17540496Y-17314231D01*
X17541058Y-17312726D01*
X17567860Y-17240863D01*
X17590791Y-17179383D01*
X17597200Y-17119773D01*
X17597199Y-16774028D01*
X17590791Y-16714417D01*
X17590788Y-16714410D01*
X17590674Y-16713925D01*
X17590674Y-16713330D01*
X17590296Y-16709814D01*
X17590674Y-16709773D01*
X17590674Y-16684026D01*
X17590296Y-16683986D01*
X17590674Y-16680461D01*
X17590675Y-16679872D01*
X17590789Y-16679388D01*
X17590791Y-16679383D01*
X17597200Y-16619773D01*
X17597199Y-16427628D01*
X17618873Y-16375304D01*
X17671199Y-16353630D01*
X17723524Y-16375303D01*
G37*
%TD.AperFunction*%
%TA.AperFunction,Conductor*%
G36*
X15868602Y-17091721D02*
G01*
X15887582Y-17094116D01*
X15893832Y-17102171D01*
X15903253Y-17106074D01*
X15913535Y-17127565D01*
X15922301Y-17138863D01*
X15923869Y-17144591D01*
X15927609Y-17179383D01*
X15949342Y-17237653D01*
X15950221Y-17240863D01*
X15947060Y-17265907D01*
X15946160Y-17291141D01*
X15943573Y-17293549D01*
X15943131Y-17297055D01*
X15923184Y-17312531D01*
X15904707Y-17329734D01*
X15901175Y-17329607D01*
X15898384Y-17331774D01*
X15878847Y-17334400D01*
X15696200Y-17334400D01*
X15643874Y-17312726D01*
X15622200Y-17260401D01*
X15622199Y-17158401D01*
X15643873Y-17106075D01*
X15696198Y-17084400D01*
X15850927Y-17084400D01*
X15868602Y-17091721D01*
G37*
%TD.AperFunction*%
%TA.AperFunction,Conductor*%
G36*
X12477826Y-321674D02*
G01*
X12499500Y-374000D01*
X12499500Y-8925500D01*
X12477826Y-8977826D01*
X12425500Y-8999500D01*
X10555793Y-8999500D01*
X10503467Y-8977826D01*
X10481793Y-8925500D01*
X10487426Y-8897182D01*
X10491057Y-8888415D01*
X10491059Y-8888408D01*
X10519900Y-8743416D01*
X10519900Y-8595583D01*
X10504007Y-8515687D01*
X10491058Y-8450587D01*
X10434484Y-8314005D01*
X10352351Y-8191084D01*
X10332174Y-8170907D01*
X10310500Y-8118581D01*
X10310500Y-7775310D01*
X10307643Y-7739007D01*
X10262494Y-7583605D01*
X10180117Y-7444313D01*
X10065687Y-7329883D01*
X10065684Y-7329880D01*
X10040216Y-7314818D01*
X10006210Y-7269526D01*
X10004519Y-7241464D01*
X10010000Y-7199836D01*
X10010000Y-7145000D01*
X8990000Y-7145000D01*
X8990000Y-7199838D01*
X8995480Y-7241465D01*
X8980821Y-7296173D01*
X8959784Y-7314818D01*
X8934313Y-7329882D01*
X8819883Y-7444312D01*
X8737506Y-7583603D01*
X8692357Y-7739004D01*
X8689500Y-7775310D01*
X8689500Y-8184689D01*
X8692357Y-8220995D01*
X8737506Y-8376396D01*
X8819883Y-8515687D01*
X8934313Y-8630117D01*
X8969163Y-8650727D01*
X8995579Y-8677419D01*
X9008984Y-8700635D01*
X9018900Y-8737638D01*
X9018900Y-8743416D01*
X9047740Y-8888408D01*
X9047742Y-8888415D01*
X9051374Y-8897182D01*
X9051374Y-8953819D01*
X9011325Y-8993867D01*
X8983007Y-8999500D01*
X5956193Y-8999500D01*
X5903867Y-8977826D01*
X5882193Y-8925500D01*
X5887826Y-8897182D01*
X5891457Y-8888415D01*
X5891456Y-8888415D01*
X5891458Y-8888413D01*
X5918537Y-8752278D01*
X5938786Y-8714393D01*
X5954766Y-8698413D01*
X5969420Y-8687048D01*
X5985702Y-8677419D01*
X6065687Y-8630117D01*
X6180117Y-8515687D01*
X6262494Y-8376395D01*
X6307643Y-8220993D01*
X6310500Y-8184690D01*
X6310500Y-7775310D01*
X6307643Y-7739007D01*
X6262494Y-7583605D01*
X6180117Y-7444313D01*
X6065687Y-7329883D01*
X6065684Y-7329880D01*
X6040216Y-7314818D01*
X6006210Y-7269526D01*
X6004519Y-7241464D01*
X6010000Y-7199836D01*
X6010000Y-7145000D01*
X4990000Y-7145000D01*
X4990000Y-7199838D01*
X4995480Y-7241465D01*
X4993039Y-7250573D01*
X4995621Y-7259644D01*
X4987089Y-7272779D01*
X4980821Y-7296173D01*
X4968066Y-7309127D01*
X4964110Y-7312260D01*
X4934313Y-7329883D01*
X4905503Y-7358692D01*
X4902153Y-7361347D01*
X4878712Y-7368018D01*
X4856200Y-7377344D01*
X4852025Y-7375615D01*
X4847680Y-7376852D01*
X4826389Y-7364996D01*
X4803874Y-7355670D01*
X4802144Y-7351495D01*
X4798197Y-7349297D01*
X4791525Y-7325856D01*
X4782200Y-7303344D01*
X4782200Y-5977032D01*
X4803874Y-5924706D01*
X4856200Y-5903032D01*
X4908526Y-5924706D01*
X4923511Y-5939691D01*
X4943763Y-5977580D01*
X4970840Y-6113707D01*
X4970843Y-6113717D01*
X5027415Y-6250294D01*
X5027416Y-6250295D01*
X5109549Y-6373216D01*
X5194700Y-6458367D01*
X5216374Y-6510692D01*
X5194700Y-6563018D01*
X5173649Y-6577758D01*
X5131978Y-6597190D01*
X5131975Y-6597192D01*
X5047192Y-6681975D01*
X4996518Y-6790645D01*
X4990000Y-6840161D01*
X4990000Y-6895000D01*
X6010000Y-6895000D01*
X6010000Y-6840161D01*
X8990000Y-6840161D01*
X8990000Y-6895000D01*
X9375000Y-6895000D01*
X9625000Y-6895000D01*
X10010000Y-6895000D01*
X10010000Y-6840161D01*
X10003481Y-6790645D01*
X9952807Y-6681975D01*
X9868024Y-6597192D01*
X9759353Y-6546518D01*
X9759354Y-6546518D01*
X9709838Y-6540000D01*
X9625000Y-6540000D01*
X9625000Y-6895000D01*
X9375000Y-6895000D01*
X9375000Y-6540000D01*
X9290162Y-6540000D01*
X9240645Y-6546518D01*
X9131975Y-6597192D01*
X9047192Y-6681975D01*
X8996518Y-6790645D01*
X8990000Y-6840161D01*
X6010000Y-6840161D01*
X6003481Y-6790645D01*
X5953169Y-6682752D01*
X5950699Y-6626169D01*
X5988962Y-6584411D01*
X5991864Y-6583133D01*
X6047995Y-6559884D01*
X6170916Y-6477751D01*
X6275451Y-6373216D01*
X6357584Y-6250295D01*
X6414158Y-6113713D01*
X6443000Y-5968718D01*
X6443000Y-5820882D01*
X6414158Y-5675887D01*
X6357584Y-5539305D01*
X6275451Y-5416384D01*
X6170916Y-5311849D01*
X6170912Y-5311846D01*
X6170910Y-5311844D01*
X6123852Y-5280401D01*
X6117634Y-5271095D01*
X6107763Y-5265819D01*
X6102485Y-5248423D01*
X6092387Y-5233309D01*
X6091321Y-5211621D01*
X6094072Y-5183685D01*
X6099348Y-5162622D01*
X6111009Y-5134472D01*
X6120534Y-5062116D01*
X6148852Y-5013068D01*
X6203559Y-4998409D01*
X6213141Y-5003134D01*
X6225000Y-4998222D01*
X6225000Y-4686645D01*
X6210438Y-4613437D01*
X6221487Y-4557888D01*
X6268579Y-4526422D01*
X6283016Y-4525000D01*
X6498223Y-4525000D01*
X6502653Y-4514303D01*
X6499499Y-4509781D01*
X6500959Y-4501587D01*
X6497775Y-4493900D01*
X6505770Y-4474596D01*
X6509438Y-4454023D01*
X6516027Y-4449833D01*
X6519449Y-4441574D01*
X6555894Y-4421624D01*
X6558969Y-4420948D01*
X6634472Y-4411009D01*
X6668671Y-4396842D01*
X6675056Y-4395440D01*
X6676907Y-4395769D01*
X6683685Y-4394072D01*
X6717517Y-4390740D01*
X6718102Y-4389866D01*
X6751313Y-4362611D01*
X6771429Y-4354279D01*
X6889036Y-4264036D01*
X6979279Y-4146429D01*
X7036009Y-4009472D01*
X7050500Y-3899401D01*
X7050499Y-3700600D01*
X7036009Y-3590528D01*
X6979279Y-3453571D01*
X6939804Y-3402126D01*
X8049500Y-3402126D01*
X8049500Y-3797872D01*
X8054449Y-3843903D01*
X8055909Y-3857483D01*
X8077302Y-3914840D01*
X8099419Y-3974140D01*
X8099419Y-4025860D01*
X8056708Y-4140377D01*
X8055909Y-4142518D01*
X8049500Y-4202126D01*
X8049500Y-4597872D01*
X8055909Y-4657485D01*
X8106202Y-4792329D01*
X8106203Y-4792330D01*
X8106204Y-4792331D01*
X8192454Y-4907546D01*
X8307669Y-4993796D01*
X8307670Y-4993797D01*
X8389725Y-5024401D01*
X8442517Y-5044091D01*
X8502127Y-5050500D01*
X9097872Y-5050499D01*
X9157483Y-5044091D01*
X9279963Y-4998409D01*
X9292329Y-4993797D01*
X9292329Y-4993796D01*
X9292331Y-4993796D01*
X9407546Y-4907546D01*
X9440761Y-4863176D01*
X9489469Y-4834277D01*
X9544347Y-4848284D01*
X9559237Y-4863174D01*
X9592454Y-4907546D01*
X9707669Y-4993796D01*
X9707670Y-4993797D01*
X9789725Y-5024401D01*
X9842517Y-5044091D01*
X9902127Y-5050500D01*
X10497872Y-5050499D01*
X10557483Y-5044091D01*
X10679963Y-4998409D01*
X10692329Y-4993797D01*
X10692329Y-4993796D01*
X10692331Y-4993796D01*
X10807546Y-4907546D01*
X10893796Y-4792331D01*
X10944091Y-4657483D01*
X10950500Y-4597873D01*
X10950499Y-4202128D01*
X10944091Y-4142517D01*
X10900581Y-4025860D01*
X10893797Y-4007670D01*
X10893796Y-4007669D01*
X10868696Y-3974140D01*
X10807546Y-3892454D01*
X10692331Y-3806204D01*
X10692326Y-3806200D01*
X10688530Y-3804127D01*
X10652996Y-3760025D01*
X10650000Y-3739182D01*
X10650000Y-3725000D01*
X10274000Y-3725000D01*
X10221674Y-3703326D01*
X10200000Y-3651000D01*
X10200000Y-3600000D01*
X10149000Y-3600000D01*
X10096674Y-3578326D01*
X10075000Y-3526000D01*
X10075000Y-3524000D01*
X10096674Y-3471674D01*
X10149000Y-3450000D01*
X10269348Y-3450000D01*
X10321674Y-3471674D01*
X10325000Y-3475000D01*
X10650000Y-3475000D01*
X10650000Y-3430302D01*
X10638396Y-3371964D01*
X10594192Y-3305808D01*
X10594191Y-3305807D01*
X10528035Y-3261603D01*
X10469697Y-3250000D01*
X10304033Y-3250000D01*
X10287500Y-3256848D01*
X10270967Y-3250000D01*
X10250000Y-3250000D01*
X9560817Y-3250000D01*
X9508491Y-3228326D01*
X9495868Y-3211464D01*
X9493796Y-3207670D01*
X9493796Y-3207669D01*
X9407546Y-3092454D01*
X9292331Y-3006204D01*
X9292330Y-3006203D01*
X9292329Y-3006202D01*
X9157487Y-2955910D01*
X9157484Y-2955909D01*
X9157483Y-2955909D01*
X9097873Y-2949500D01*
X8502126Y-2949500D01*
X8442514Y-2955909D01*
X8307670Y-3006202D01*
X8307669Y-3006203D01*
X8192454Y-3092454D01*
X8106203Y-3207669D01*
X8106202Y-3207670D01*
X8055910Y-3342512D01*
X8055909Y-3342517D01*
X8049500Y-3402126D01*
X6939804Y-3402126D01*
X6916660Y-3371964D01*
X6889038Y-3335966D01*
X6889033Y-3335961D01*
X6771429Y-3245721D01*
X6634471Y-3188990D01*
X6589839Y-3183114D01*
X6540790Y-3154794D01*
X6525499Y-3109747D01*
X6525499Y-2975600D01*
X6511009Y-2865528D01*
X6499349Y-2837379D01*
X6454279Y-2728571D01*
X6364036Y-2610964D01*
X6364033Y-2610961D01*
X6246429Y-2520721D01*
X6109471Y-2463990D01*
X6025009Y-2452871D01*
X5999401Y-2449500D01*
X5999399Y-2449500D01*
X5800600Y-2449500D01*
X5709658Y-2461472D01*
X5690342Y-2461472D01*
X5618038Y-2451953D01*
X5599401Y-2449500D01*
X5599400Y-2449500D01*
X5400600Y-2449500D01*
X5290528Y-2463990D01*
X5153570Y-2520721D01*
X5035966Y-2610961D01*
X5035961Y-2610966D01*
X4945722Y-2728567D01*
X4945721Y-2728568D01*
X4937387Y-2748688D01*
X4900649Y-2837379D01*
X4900649Y-2837381D01*
X4888990Y-2865528D01*
X4888990Y-2865529D01*
X4879465Y-2937882D01*
X4851146Y-2986931D01*
X4796439Y-3001590D01*
X4786858Y-2996865D01*
X4775000Y-3001777D01*
X4775000Y-3100500D01*
X4753326Y-3152826D01*
X4701000Y-3174500D01*
X4475600Y-3174500D01*
X4365530Y-3188990D01*
X4365526Y-3188991D01*
X4256927Y-3233974D01*
X4247762Y-3237085D01*
X4215536Y-3245720D01*
X4148369Y-3263717D01*
X4148360Y-3263721D01*
X4017137Y-3339483D01*
X4017135Y-3339485D01*
X3909985Y-3446635D01*
X3909984Y-3446636D01*
X3881620Y-3475000D01*
X3842927Y-3513692D01*
X3842926Y-3513693D01*
X3842925Y-3513692D01*
X3746186Y-3610433D01*
X3746184Y-3610436D01*
X3670421Y-3741660D01*
X3670417Y-3741669D01*
X3631200Y-3888031D01*
X3631200Y-8999500D01*
X2074500Y-8999500D01*
X2022174Y-8977826D01*
X2000500Y-8925500D01*
X2000500Y-374000D01*
X2022174Y-321674D01*
X2074500Y-300000D01*
X12425500Y-300000D01*
X12477826Y-321674D01*
G37*
%TD.AperFunction*%
%TD*%
M02*
