M48
; DRILL file KiCad 10.0.1 date 2026-05-30T11:07:45
; FORMAT={-:-/ absolute / metric / decimal}
; #@! TF.CreationDate,2026-05-30T11:07:45+02:00
; #@! TF.GenerationSoftware,Kicad,Pcbnew,10.0.1
; #@! TF.FileFunction,MixedPlating,1,4
FMAT,2
METRIC
; #@! TA.AperFunction,Plated,PTH,ViaDrill
T1C0.300
%
G90
G05
T1
X1.5Y-1.5
X1.5Y-17.5
X1.5Y-34.0
X5.3Y-33.5
X6.7Y-33.5
X8.843Y-22.871
X9.028Y-12.902
X9.032Y-12.239
X9.04Y-17.749
X9.37Y-15.15
X10.0Y-16.376
X10.0Y-19.0
X10.0Y-23.36
X10.0Y-33.5
X10.162Y-11.729
X10.63Y-12.85
X10.694Y-8.347
X10.879Y-19.612
X12.077Y-22.899
X12.662Y-12.806
X12.662Y-17.5
X12.662Y-22.292
X12.899Y-12.123
X13.179Y-5.486
X14.59Y-27.09
X14.59Y-28.91
X14.81Y-26.01
X15.544Y-7.251
X15.92Y-30.1
X15.975Y-27.367
X16.627Y-27.367
X17.5Y-1.5
X17.5Y-24.532
X18.87Y-25.94
X19.127Y-27.367
X19.75Y-25.2
X19.873Y-8.113
X20.449Y-26.486
X24.765Y-26.151
X26.887Y-15.153
X29.0Y-14.5
X29.864Y-26.388
X33.5Y-1.5
X33.5Y-34.0
M30
