%TF.GenerationSoftware,KiCad,Pcbnew,10.0.1*%
%TF.CreationDate,2026-05-30T11:07:37+02:00*%
%TF.ProjectId,sensor_board,73656e73-6f72-45f6-926f-6172642e6b69,rev?*%
%TF.SameCoordinates,Original*%
%TF.FileFunction,Copper,L4,Bot*%
%TF.FilePolarity,Positive*%
%FSLAX46Y46*%
G04 Gerber Fmt 4.6, Leading zero omitted, Abs format (unit mm)*
G04 Created by KiCad (PCBNEW 10.0.1) date 2026-05-30 11:07:37*
%MOMM*%
%LPD*%
G01*
G04 APERTURE LIST*
%TA.AperFunction,ViaPad*%
%ADD10C,0.500000*%
%TD*%
%TA.AperFunction,ViaPad*%
%ADD11C,0.600000*%
%TD*%
%TA.AperFunction,Conductor*%
%ADD12C,0.150000*%
%TD*%
G04 APERTURE END LIST*
D10*
%TO.N,+3V3*%
X12898600Y-12123000D03*
X29863800Y-26388000D03*
X24765300Y-26150700D03*
X8843400Y-22870700D03*
X12077400Y-22899500D03*
X19127000Y-27367400D03*
X12661500Y-22292400D03*
X10693900Y-8346700D03*
D11*
X6700000Y-33500000D03*
D10*
X9027800Y-12902400D03*
X26887100Y-15153000D03*
X10879300Y-19612400D03*
D11*
X10000000Y-33500000D03*
D10*
X19873200Y-8112900D03*
X9032300Y-12238800D03*
X9040100Y-17749100D03*
X10000000Y-16375800D03*
X15975000Y-27367400D03*
X12661500Y-17499700D03*
X15543900Y-7250700D03*
D11*
%TO.N,I2C_SCL*%
X5300000Y-33500000D03*
D10*
X12661500Y-12806300D03*
X10162400Y-11729100D03*
X20448700Y-26485600D03*
X13179500Y-5486000D03*
D11*
X10000000Y-19000000D03*
D10*
%TO.N,BOOTN_N*%
X17500300Y-24532400D03*
X16627000Y-27367400D03*
D11*
%TO.N,GND*%
X10000000Y-23360000D03*
X33500000Y-1500000D03*
X10630000Y-12850000D03*
X33500000Y-34000000D03*
X15920000Y-30100000D03*
X1500000Y-1500000D03*
X17500000Y-1500000D03*
X9370000Y-15150000D03*
X14590000Y-28910000D03*
X18870000Y-25940000D03*
X14810000Y-26010000D03*
X1500000Y-17500000D03*
X1500000Y-34000000D03*
X14590000Y-27090000D03*
%TO.N,I2C_SDA*%
X29000000Y-14500000D03*
X19750000Y-25200000D03*
%TD*%
%TO.N,I2C_SCL*%
D12*
X5300000Y-33500000D02*
X5300000Y-19000000D01*
X5300000Y-19000000D02*
X10000000Y-19000000D01*
%TO.N,I2C_SDA*%
X29000000Y-25200000D02*
X29000000Y-14500000D01*
X19750000Y-25200000D02*
X29000000Y-25200000D01*
%TD*%
%TA.AperFunction,Conductor*%
%TO.N,GND*%
G36*
X34678326Y-321674D02*
G01*
X34700000Y-374000D01*
X34700000Y-34626000D01*
X34678326Y-34678326D01*
X34626000Y-34700000D01*
X374000Y-34700000D01*
X321674Y-34678326D01*
X300000Y-34626000D01*
X300000Y-33421159D01*
X4499500Y-33421159D01*
X4499500Y-33578840D01*
X4530261Y-33733491D01*
X4530264Y-33733501D01*
X4590603Y-33879174D01*
X4661528Y-33985322D01*
X4678211Y-34010289D01*
X4789711Y-34121789D01*
X4920821Y-34209394D01*
X4920826Y-34209396D01*
X4920825Y-34209396D01*
X5066498Y-34269735D01*
X5066503Y-34269737D01*
X5221158Y-34300500D01*
X5221160Y-34300500D01*
X5378840Y-34300500D01*
X5378842Y-34300500D01*
X5533497Y-34269737D01*
X5679179Y-34209394D01*
X5810289Y-34121789D01*
X5921789Y-34010289D01*
X5938471Y-33985321D01*
X5985563Y-33953856D01*
X6041112Y-33964905D01*
X6061527Y-33985320D01*
X6078211Y-34010289D01*
X6189711Y-34121789D01*
X6320821Y-34209394D01*
X6320826Y-34209396D01*
X6320825Y-34209396D01*
X6466498Y-34269735D01*
X6466503Y-34269737D01*
X6621158Y-34300500D01*
X6621160Y-34300500D01*
X6778840Y-34300500D01*
X6778842Y-34300500D01*
X6933497Y-34269737D01*
X7079179Y-34209394D01*
X7210289Y-34121789D01*
X7321789Y-34010289D01*
X7409394Y-33879179D01*
X7469737Y-33733497D01*
X7500500Y-33578842D01*
X7500500Y-33421159D01*
X9199500Y-33421159D01*
X9199500Y-33578840D01*
X9230261Y-33733491D01*
X9230264Y-33733501D01*
X9290603Y-33879174D01*
X9361528Y-33985322D01*
X9378211Y-34010289D01*
X9489711Y-34121789D01*
X9620821Y-34209394D01*
X9620826Y-34209396D01*
X9620825Y-34209396D01*
X9766498Y-34269735D01*
X9766503Y-34269737D01*
X9921158Y-34300500D01*
X9921160Y-34300500D01*
X10078840Y-34300500D01*
X10078842Y-34300500D01*
X10233497Y-34269737D01*
X10379179Y-34209394D01*
X10510289Y-34121789D01*
X10621789Y-34010289D01*
X10709394Y-33879179D01*
X10769737Y-33733497D01*
X10800500Y-33578842D01*
X10800500Y-33421158D01*
X10769737Y-33266503D01*
X10709394Y-33120821D01*
X10621789Y-32989711D01*
X10510289Y-32878211D01*
X10379179Y-32790606D01*
X10379175Y-32790604D01*
X10379173Y-32790603D01*
X10379174Y-32790603D01*
X10233501Y-32730264D01*
X10233491Y-32730261D01*
X10129925Y-32709661D01*
X10078842Y-32699500D01*
X9921158Y-32699500D01*
X9877315Y-32708220D01*
X9766508Y-32730261D01*
X9766498Y-32730264D01*
X9620825Y-32790603D01*
X9489711Y-32878210D01*
X9489710Y-32878212D01*
X9378212Y-32989710D01*
X9378210Y-32989711D01*
X9290603Y-33120825D01*
X9230264Y-33266498D01*
X9230261Y-33266508D01*
X9199500Y-33421159D01*
X7500500Y-33421159D01*
X7500500Y-33421158D01*
X7469737Y-33266503D01*
X7409394Y-33120821D01*
X7321789Y-32989711D01*
X7210289Y-32878211D01*
X7079179Y-32790606D01*
X7079175Y-32790604D01*
X7079173Y-32790603D01*
X7079174Y-32790603D01*
X6933501Y-32730264D01*
X6933491Y-32730261D01*
X6829925Y-32709661D01*
X6778842Y-32699500D01*
X6621158Y-32699500D01*
X6577315Y-32708220D01*
X6466508Y-32730261D01*
X6466498Y-32730264D01*
X6320825Y-32790603D01*
X6189711Y-32878210D01*
X6189710Y-32878211D01*
X6078209Y-32989713D01*
X6078206Y-32989716D01*
X6061528Y-33014678D01*
X6052401Y-33020776D01*
X6047284Y-33030488D01*
X6029722Y-33035929D01*
X6014436Y-33046143D01*
X6003669Y-33044001D01*
X5993184Y-33047250D01*
X5979726Y-33039238D01*
X5958887Y-33035093D01*
X5943077Y-33020849D01*
X5940612Y-33017881D01*
X5921789Y-32989711D01*
X5894759Y-32962681D01*
X5892577Y-32960054D01*
X5885131Y-32936023D01*
X5875500Y-32912770D01*
X5875500Y-27293483D01*
X15224500Y-27293483D01*
X15224500Y-27441316D01*
X15253340Y-27586307D01*
X15253343Y-27586317D01*
X15309915Y-27722894D01*
X15392048Y-27845815D01*
X15496584Y-27950351D01*
X15619505Y-28032484D01*
X15648999Y-28044701D01*
X15756087Y-28089058D01*
X15901082Y-28117900D01*
X15901084Y-28117900D01*
X16048916Y-28117900D01*
X16048918Y-28117900D01*
X16193913Y-28089058D01*
X16237950Y-28070817D01*
X16272682Y-28056431D01*
X16329318Y-28056431D01*
X16408082Y-28089056D01*
X16408087Y-28089058D01*
X16553082Y-28117900D01*
X16553084Y-28117900D01*
X16700916Y-28117900D01*
X16700918Y-28117900D01*
X16845913Y-28089058D01*
X16982495Y-28032484D01*
X17105416Y-27950351D01*
X17209951Y-27845816D01*
X17292084Y-27722895D01*
X17348658Y-27586313D01*
X17377500Y-27441318D01*
X17377500Y-27293483D01*
X18376500Y-27293483D01*
X18376500Y-27441316D01*
X18405340Y-27586307D01*
X18405343Y-27586317D01*
X18461915Y-27722894D01*
X18544048Y-27845815D01*
X18648584Y-27950351D01*
X18771505Y-28032484D01*
X18800999Y-28044701D01*
X18908087Y-28089058D01*
X19053082Y-28117900D01*
X19053084Y-28117900D01*
X19200916Y-28117900D01*
X19200918Y-28117900D01*
X19345913Y-28089058D01*
X19482495Y-28032484D01*
X19605416Y-27950351D01*
X19709951Y-27845816D01*
X19792084Y-27722895D01*
X19848658Y-27586313D01*
X19877500Y-27441318D01*
X19877500Y-27293482D01*
X19848658Y-27148487D01*
X19848499Y-27148103D01*
X19848499Y-27147964D01*
X19847603Y-27145011D01*
X19848499Y-27144739D01*
X19848499Y-27091467D01*
X19888547Y-27051418D01*
X19945184Y-27051418D01*
X19967437Y-27066286D01*
X19967473Y-27066244D01*
X19967908Y-27066601D01*
X19969192Y-27067459D01*
X19970284Y-27068551D01*
X20093205Y-27150684D01*
X20229787Y-27207258D01*
X20374782Y-27236100D01*
X20374784Y-27236100D01*
X20522616Y-27236100D01*
X20522618Y-27236100D01*
X20667613Y-27207258D01*
X20804195Y-27150684D01*
X20927116Y-27068551D01*
X21031651Y-26964016D01*
X21113784Y-26841095D01*
X21170358Y-26704513D01*
X21199200Y-26559518D01*
X21199200Y-26411682D01*
X21170358Y-26266687D01*
X21152932Y-26224618D01*
X21113784Y-26130105D01*
X21031651Y-26007184D01*
X20926293Y-25901826D01*
X20904619Y-25849500D01*
X20926293Y-25797174D01*
X20978619Y-25775500D01*
X23997629Y-25775500D01*
X24049955Y-25797174D01*
X24071629Y-25849500D01*
X24065996Y-25877818D01*
X24043643Y-25931782D01*
X24043640Y-25931792D01*
X24014800Y-26076783D01*
X24014800Y-26224616D01*
X24043640Y-26369607D01*
X24043643Y-26369617D01*
X24100215Y-26506194D01*
X24174187Y-26616900D01*
X24182349Y-26629116D01*
X24286884Y-26733651D01*
X24409805Y-26815784D01*
X24546387Y-26872358D01*
X24691382Y-26901200D01*
X24691384Y-26901200D01*
X24839216Y-26901200D01*
X24839218Y-26901200D01*
X24984213Y-26872358D01*
X25120795Y-26815784D01*
X25243716Y-26733651D01*
X25348251Y-26629116D01*
X25430384Y-26506195D01*
X25486958Y-26369613D01*
X25498004Y-26314083D01*
X29113300Y-26314083D01*
X29113300Y-26461916D01*
X29142140Y-26606907D01*
X29142143Y-26606917D01*
X29198715Y-26743494D01*
X29280848Y-26866415D01*
X29385384Y-26970951D01*
X29508305Y-27053084D01*
X29540177Y-27066286D01*
X29644887Y-27109658D01*
X29789882Y-27138500D01*
X29789884Y-27138500D01*
X29937716Y-27138500D01*
X29937718Y-27138500D01*
X30082713Y-27109658D01*
X30219295Y-27053084D01*
X30342216Y-26970951D01*
X30446751Y-26866416D01*
X30528884Y-26743495D01*
X30585458Y-26606913D01*
X30614300Y-26461918D01*
X30614300Y-26314082D01*
X30585458Y-26169087D01*
X30528884Y-26032505D01*
X30446751Y-25909584D01*
X30342216Y-25805049D01*
X30330431Y-25797174D01*
X30219294Y-25722915D01*
X30082717Y-25666343D01*
X30082707Y-25666340D01*
X29985611Y-25647026D01*
X29937718Y-25637500D01*
X29789882Y-25637500D01*
X29748777Y-25645676D01*
X29644892Y-25666340D01*
X29644882Y-25666343D01*
X29508303Y-25722916D01*
X29479039Y-25742469D01*
X29479000Y-25742496D01*
X29385384Y-25805049D01*
X29369357Y-25821075D01*
X29369350Y-25821081D01*
X29280850Y-25909582D01*
X29280848Y-25909584D01*
X29198715Y-26032505D01*
X29142143Y-26169082D01*
X29142140Y-26169092D01*
X29113300Y-26314083D01*
X25498004Y-26314083D01*
X25515800Y-26224618D01*
X25515800Y-26076782D01*
X25486958Y-25931787D01*
X25486956Y-25931782D01*
X25464604Y-25877818D01*
X25464604Y-25821181D01*
X25504653Y-25781133D01*
X25532971Y-25775500D01*
X29075768Y-25775500D01*
X29075768Y-25775499D01*
X29222135Y-25736281D01*
X29353365Y-25660515D01*
X29460515Y-25553365D01*
X29536281Y-25422135D01*
X29575499Y-25275768D01*
X29575500Y-25275768D01*
X29575500Y-15087230D01*
X29597174Y-15034904D01*
X29621788Y-15010290D01*
X29621789Y-15010289D01*
X29709394Y-14879179D01*
X29769737Y-14733497D01*
X29800500Y-14578842D01*
X29800500Y-14421158D01*
X29769737Y-14266503D01*
X29709394Y-14120821D01*
X29621789Y-13989711D01*
X29510289Y-13878211D01*
X29379179Y-13790606D01*
X29379175Y-13790604D01*
X29379173Y-13790603D01*
X29379174Y-13790603D01*
X29233501Y-13730264D01*
X29233491Y-13730261D01*
X29129925Y-13709661D01*
X29078842Y-13699500D01*
X28921158Y-13699500D01*
X28877315Y-13708220D01*
X28766508Y-13730261D01*
X28766498Y-13730264D01*
X28620825Y-13790603D01*
X28489711Y-13878210D01*
X28489710Y-13878212D01*
X28378212Y-13989710D01*
X28378210Y-13989711D01*
X28290603Y-14120825D01*
X28230264Y-14266498D01*
X28230261Y-14266508D01*
X28199500Y-14421159D01*
X28199500Y-14578840D01*
X28230261Y-14733491D01*
X28230264Y-14733501D01*
X28290603Y-14879174D01*
X28378210Y-15010288D01*
X28402826Y-15034904D01*
X28424500Y-15087230D01*
X28424500Y-24550500D01*
X28402826Y-24602826D01*
X28350500Y-24624500D01*
X20337230Y-24624500D01*
X20284904Y-24602826D01*
X20260288Y-24578210D01*
X20227842Y-24556530D01*
X20129179Y-24490606D01*
X20129175Y-24490604D01*
X20129173Y-24490603D01*
X20129174Y-24490603D01*
X19983501Y-24430264D01*
X19983491Y-24430261D01*
X19879925Y-24409661D01*
X19828842Y-24399500D01*
X19671158Y-24399500D01*
X19627315Y-24408220D01*
X19516508Y-24430261D01*
X19516498Y-24430264D01*
X19370825Y-24490603D01*
X19239711Y-24578210D01*
X19239710Y-24578212D01*
X19128212Y-24689710D01*
X19128210Y-24689711D01*
X19040603Y-24820825D01*
X18980264Y-24966498D01*
X18980261Y-24966508D01*
X18971448Y-25010817D01*
X18949500Y-25121158D01*
X18949500Y-25278842D01*
X18959661Y-25329925D01*
X18980261Y-25433491D01*
X18980264Y-25433501D01*
X19040603Y-25579174D01*
X19098846Y-25666342D01*
X19128211Y-25710289D01*
X19239711Y-25821789D01*
X19370821Y-25909394D01*
X19370826Y-25909396D01*
X19370825Y-25909396D01*
X19516498Y-25969735D01*
X19516503Y-25969737D01*
X19671158Y-26000500D01*
X19671160Y-26000500D01*
X19731771Y-26000500D01*
X19784097Y-26022174D01*
X19805771Y-26074500D01*
X19793299Y-26115613D01*
X19783615Y-26130104D01*
X19727043Y-26266682D01*
X19727040Y-26266692D01*
X19698200Y-26411683D01*
X19698200Y-26559516D01*
X19727040Y-26704507D01*
X19727043Y-26704515D01*
X19727204Y-26704904D01*
X19727203Y-26705045D01*
X19728097Y-26707989D01*
X19727203Y-26708260D01*
X19727196Y-26761542D01*
X19687143Y-26801585D01*
X19630505Y-26801577D01*
X19608262Y-26786712D01*
X19608227Y-26786756D01*
X19607790Y-26786397D01*
X19606507Y-26785540D01*
X19605415Y-26784448D01*
X19482494Y-26702315D01*
X19345917Y-26645743D01*
X19345907Y-26645740D01*
X19248811Y-26626426D01*
X19200918Y-26616900D01*
X19053082Y-26616900D01*
X19011977Y-26625076D01*
X18908092Y-26645740D01*
X18908082Y-26645743D01*
X18771505Y-26702315D01*
X18648584Y-26784448D01*
X18648583Y-26784450D01*
X18544050Y-26888983D01*
X18544048Y-26888984D01*
X18461915Y-27011905D01*
X18405343Y-27148482D01*
X18405340Y-27148492D01*
X18376500Y-27293483D01*
X17377500Y-27293483D01*
X17377500Y-27293482D01*
X17348658Y-27148487D01*
X17315547Y-27068551D01*
X17292084Y-27011905D01*
X17209951Y-26888984D01*
X17105415Y-26784448D01*
X16982494Y-26702315D01*
X16845917Y-26645743D01*
X16845907Y-26645740D01*
X16748811Y-26626426D01*
X16700918Y-26616900D01*
X16553082Y-26616900D01*
X16511977Y-26625076D01*
X16408092Y-26645740D01*
X16408082Y-26645743D01*
X16329318Y-26678368D01*
X16272682Y-26678368D01*
X16193917Y-26645743D01*
X16193907Y-26645740D01*
X16096811Y-26626426D01*
X16048918Y-26616900D01*
X15901082Y-26616900D01*
X15859977Y-26625076D01*
X15756092Y-26645740D01*
X15756082Y-26645743D01*
X15619505Y-26702315D01*
X15496584Y-26784448D01*
X15496583Y-26784450D01*
X15392050Y-26888983D01*
X15392048Y-26888984D01*
X15309915Y-27011905D01*
X15253343Y-27148482D01*
X15253340Y-27148492D01*
X15224500Y-27293483D01*
X5875500Y-27293483D01*
X5875500Y-24458483D01*
X16749800Y-24458483D01*
X16749800Y-24606316D01*
X16778640Y-24751307D01*
X16778643Y-24751317D01*
X16835215Y-24887894D01*
X16887737Y-24966498D01*
X16917349Y-25010816D01*
X17021884Y-25115351D01*
X17144805Y-25197484D01*
X17281387Y-25254058D01*
X17426382Y-25282900D01*
X17426384Y-25282900D01*
X17574216Y-25282900D01*
X17574218Y-25282900D01*
X17719213Y-25254058D01*
X17855795Y-25197484D01*
X17978716Y-25115351D01*
X18083251Y-25010816D01*
X18165384Y-24887895D01*
X18221958Y-24751313D01*
X18250800Y-24606318D01*
X18250800Y-24458482D01*
X18221958Y-24313487D01*
X18165384Y-24176905D01*
X18083251Y-24053984D01*
X17978716Y-23949449D01*
X17855795Y-23867316D01*
X17855796Y-23867316D01*
X17855794Y-23867315D01*
X17719217Y-23810743D01*
X17719207Y-23810740D01*
X17622111Y-23791426D01*
X17574218Y-23781900D01*
X17426382Y-23781900D01*
X17385277Y-23790076D01*
X17281392Y-23810740D01*
X17281382Y-23810743D01*
X17144805Y-23867315D01*
X17021884Y-23949448D01*
X17021883Y-23949450D01*
X16917350Y-24053983D01*
X16917348Y-24053984D01*
X16835215Y-24176905D01*
X16778643Y-24313482D01*
X16778640Y-24313492D01*
X16749800Y-24458483D01*
X5875500Y-24458483D01*
X5875500Y-22796782D01*
X8092900Y-22796782D01*
X8092900Y-22944618D01*
X8098629Y-22973418D01*
X8121740Y-23089607D01*
X8121743Y-23089617D01*
X8178315Y-23226194D01*
X8197560Y-23254995D01*
X8260449Y-23349116D01*
X8364984Y-23453651D01*
X8487905Y-23535784D01*
X8624487Y-23592358D01*
X8769482Y-23621200D01*
X8769484Y-23621200D01*
X8917316Y-23621200D01*
X8917318Y-23621200D01*
X9062313Y-23592358D01*
X9198895Y-23535784D01*
X9321816Y-23453651D01*
X9426351Y-23349116D01*
X9508484Y-23226195D01*
X9565058Y-23089613D01*
X9593900Y-22944618D01*
X9593900Y-22825583D01*
X11326900Y-22825583D01*
X11326900Y-22973416D01*
X11355740Y-23118407D01*
X11355743Y-23118417D01*
X11412315Y-23254994D01*
X11494448Y-23377915D01*
X11598984Y-23482451D01*
X11721905Y-23564584D01*
X11788957Y-23592358D01*
X11858487Y-23621158D01*
X12003482Y-23650000D01*
X12003484Y-23650000D01*
X12151316Y-23650000D01*
X12151318Y-23650000D01*
X12296313Y-23621158D01*
X12432895Y-23564584D01*
X12555816Y-23482451D01*
X12660351Y-23377916D01*
X12742484Y-23254995D01*
X12799058Y-23118413D01*
X12807672Y-23075102D01*
X12839136Y-23028011D01*
X12865812Y-23016962D01*
X12880413Y-23014058D01*
X13016995Y-22957484D01*
X13139916Y-22875351D01*
X13244451Y-22770816D01*
X13326584Y-22647895D01*
X13383158Y-22511313D01*
X13412000Y-22366318D01*
X13412000Y-22218482D01*
X13383158Y-22073487D01*
X13326584Y-21936905D01*
X13244451Y-21813984D01*
X13139916Y-21709449D01*
X13016995Y-21627316D01*
X13016996Y-21627316D01*
X13016994Y-21627315D01*
X12880417Y-21570743D01*
X12880407Y-21570740D01*
X12783311Y-21551426D01*
X12735418Y-21541900D01*
X12587582Y-21541900D01*
X12546477Y-21550076D01*
X12442592Y-21570740D01*
X12442582Y-21570743D01*
X12306005Y-21627315D01*
X12183084Y-21709448D01*
X12183083Y-21709450D01*
X12078550Y-21813983D01*
X12078548Y-21813984D01*
X11996415Y-21936905D01*
X11939842Y-22073484D01*
X11939841Y-22073490D01*
X11931226Y-22116797D01*
X11899759Y-22163889D01*
X11873088Y-22174936D01*
X11858497Y-22177839D01*
X11858484Y-22177842D01*
X11721905Y-22234415D01*
X11598984Y-22316548D01*
X11598983Y-22316550D01*
X11494450Y-22421083D01*
X11494448Y-22421084D01*
X11412315Y-22544005D01*
X11355743Y-22680582D01*
X11355740Y-22680592D01*
X11326900Y-22825583D01*
X9593900Y-22825583D01*
X9593900Y-22796782D01*
X9565058Y-22651787D01*
X9563445Y-22647894D01*
X9508484Y-22515205D01*
X9426351Y-22392284D01*
X9321815Y-22287748D01*
X9198894Y-22205615D01*
X9062317Y-22149043D01*
X9062307Y-22149040D01*
X8965211Y-22129726D01*
X8917318Y-22120200D01*
X8769482Y-22120200D01*
X8728377Y-22128376D01*
X8624492Y-22149040D01*
X8624482Y-22149043D01*
X8487905Y-22205615D01*
X8364984Y-22287748D01*
X8364983Y-22287750D01*
X8260450Y-22392283D01*
X8260448Y-22392284D01*
X8178315Y-22515205D01*
X8121743Y-22651782D01*
X8121740Y-22651792D01*
X8098065Y-22770815D01*
X8092900Y-22796782D01*
X5875500Y-22796782D01*
X5875500Y-19649500D01*
X5897174Y-19597174D01*
X5949500Y-19575500D01*
X9412770Y-19575500D01*
X9465096Y-19597174D01*
X9489711Y-19621789D01*
X9620821Y-19709394D01*
X9620826Y-19709396D01*
X9620825Y-19709396D01*
X9766498Y-19769735D01*
X9766503Y-19769737D01*
X9921158Y-19800500D01*
X9921160Y-19800500D01*
X10078843Y-19800500D01*
X10080285Y-19800213D01*
X10080772Y-19800310D01*
X10082458Y-19800144D01*
X10082508Y-19800655D01*
X10135834Y-19811259D01*
X10163092Y-19844471D01*
X10214216Y-19967895D01*
X10296349Y-20090816D01*
X10400884Y-20195351D01*
X10523805Y-20277484D01*
X10660387Y-20334058D01*
X10805382Y-20362900D01*
X10805384Y-20362900D01*
X10953216Y-20362900D01*
X10953218Y-20362900D01*
X11098213Y-20334058D01*
X11234795Y-20277484D01*
X11357716Y-20195351D01*
X11462251Y-20090816D01*
X11544384Y-19967895D01*
X11600958Y-19831313D01*
X11629800Y-19686318D01*
X11629800Y-19538482D01*
X11600958Y-19393487D01*
X11544384Y-19256905D01*
X11462251Y-19133984D01*
X11357716Y-19029449D01*
X11234795Y-18947316D01*
X11234796Y-18947316D01*
X11234794Y-18947315D01*
X11098217Y-18890743D01*
X11098207Y-18890740D01*
X11001111Y-18871426D01*
X10953218Y-18861900D01*
X10849443Y-18861900D01*
X10797117Y-18840226D01*
X10776865Y-18802337D01*
X10769738Y-18766508D01*
X10769737Y-18766507D01*
X10769737Y-18766503D01*
X10769735Y-18766498D01*
X10709396Y-18620825D01*
X10709395Y-18620823D01*
X10709394Y-18620821D01*
X10621789Y-18489711D01*
X10510289Y-18378211D01*
X10379179Y-18290606D01*
X10379175Y-18290604D01*
X10379173Y-18290603D01*
X10379174Y-18290603D01*
X10233501Y-18230264D01*
X10233491Y-18230261D01*
X10129925Y-18209661D01*
X10078842Y-18199500D01*
X9921158Y-18199500D01*
X9774164Y-18228738D01*
X9718615Y-18217688D01*
X9687150Y-18170596D01*
X9698200Y-18115047D01*
X9698201Y-18115046D01*
X9705183Y-18104596D01*
X9705184Y-18104595D01*
X9761758Y-17968013D01*
X9790600Y-17823018D01*
X9790600Y-17675182D01*
X9761758Y-17530187D01*
X9718513Y-17425783D01*
X11911000Y-17425783D01*
X11911000Y-17573616D01*
X11939840Y-17718607D01*
X11939843Y-17718617D01*
X11996415Y-17855194D01*
X11996416Y-17855195D01*
X12078549Y-17978116D01*
X12183084Y-18082651D01*
X12306005Y-18164784D01*
X12442587Y-18221358D01*
X12587582Y-18250200D01*
X12587584Y-18250200D01*
X12735416Y-18250200D01*
X12735418Y-18250200D01*
X12880413Y-18221358D01*
X13016995Y-18164784D01*
X13139916Y-18082651D01*
X13244451Y-17978116D01*
X13326584Y-17855195D01*
X13383158Y-17718613D01*
X13412000Y-17573618D01*
X13412000Y-17425782D01*
X13383158Y-17280787D01*
X13326584Y-17144205D01*
X13244451Y-17021284D01*
X13139916Y-16916749D01*
X13046331Y-16854217D01*
X13016994Y-16834615D01*
X12880417Y-16778043D01*
X12880407Y-16778040D01*
X12783311Y-16758726D01*
X12735418Y-16749200D01*
X12587582Y-16749200D01*
X12546477Y-16757376D01*
X12442592Y-16778040D01*
X12442582Y-16778043D01*
X12306005Y-16834615D01*
X12183084Y-16916748D01*
X12183083Y-16916750D01*
X12078550Y-17021283D01*
X12078548Y-17021284D01*
X11996415Y-17144205D01*
X11939843Y-17280782D01*
X11939840Y-17280792D01*
X11911000Y-17425783D01*
X9718513Y-17425783D01*
X9705184Y-17393605D01*
X9623051Y-17270684D01*
X9518516Y-17166149D01*
X9485675Y-17144205D01*
X9395594Y-17084015D01*
X9259017Y-17027443D01*
X9259007Y-17027440D01*
X9161911Y-17008126D01*
X9114018Y-16998600D01*
X8966182Y-16998600D01*
X8925077Y-17006776D01*
X8821192Y-17027440D01*
X8821182Y-17027443D01*
X8684605Y-17084015D01*
X8561684Y-17166148D01*
X8561683Y-17166150D01*
X8457150Y-17270683D01*
X8457148Y-17270684D01*
X8375015Y-17393605D01*
X8318443Y-17530182D01*
X8318440Y-17530192D01*
X8289600Y-17675183D01*
X8289600Y-17823016D01*
X8318440Y-17968007D01*
X8318443Y-17968017D01*
X8375015Y-18104594D01*
X8457148Y-18227515D01*
X8527807Y-18298174D01*
X8549481Y-18350500D01*
X8527807Y-18402826D01*
X8475481Y-18424500D01*
X5224232Y-18424500D01*
X5077869Y-18463717D01*
X5077860Y-18463721D01*
X4946637Y-18539483D01*
X4839483Y-18646637D01*
X4763721Y-18777860D01*
X4763717Y-18777869D01*
X4724500Y-18924231D01*
X4724500Y-32912770D01*
X4702826Y-32965096D01*
X4678212Y-32989710D01*
X4678210Y-32989711D01*
X4590603Y-33120825D01*
X4530264Y-33266498D01*
X4530261Y-33266508D01*
X4499500Y-33421159D01*
X300000Y-33421159D01*
X300000Y-16301883D01*
X9249500Y-16301883D01*
X9249500Y-16449716D01*
X9278340Y-16594707D01*
X9278343Y-16594717D01*
X9334915Y-16731294D01*
X9403953Y-16834616D01*
X9417049Y-16854216D01*
X9521584Y-16958751D01*
X9644505Y-17040884D01*
X9781087Y-17097458D01*
X9926082Y-17126300D01*
X9926084Y-17126300D01*
X10073916Y-17126300D01*
X10073918Y-17126300D01*
X10218913Y-17097458D01*
X10355495Y-17040884D01*
X10478416Y-16958751D01*
X10582951Y-16854216D01*
X10665084Y-16731295D01*
X10721658Y-16594713D01*
X10750500Y-16449718D01*
X10750500Y-16301882D01*
X10721658Y-16156887D01*
X10665084Y-16020305D01*
X10582951Y-15897384D01*
X10478416Y-15792849D01*
X10393261Y-15735950D01*
X10355494Y-15710715D01*
X10218917Y-15654143D01*
X10218907Y-15654140D01*
X10104659Y-15631415D01*
X10073918Y-15625300D01*
X9926082Y-15625300D01*
X9895341Y-15631415D01*
X9781092Y-15654140D01*
X9781082Y-15654143D01*
X9644505Y-15710715D01*
X9521584Y-15792848D01*
X9521583Y-15792850D01*
X9417050Y-15897383D01*
X9417048Y-15897384D01*
X9334915Y-16020305D01*
X9278343Y-16156882D01*
X9278340Y-16156892D01*
X9249500Y-16301883D01*
X300000Y-16301883D01*
X300000Y-15079083D01*
X26136600Y-15079083D01*
X26136600Y-15226916D01*
X26165440Y-15371907D01*
X26165443Y-15371917D01*
X26222015Y-15508494D01*
X26222016Y-15508495D01*
X26304149Y-15631416D01*
X26408684Y-15735951D01*
X26531605Y-15818084D01*
X26668187Y-15874658D01*
X26813182Y-15903500D01*
X26813184Y-15903500D01*
X26961016Y-15903500D01*
X26961018Y-15903500D01*
X27106013Y-15874658D01*
X27242595Y-15818084D01*
X27365516Y-15735951D01*
X27470051Y-15631416D01*
X27552184Y-15508495D01*
X27608758Y-15371913D01*
X27637600Y-15226918D01*
X27637600Y-15079082D01*
X27608758Y-14934087D01*
X27552184Y-14797505D01*
X27470051Y-14674584D01*
X27365516Y-14570049D01*
X27242595Y-14487916D01*
X27242596Y-14487916D01*
X27242594Y-14487915D01*
X27106017Y-14431343D01*
X27106007Y-14431340D01*
X27008911Y-14412026D01*
X26961018Y-14402500D01*
X26813182Y-14402500D01*
X26772077Y-14410676D01*
X26668192Y-14431340D01*
X26668182Y-14431343D01*
X26531605Y-14487915D01*
X26408684Y-14570048D01*
X26408683Y-14570050D01*
X26304150Y-14674583D01*
X26304148Y-14674584D01*
X26222015Y-14797505D01*
X26165443Y-14934082D01*
X26165440Y-14934092D01*
X26136600Y-15079083D01*
X300000Y-15079083D01*
X300000Y-12828483D01*
X8277300Y-12828483D01*
X8277300Y-12976316D01*
X8306140Y-13121307D01*
X8306143Y-13121317D01*
X8362715Y-13257894D01*
X8380637Y-13284715D01*
X8444849Y-13380816D01*
X8549384Y-13485351D01*
X8672305Y-13567484D01*
X8808887Y-13624058D01*
X8953882Y-13652900D01*
X8953884Y-13652900D01*
X9101716Y-13652900D01*
X9101718Y-13652900D01*
X9246713Y-13624058D01*
X9383295Y-13567484D01*
X9506216Y-13485351D01*
X9610751Y-13380816D01*
X9692884Y-13257895D01*
X9749458Y-13121313D01*
X9778300Y-12976318D01*
X9778300Y-12828482D01*
X9759184Y-12732383D01*
X11911000Y-12732383D01*
X11911000Y-12880216D01*
X11939840Y-13025207D01*
X11939843Y-13025217D01*
X11996415Y-13161794D01*
X12060628Y-13257895D01*
X12078549Y-13284716D01*
X12183084Y-13389251D01*
X12306005Y-13471384D01*
X12442587Y-13527958D01*
X12587582Y-13556800D01*
X12587584Y-13556800D01*
X12735416Y-13556800D01*
X12735418Y-13556800D01*
X12880413Y-13527958D01*
X13016995Y-13471384D01*
X13139916Y-13389251D01*
X13244451Y-13284716D01*
X13326584Y-13161795D01*
X13383158Y-13025213D01*
X13412000Y-12880218D01*
X13412000Y-12732382D01*
X13409527Y-12719952D01*
X13420573Y-12664404D01*
X13429772Y-12653193D01*
X13481551Y-12601416D01*
X13563684Y-12478495D01*
X13620258Y-12341913D01*
X13649100Y-12196918D01*
X13649100Y-12049082D01*
X13620258Y-11904087D01*
X13563684Y-11767505D01*
X13481551Y-11644584D01*
X13377016Y-11540049D01*
X13342734Y-11517142D01*
X13254094Y-11457915D01*
X13117517Y-11401343D01*
X13117507Y-11401340D01*
X13020411Y-11382026D01*
X12972518Y-11372500D01*
X12824682Y-11372500D01*
X12783577Y-11380676D01*
X12679692Y-11401340D01*
X12679682Y-11401343D01*
X12543105Y-11457915D01*
X12420184Y-11540048D01*
X12420183Y-11540050D01*
X12315650Y-11644583D01*
X12315648Y-11644584D01*
X12233515Y-11767505D01*
X12176943Y-11904082D01*
X12176940Y-11904092D01*
X12148100Y-12049083D01*
X12148100Y-12196916D01*
X12150573Y-12209352D01*
X12139521Y-12264900D01*
X12130321Y-12276110D01*
X12078550Y-12327882D01*
X12078548Y-12327884D01*
X11996415Y-12450805D01*
X11939843Y-12587382D01*
X11939840Y-12587392D01*
X11911000Y-12732383D01*
X9759184Y-12732383D01*
X9749458Y-12683487D01*
X9716677Y-12604349D01*
X9716642Y-12547799D01*
X9753958Y-12457713D01*
X9754083Y-12457083D01*
X9755698Y-12453171D01*
X9773352Y-12435471D01*
X9789206Y-12416147D01*
X9793002Y-12415772D01*
X9795696Y-12413072D01*
X9820694Y-12413040D01*
X9845569Y-12410586D01*
X9852319Y-12413000D01*
X9852331Y-12413000D01*
X9852334Y-12413001D01*
X9852340Y-12413007D01*
X9852402Y-12413029D01*
X9943487Y-12450758D01*
X10088482Y-12479600D01*
X10088484Y-12479600D01*
X10236316Y-12479600D01*
X10236318Y-12479600D01*
X10381313Y-12450758D01*
X10517895Y-12394184D01*
X10640816Y-12312051D01*
X10745351Y-12207516D01*
X10827484Y-12084595D01*
X10884058Y-11948013D01*
X10912900Y-11803018D01*
X10912900Y-11655182D01*
X10884058Y-11510187D01*
X10827484Y-11373605D01*
X10745351Y-11250684D01*
X10640816Y-11146149D01*
X10517895Y-11064016D01*
X10517896Y-11064016D01*
X10517894Y-11064015D01*
X10381317Y-11007443D01*
X10381307Y-11007440D01*
X10284211Y-10988126D01*
X10236318Y-10978600D01*
X10088482Y-10978600D01*
X10047377Y-10986776D01*
X9943492Y-11007440D01*
X9943482Y-11007443D01*
X9806905Y-11064015D01*
X9683984Y-11146148D01*
X9683983Y-11146150D01*
X9579450Y-11250683D01*
X9579448Y-11250684D01*
X9497315Y-11373605D01*
X9439351Y-11513545D01*
X9437494Y-11512776D01*
X9405432Y-11551785D01*
X9349063Y-11557293D01*
X9342284Y-11554864D01*
X9251213Y-11517142D01*
X9251207Y-11517140D01*
X9154111Y-11497826D01*
X9106218Y-11488300D01*
X8958382Y-11488300D01*
X8917277Y-11496476D01*
X8813392Y-11517140D01*
X8813382Y-11517143D01*
X8676805Y-11573715D01*
X8553884Y-11655848D01*
X8553883Y-11655850D01*
X8449350Y-11760383D01*
X8449348Y-11760384D01*
X8367215Y-11883305D01*
X8310643Y-12019882D01*
X8310640Y-12019892D01*
X8297770Y-12084595D01*
X8281800Y-12164882D01*
X8281800Y-12312718D01*
X8287608Y-12341917D01*
X8310640Y-12457707D01*
X8310643Y-12457717D01*
X8343421Y-12536849D01*
X8343421Y-12593485D01*
X8306143Y-12683482D01*
X8306140Y-12683492D01*
X8277300Y-12828483D01*
X300000Y-12828483D01*
X300000Y-8272783D01*
X9943400Y-8272783D01*
X9943400Y-8420616D01*
X9972240Y-8565607D01*
X9972243Y-8565617D01*
X10028815Y-8702194D01*
X10028816Y-8702195D01*
X10110949Y-8825116D01*
X10215484Y-8929651D01*
X10338405Y-9011784D01*
X10474987Y-9068358D01*
X10619982Y-9097200D01*
X10619984Y-9097200D01*
X10767816Y-9097200D01*
X10767818Y-9097200D01*
X10912813Y-9068358D01*
X11049395Y-9011784D01*
X11172316Y-8929651D01*
X11276851Y-8825116D01*
X11358984Y-8702195D01*
X11415558Y-8565613D01*
X11444400Y-8420618D01*
X11444400Y-8272782D01*
X11415558Y-8127787D01*
X11378774Y-8038983D01*
X19122700Y-8038983D01*
X19122700Y-8186816D01*
X19151540Y-8331807D01*
X19151543Y-8331817D01*
X19208115Y-8468394D01*
X19290248Y-8591315D01*
X19394784Y-8695851D01*
X19517705Y-8777984D01*
X19631489Y-8825115D01*
X19654287Y-8834558D01*
X19799282Y-8863400D01*
X19799284Y-8863400D01*
X19947116Y-8863400D01*
X19947118Y-8863400D01*
X20092113Y-8834558D01*
X20228695Y-8777984D01*
X20351616Y-8695851D01*
X20456151Y-8591316D01*
X20538284Y-8468395D01*
X20594858Y-8331813D01*
X20623700Y-8186818D01*
X20623700Y-8038982D01*
X20594858Y-7893987D01*
X20584211Y-7868284D01*
X20538284Y-7757405D01*
X20456151Y-7634484D01*
X20351615Y-7529948D01*
X20228694Y-7447815D01*
X20092117Y-7391243D01*
X20092107Y-7391240D01*
X19995011Y-7371926D01*
X19947118Y-7362400D01*
X19799282Y-7362400D01*
X19758177Y-7370576D01*
X19654292Y-7391240D01*
X19654282Y-7391243D01*
X19517705Y-7447815D01*
X19394784Y-7529948D01*
X19394783Y-7529950D01*
X19290250Y-7634483D01*
X19290248Y-7634484D01*
X19208115Y-7757405D01*
X19151543Y-7893982D01*
X19151540Y-7893992D01*
X19122700Y-8038983D01*
X11378774Y-8038983D01*
X11358984Y-7991205D01*
X11276851Y-7868284D01*
X11172316Y-7763749D01*
X11120486Y-7729117D01*
X11049394Y-7681615D01*
X10912817Y-7625043D01*
X10912807Y-7625040D01*
X10815711Y-7605726D01*
X10767818Y-7596200D01*
X10619982Y-7596200D01*
X10578877Y-7604376D01*
X10474992Y-7625040D01*
X10474982Y-7625043D01*
X10338405Y-7681615D01*
X10215484Y-7763748D01*
X10215483Y-7763750D01*
X10110950Y-7868283D01*
X10110948Y-7868284D01*
X10028815Y-7991205D01*
X9972243Y-8127782D01*
X9972240Y-8127792D01*
X9943400Y-8272783D01*
X300000Y-8272783D01*
X300000Y-7176782D01*
X14793400Y-7176782D01*
X14793400Y-7324618D01*
X14802926Y-7372511D01*
X14822240Y-7469607D01*
X14822243Y-7469617D01*
X14878815Y-7606194D01*
X14929211Y-7681616D01*
X14960949Y-7729116D01*
X15065484Y-7833651D01*
X15188405Y-7915784D01*
X15324987Y-7972358D01*
X15469982Y-8001200D01*
X15469984Y-8001200D01*
X15617816Y-8001200D01*
X15617818Y-8001200D01*
X15762813Y-7972358D01*
X15899395Y-7915784D01*
X16022316Y-7833651D01*
X16126851Y-7729116D01*
X16208984Y-7606195D01*
X16265558Y-7469613D01*
X16294400Y-7324618D01*
X16294400Y-7176782D01*
X16265558Y-7031787D01*
X16208984Y-6895205D01*
X16126851Y-6772284D01*
X16022316Y-6667749D01*
X15899395Y-6585616D01*
X15899396Y-6585616D01*
X15899394Y-6585615D01*
X15762817Y-6529043D01*
X15762807Y-6529040D01*
X15665711Y-6509726D01*
X15617818Y-6500200D01*
X15469982Y-6500200D01*
X15428877Y-6508376D01*
X15324992Y-6529040D01*
X15324982Y-6529043D01*
X15188405Y-6585615D01*
X15065484Y-6667748D01*
X15065483Y-6667750D01*
X14960950Y-6772283D01*
X14960948Y-6772284D01*
X14878815Y-6895205D01*
X14822243Y-7031782D01*
X14822240Y-7031792D01*
X14798163Y-7152835D01*
X14793400Y-7176782D01*
X300000Y-7176782D01*
X300000Y-5412083D01*
X12429000Y-5412083D01*
X12429000Y-5559916D01*
X12457840Y-5704907D01*
X12457843Y-5704917D01*
X12514415Y-5841494D01*
X12514416Y-5841495D01*
X12596549Y-5964416D01*
X12701084Y-6068951D01*
X12824005Y-6151084D01*
X12960587Y-6207658D01*
X13105582Y-6236500D01*
X13105584Y-6236500D01*
X13253416Y-6236500D01*
X13253418Y-6236500D01*
X13398413Y-6207658D01*
X13534995Y-6151084D01*
X13657916Y-6068951D01*
X13762451Y-5964416D01*
X13844584Y-5841495D01*
X13901158Y-5704913D01*
X13930000Y-5559918D01*
X13930000Y-5412082D01*
X13901158Y-5267087D01*
X13844584Y-5130505D01*
X13762451Y-5007584D01*
X13657916Y-4903049D01*
X13534995Y-4820916D01*
X13534996Y-4820916D01*
X13534994Y-4820915D01*
X13398417Y-4764343D01*
X13398407Y-4764340D01*
X13301311Y-4745026D01*
X13253418Y-4735500D01*
X13105582Y-4735500D01*
X13064477Y-4743676D01*
X12960592Y-4764340D01*
X12960582Y-4764343D01*
X12824005Y-4820915D01*
X12701084Y-4903048D01*
X12701083Y-4903050D01*
X12596550Y-5007583D01*
X12596548Y-5007584D01*
X12514415Y-5130505D01*
X12457843Y-5267082D01*
X12457840Y-5267092D01*
X12429000Y-5412083D01*
X300000Y-5412083D01*
X300000Y-374000D01*
X321674Y-321674D01*
X374000Y-300000D01*
X34626000Y-300000D01*
X34678326Y-321674D01*
G37*
%TD.AperFunction*%
%TD*%
M02*
