%TF.GenerationSoftware,KiCad,Pcbnew,10.0.1*%
%TF.CreationDate,2026-05-30T11:07:37+02:00*%
%TF.ProjectId,sensor_board,73656e73-6f72-45f6-926f-6172642e6b69,rev?*%
%TF.SameCoordinates,Original*%
%TF.FileFunction,Copper,L1,Top*%
%TF.FilePolarity,Positive*%
%FSLAX46Y46*%
G04 Gerber Fmt 4.6, Leading zero omitted, Abs format (unit mm)*
G04 Created by KiCad (PCBNEW 10.0.1) date 2026-05-30 11:07:37*
%MOMM*%
%LPD*%
G01*
G04 APERTURE LIST*
G04 Aperture macros list*
%AMRoundRect*
0 Rectangle with rounded corners*
0 $1 Rounding radius*
0 $2 $3 $4 $5 $6 $7 $8 $9 X,Y pos of 4 corners*
0 Add a 4 corners polygon primitive as box body*
4,1,4,$2,$3,$4,$5,$6,$7,$8,$9,$2,$3,0*
0 Add four circle primitives for the rounded corners*
1,1,$1+$1,$2,$3*
1,1,$1+$1,$4,$5*
1,1,$1+$1,$6,$7*
1,1,$1+$1,$8,$9*
0 Add four rect primitives between the rounded corners*
20,1,$1+$1,$2,$3,$4,$5,0*
20,1,$1+$1,$4,$5,$6,$7,0*
20,1,$1+$1,$6,$7,$8,$9,0*
20,1,$1+$1,$8,$9,$2,$3,0*%
G04 Aperture macros list end*
%TA.AperFunction,SMDPad,CuDef*%
%ADD10RoundRect,0.135000X0.185000X-0.135000X0.185000X0.135000X-0.185000X0.135000X-0.185000X-0.135000X0*%
%TD*%
%TA.AperFunction,SMDPad,CuDef*%
%ADD11RoundRect,0.140000X0.170000X-0.140000X0.170000X0.140000X-0.170000X0.140000X-0.170000X-0.140000X0*%
%TD*%
%TA.AperFunction,SMDPad,CuDef*%
%ADD12RoundRect,0.062500X-0.062500X-0.137500X0.062500X-0.137500X0.062500X0.137500X-0.062500X0.137500X0*%
%TD*%
%TA.AperFunction,SMDPad,CuDef*%
%ADD13RoundRect,0.062500X-0.137500X-0.062500X0.137500X-0.062500X0.137500X0.062500X-0.137500X0.062500X0*%
%TD*%
%TA.AperFunction,SMDPad,CuDef*%
%ADD14R,0.675000X0.250000*%
%TD*%
%TA.AperFunction,SMDPad,CuDef*%
%ADD15R,0.250000X0.675000*%
%TD*%
%TA.AperFunction,SMDPad,CuDef*%
%ADD16RoundRect,0.150000X0.625000X-0.150000X0.625000X0.150000X-0.625000X0.150000X-0.625000X-0.150000X0*%
%TD*%
%TA.AperFunction,SMDPad,CuDef*%
%ADD17RoundRect,0.250000X0.650000X-0.350000X0.650000X0.350000X-0.650000X0.350000X-0.650000X-0.350000X0*%
%TD*%
%TA.AperFunction,SMDPad,CuDef*%
%ADD18R,0.500000X0.300000*%
%TD*%
%TA.AperFunction,SMDPad,CuDef*%
%ADD19R,0.254000X0.675000*%
%TD*%
%TA.AperFunction,SMDPad,CuDef*%
%ADD20R,0.675000X0.254000*%
%TD*%
%TA.AperFunction,SMDPad,CuDef*%
%ADD21RoundRect,0.250000X0.475000X-0.250000X0.475000X0.250000X-0.475000X0.250000X-0.475000X-0.250000X0*%
%TD*%
%TA.AperFunction,ViaPad*%
%ADD22C,0.500000*%
%TD*%
%TA.AperFunction,ViaPad*%
%ADD23C,0.600000*%
%TD*%
%TA.AperFunction,Conductor*%
%ADD24C,0.150000*%
%TD*%
G04 APERTURE END LIST*
D10*
%TO.P,R2,1*%
%TO.N,+3V3*%
X14500000Y-7010000D03*
%TO.P,R2,2*%
%TO.N,I2C_SCL*%
X14500000Y-5990000D03*
%TD*%
%TO.P,R3,1*%
%TO.N,+3V3*%
X26500000Y-26510000D03*
%TO.P,R3,2*%
%TO.N,BOOTN_N*%
X26500000Y-25490000D03*
%TD*%
D11*
%TO.P,C2,1*%
%TO.N,+3V3*%
X14000000Y-16980000D03*
%TO.P,C2,2*%
%TO.N,GND*%
X14000000Y-16020000D03*
%TD*%
D12*
%TO.P,U2,1*%
%TO.N,+3V3*%
X10400000Y-15650000D03*
%TO.P,U2,2*%
%TO.N,I2C_SCL*%
X10000000Y-15650000D03*
%TO.P,U2,3*%
%TO.N,GND*%
X9600000Y-15650000D03*
D13*
%TO.P,U2,4*%
%TO.N,I2C_SDA*%
X9150000Y-16300000D03*
%TO.P,U2,5*%
%TO.N,GND*%
X9150000Y-16700000D03*
D12*
%TO.P,U2,6*%
%TO.N,+3V3*%
X9600000Y-17350000D03*
%TO.P,U2,7*%
%TO.N,N/C*%
X10000000Y-17350000D03*
%TO.P,U2,8*%
%TO.N,GND*%
X10400000Y-17350000D03*
D13*
%TO.P,U2,9*%
X10850000Y-16700000D03*
%TO.P,U2,10*%
%TO.N,+3V3*%
X10850000Y-16300000D03*
%TD*%
D14*
%TO.P,U3,1*%
%TO.N,GND*%
X8737500Y-20750000D03*
%TO.P,U3,2*%
%TO.N,N/C*%
X8737500Y-21250000D03*
%TO.P,U3,3*%
X8737500Y-21750000D03*
%TO.P,U3,4*%
%TO.N,INT_LSM*%
X8737500Y-22250000D03*
D15*
%TO.P,U3,5*%
%TO.N,+3V3*%
X9500000Y-22512500D03*
%TO.P,U3,6*%
%TO.N,GND*%
X10000000Y-22512500D03*
%TO.P,U3,7*%
X10500000Y-22512500D03*
D14*
%TO.P,U3,8*%
%TO.N,+3V3*%
X11262500Y-22250000D03*
%TO.P,U3,9*%
%TO.N,N/C*%
X11262500Y-21750000D03*
%TO.P,U3,10*%
X11262500Y-21250000D03*
%TO.P,U3,11*%
X11262500Y-20750000D03*
D15*
%TO.P,U3,12*%
%TO.N,+3V3*%
X10500000Y-20487500D03*
%TO.P,U3,13*%
%TO.N,I2C_SCL*%
X10000000Y-20487500D03*
%TO.P,U3,14*%
%TO.N,I2C_SDA*%
X9500000Y-20487500D03*
%TD*%
D11*
%TO.P,C3,1*%
%TO.N,+3V3*%
X14000000Y-21980000D03*
%TO.P,C3,2*%
%TO.N,GND*%
X14000000Y-21020000D03*
%TD*%
D16*
%TO.P,J1,1*%
%TO.N,GND*%
X29000000Y-16500000D03*
%TO.P,J1,2*%
%TO.N,+3V3*%
X29000000Y-15500000D03*
%TO.P,J1,3*%
%TO.N,I2C_SDA*%
X29000000Y-14500000D03*
%TO.P,J1,4*%
%TO.N,I2C_SCL*%
X29000000Y-13500000D03*
D17*
%TO.P,J1,MP*%
%TO.N,GND*%
X32875000Y-17800000D03*
X32875000Y-12200000D03*
%TD*%
D10*
%TO.P,R1,1*%
%TO.N,+3V3*%
X12000000Y-7010000D03*
%TO.P,R1,2*%
%TO.N,I2C_SDA*%
X12000000Y-5990000D03*
%TD*%
D12*
%TO.P,U1,1*%
%TO.N,+3V3*%
X10400000Y-10650000D03*
%TO.P,U1,2*%
%TO.N,I2C_SCL*%
X10000000Y-10650000D03*
%TO.P,U1,3*%
%TO.N,GND*%
X9600000Y-10650000D03*
D13*
%TO.P,U1,4*%
%TO.N,I2C_SDA*%
X9150000Y-11300000D03*
%TO.P,U1,5*%
%TO.N,+3V3*%
X9150000Y-11700000D03*
D12*
%TO.P,U1,6*%
X9600000Y-12350000D03*
%TO.P,U1,7*%
%TO.N,N/C*%
X10000000Y-12350000D03*
%TO.P,U1,8*%
%TO.N,GND*%
X10400000Y-12350000D03*
D13*
%TO.P,U1,9*%
X10850000Y-11700000D03*
%TO.P,U1,10*%
%TO.N,+3V3*%
X10850000Y-11300000D03*
%TD*%
D18*
%TO.P,U5,1*%
%TO.N,I2C_SDA*%
X5300000Y-31600000D03*
%TO.P,U5,2*%
%TO.N,I2C_SCL*%
X5300000Y-32400000D03*
%TO.P,U5,3*%
%TO.N,+3V3*%
X6700000Y-32400000D03*
%TO.P,U5,4*%
%TO.N,GND*%
X6700000Y-31600000D03*
%TD*%
D10*
%TO.P,R4,1*%
%TO.N,+3V3*%
X29000000Y-26510000D03*
%TO.P,R4,2*%
%TO.N,RST_BNO*%
X29000000Y-25490000D03*
%TD*%
D11*
%TO.P,C4,1*%
%TO.N,+3V3*%
X24000000Y-26480000D03*
%TO.P,C4,2*%
%TO.N,GND*%
X24000000Y-25520000D03*
%TD*%
%TO.P,C7,1*%
%TO.N,CAP_BNO*%
X24000000Y-30480000D03*
%TO.P,C7,2*%
%TO.N,GND*%
X24000000Y-29520000D03*
%TD*%
%TO.P,C5,1*%
%TO.N,+3V3*%
X10000000Y-32480000D03*
%TO.P,C5,2*%
%TO.N,GND*%
X10000000Y-31520000D03*
%TD*%
D19*
%TO.P,U4,1*%
%TO.N,GND*%
X15250000Y-26337500D03*
D20*
%TO.P,U4,2*%
X15112500Y-27250000D03*
%TO.P,U4,3*%
%TO.N,+3V3*%
X15112500Y-27750000D03*
%TO.P,U4,4*%
%TO.N,BOOTN_N*%
X15112500Y-28250000D03*
%TO.P,U4,5*%
%TO.N,GND*%
X15112500Y-28750000D03*
D19*
%TO.P,U4,6*%
X15250000Y-29662500D03*
%TO.P,U4,7*%
X15750000Y-29662500D03*
%TO.P,U4,8*%
X16250000Y-29662500D03*
%TO.P,U4,9*%
%TO.N,CAP_BNO*%
X16750000Y-29662500D03*
%TO.P,U4,10*%
%TO.N,GND*%
X17250000Y-29662500D03*
%TO.P,U4,11*%
%TO.N,RST_BNO*%
X17750000Y-29662500D03*
%TO.P,U4,12*%
%TO.N,GND*%
X18250000Y-29662500D03*
%TO.P,U4,13*%
X18750000Y-29662500D03*
%TO.P,U4,14*%
%TO.N,INT_BNO*%
X19250000Y-29662500D03*
%TO.P,U4,15*%
%TO.N,N/C*%
X19750000Y-29662500D03*
D20*
%TO.P,U4,16*%
X19887500Y-28750000D03*
%TO.P,U4,17*%
%TO.N,GND*%
X19887500Y-28250000D03*
%TO.P,U4,18*%
%TO.N,+3V3*%
X19887500Y-27750000D03*
%TO.P,U4,19*%
%TO.N,I2C_SCL*%
X19887500Y-27250000D03*
D19*
%TO.P,U4,20*%
%TO.N,I2C_SDA*%
X19750000Y-26337500D03*
%TO.P,U4,21*%
%TO.N,GND*%
X19250000Y-26337500D03*
%TO.P,U4,22*%
X18750000Y-26337500D03*
%TO.P,U4,23*%
X18250000Y-26337500D03*
%TO.P,U4,24*%
X17750000Y-26337500D03*
%TO.P,U4,25*%
X17250000Y-26337500D03*
%TO.P,U4,26*%
X16750000Y-26337500D03*
%TO.P,U4,27*%
%TO.N,N/C*%
X16250000Y-26337500D03*
%TO.P,U4,28*%
%TO.N,+3V3*%
X15750000Y-26337500D03*
%TD*%
D11*
%TO.P,C1,1*%
%TO.N,+3V3*%
X14000000Y-11980000D03*
%TO.P,C1,2*%
%TO.N,GND*%
X14000000Y-11020000D03*
%TD*%
D21*
%TO.P,C6,1*%
%TO.N,+3V3*%
X18000000Y-7450000D03*
%TO.P,C6,2*%
%TO.N,GND*%
X18000000Y-5550000D03*
%TD*%
D22*
%TO.N,+3V3*%
X12898600Y-12123000D03*
X29863800Y-26388000D03*
X24765300Y-26150700D03*
X8843400Y-22870700D03*
X12077400Y-22899500D03*
X19127000Y-27367400D03*
X12661500Y-22292400D03*
X10693900Y-8346700D03*
D23*
X6700000Y-33500000D03*
D22*
X9027800Y-12902400D03*
X26887100Y-15153000D03*
X10879300Y-19612400D03*
D23*
X10000000Y-33500000D03*
D22*
X19873200Y-8112900D03*
X9032300Y-12238800D03*
X9040100Y-17749100D03*
X10000000Y-16375800D03*
X15975000Y-27367400D03*
X12661500Y-17499700D03*
X15543900Y-7250700D03*
D23*
%TO.N,I2C_SCL*%
X5300000Y-33500000D03*
D22*
X12661500Y-12806300D03*
X10162400Y-11729100D03*
X20448700Y-26485600D03*
X13179500Y-5486000D03*
D23*
X10000000Y-19000000D03*
D22*
%TO.N,BOOTN_N*%
X17500300Y-24532400D03*
X16627000Y-27367400D03*
D23*
%TO.N,GND*%
X10000000Y-23360000D03*
X33500000Y-1500000D03*
X10630000Y-12850000D03*
X33500000Y-34000000D03*
X15920000Y-30100000D03*
X1500000Y-1500000D03*
X17500000Y-1500000D03*
X9370000Y-15150000D03*
X14590000Y-28910000D03*
X18870000Y-25940000D03*
X14810000Y-26010000D03*
X1500000Y-17500000D03*
X1500000Y-34000000D03*
X14590000Y-27090000D03*
%TO.N,I2C_SDA*%
X29000000Y-14500000D03*
X19750000Y-25200000D03*
%TD*%
%TO.N,+3V3*%
D24*
X12898600Y-12123000D02*
X13857000Y-12123000D01*
X15876600Y-27367400D02*
X15876600Y-27550100D01*
X15750000Y-27240800D02*
X15876600Y-27367400D01*
X10879300Y-19612400D02*
X10568400Y-19923300D01*
X15750000Y-26337500D02*
X15750000Y-27240800D01*
X10000000Y-32479999D02*
X10000000Y-33500000D01*
X13857000Y-12123000D02*
X14000000Y-11980000D01*
X9027800Y-12902400D02*
X9047600Y-12902400D01*
X15112500Y-27750000D02*
X15676700Y-27750000D01*
X19873200Y-8112900D02*
X18662900Y-8112900D01*
X10850000Y-8160000D02*
X10925000Y-8085000D01*
X10925000Y-8085000D02*
X11204600Y-7805400D01*
X24329300Y-26150700D02*
X24000000Y-26480000D01*
X29863800Y-26388000D02*
X29122000Y-26388000D01*
X13480300Y-17499700D02*
X14000000Y-16980000D01*
X10850000Y-11300000D02*
X10850000Y-9761100D01*
X12661500Y-17499700D02*
X13480300Y-17499700D01*
X10850000Y-9761100D02*
X10850000Y-8222300D01*
X9040100Y-17749100D02*
X9200900Y-17749100D01*
X9150000Y-12121100D02*
X9150000Y-11700000D01*
X12077400Y-22500700D02*
X11826700Y-22250000D01*
X11262500Y-22250000D02*
X11826700Y-22250000D01*
X11204600Y-7805400D02*
X12000000Y-7010000D01*
X10400000Y-10211100D02*
X10400000Y-10650000D01*
X10000000Y-16375800D02*
X10462900Y-15912900D01*
X10568400Y-19923300D02*
X10500000Y-19923300D01*
X24765300Y-26150700D02*
X24329300Y-26150700D01*
X10400000Y-15850000D02*
X10400000Y-15650000D01*
X9200900Y-17749100D02*
X9600000Y-17350000D01*
X9500000Y-22512500D02*
X9500000Y-23076700D01*
X9032300Y-12238800D02*
X9150000Y-12121100D01*
X19887500Y-27750000D02*
X19323300Y-27750000D01*
X10500000Y-20487500D02*
X10500000Y-19923300D01*
X6700000Y-32400000D02*
X6700000Y-33500000D01*
X15975000Y-27367400D02*
X15876600Y-27367400D01*
X28653000Y-15153000D02*
X29000000Y-15500000D01*
X10850000Y-9761100D02*
X10400000Y-10211100D01*
X26500000Y-26510000D02*
X29000000Y-26510000D01*
X26887100Y-15153000D02*
X28653000Y-15153000D01*
X15876600Y-27550100D02*
X15676700Y-27750000D01*
X12077400Y-22899500D02*
X12077400Y-22500700D01*
X13687600Y-22292400D02*
X14000000Y-21980000D01*
X14740700Y-7250700D02*
X14500000Y-7010000D01*
X9049400Y-23076700D02*
X8843400Y-22870700D01*
X29122000Y-26388000D02*
X29000000Y-26510000D01*
X10462900Y-15912900D02*
X10400000Y-15850000D01*
X10850000Y-16300000D02*
X10540300Y-15990300D01*
X10850000Y-8222300D02*
X10850000Y-8190600D01*
X10850000Y-8190600D02*
X10850000Y-8160000D01*
X10540300Y-15990300D02*
X10462900Y-15912900D01*
X19323300Y-27563700D02*
X19323300Y-27750000D01*
X9500000Y-23076700D02*
X9049400Y-23076700D01*
X10693900Y-8346700D02*
X10850000Y-8190600D01*
X18662900Y-8112900D02*
X18000000Y-7450000D01*
X19127000Y-27367400D02*
X19323300Y-27563700D01*
X15543900Y-7250700D02*
X14740700Y-7250700D01*
X9047600Y-12902400D02*
X9600000Y-12350000D01*
X12661500Y-22292400D02*
X13687600Y-22292400D01*
%TO.N,I2C_SCL*%
X13996000Y-5486000D02*
X13179500Y-5486000D01*
X12661500Y-13500000D02*
X29000000Y-13500000D01*
X10534900Y-15171400D02*
X12206300Y-13500000D01*
X10207800Y-15171400D02*
X10534900Y-15171400D01*
X20448700Y-26485600D02*
X20451700Y-26488600D01*
X10534900Y-15171400D02*
X11278000Y-15914500D01*
X10000000Y-10650000D02*
X10000000Y-11566700D01*
X11278000Y-15914500D02*
X11278000Y-17721900D01*
X10000000Y-19000000D02*
X10000000Y-20490000D01*
X20451700Y-26488600D02*
X20451700Y-27250000D01*
X12661500Y-12806300D02*
X12661500Y-13500000D01*
X10000000Y-15379200D02*
X10207800Y-15171400D01*
X12206300Y-13500000D02*
X12661500Y-13500000D01*
X5300000Y-32400000D02*
X5300000Y-33500000D01*
X14500000Y-5990000D02*
X13996000Y-5486000D01*
X10000000Y-11566700D02*
X10162400Y-11729100D01*
X19887500Y-27250000D02*
X20451700Y-27250000D01*
X10000000Y-15650000D02*
X10000000Y-15379200D01*
X11278000Y-17721900D02*
X10000000Y-18999900D01*
%TO.N,BOOTN_N*%
X16627000Y-27463100D02*
X15840100Y-28250000D01*
X16627000Y-27367400D02*
X16627000Y-27463100D01*
X15840100Y-28250000D02*
X15112500Y-28250000D01*
X25542400Y-24532400D02*
X17500300Y-24532400D01*
X26500000Y-25490000D02*
X25542400Y-24532400D01*
%TO.N,GND*%
X15110000Y-27250000D02*
X14590000Y-27090000D01*
X16250000Y-29660000D02*
X15920000Y-30100000D01*
X15250000Y-26340000D02*
X14810000Y-26010000D01*
X15110000Y-28750000D02*
X14590000Y-28910000D01*
X19250000Y-26340000D02*
X18870000Y-25940000D01*
X9600000Y-15650000D02*
X9370000Y-15150000D01*
X10000000Y-22510000D02*
X10000000Y-23360000D01*
X10400000Y-12350000D02*
X10630000Y-12850000D01*
%TO.N,I2C_SDA*%
X8563400Y-18986700D02*
X9090300Y-19513500D01*
X3500000Y-31600000D02*
X3500000Y-34100000D01*
X29000000Y-14500000D02*
X29357100Y-14500000D01*
X9090300Y-19513500D02*
X8151300Y-20452500D01*
X9090300Y-19513500D02*
X9500000Y-19923300D01*
X19750000Y-25770000D02*
X19750000Y-25200000D01*
X9150000Y-16300000D02*
X8924600Y-16300000D01*
X8551100Y-15926500D02*
X8924600Y-16300000D01*
X9150000Y-8840000D02*
X9150000Y-11300000D01*
X3500000Y-34100000D02*
X8150000Y-34100000D01*
X5300000Y-31600000D02*
X3500000Y-31600000D01*
X8551100Y-11678200D02*
X8551100Y-15926500D01*
X30047700Y-13168600D02*
X23391500Y-6512400D01*
X12000000Y-5990000D02*
X9150000Y-8840000D01*
X8563400Y-16661200D02*
X8563400Y-18986700D01*
X29357100Y-14500000D02*
X30047700Y-13809400D01*
X30047700Y-13809400D02*
X30047700Y-13168600D01*
X12522400Y-6512400D02*
X12000000Y-5990000D01*
X8929300Y-11300000D02*
X8551100Y-11678200D01*
X8924600Y-16300000D02*
X8563400Y-16661200D01*
X8151300Y-20452500D02*
X8151300Y-22871000D01*
X23391500Y-6512400D02*
X12522400Y-6512400D01*
X9500000Y-20487500D02*
X9500000Y-19923300D01*
X9150000Y-11300000D02*
X8929300Y-11300000D01*
X8150000Y-34100000D02*
X8150000Y-22870000D01*
X19750000Y-26337500D02*
X19750000Y-25773300D01*
%TO.N,RST_BNO*%
X17750000Y-30226700D02*
X21363500Y-30226700D01*
X17750000Y-29662500D02*
X17750000Y-30226700D01*
X28490000Y-26000000D02*
X29000000Y-25490000D01*
X21363500Y-30226700D02*
X25590200Y-26000000D01*
X25590200Y-26000000D02*
X28490000Y-26000000D01*
%TO.N,CAP_BNO*%
X23924700Y-30555300D02*
X24000000Y-30480000D01*
X16750000Y-30226700D02*
X17078600Y-30555300D01*
X17078600Y-30555300D02*
X23924700Y-30555300D01*
X16750000Y-29662500D02*
X16750000Y-30226700D01*
%TD*%
%TA.AperFunction,Conductor*%
%TO.N,GND*%
G36*
X25325694Y-25129574D02*
G01*
X25507548Y-25311428D01*
X25529222Y-25363754D01*
X25507548Y-25416080D01*
X25474375Y-25435232D01*
X25368069Y-25463717D01*
X25368060Y-25463721D01*
X25257685Y-25527446D01*
X25201532Y-25534838D01*
X25179574Y-25524889D01*
X25120796Y-25485616D01*
X24984217Y-25429043D01*
X24984207Y-25429040D01*
X24887111Y-25409726D01*
X24839218Y-25400200D01*
X24691382Y-25400200D01*
X24650277Y-25408376D01*
X24546392Y-25429040D01*
X24546382Y-25429043D01*
X24409805Y-25485615D01*
X24294397Y-25562729D01*
X24258226Y-25573700D01*
X24258341Y-25574567D01*
X24253531Y-25575200D01*
X24107169Y-25614417D01*
X24107160Y-25614421D01*
X23977696Y-25689167D01*
X23977676Y-25689180D01*
X23976987Y-25689577D01*
X23939973Y-25699500D01*
X23765310Y-25699500D01*
X23756234Y-25700214D01*
X23729004Y-25702357D01*
X23573603Y-25747506D01*
X23434312Y-25829883D01*
X23319883Y-25944312D01*
X23237506Y-26083603D01*
X23192357Y-26239004D01*
X23189500Y-26275310D01*
X23189500Y-26684689D01*
X23192357Y-26720995D01*
X23237506Y-26876396D01*
X23293426Y-26970951D01*
X23319883Y-27015687D01*
X23434313Y-27130117D01*
X23485344Y-27160296D01*
X23519350Y-27205588D01*
X23511370Y-27261660D01*
X23500001Y-27276317D01*
X21146794Y-29629526D01*
X21094468Y-29651200D01*
X20451499Y-29651200D01*
X20399173Y-29629526D01*
X20377499Y-29577200D01*
X20377499Y-29405680D01*
X20399173Y-29353354D01*
X20425637Y-29336346D01*
X20467331Y-29320796D01*
X20582546Y-29234546D01*
X20668796Y-29119331D01*
X20719091Y-28984483D01*
X20725500Y-28924873D01*
X20725499Y-28575128D01*
X20719091Y-28515517D01*
X20685283Y-28424872D01*
X20668797Y-28380670D01*
X20668796Y-28380669D01*
X20604175Y-28294347D01*
X20590168Y-28239469D01*
X20604175Y-28205653D01*
X20668796Y-28119331D01*
X20674753Y-28103361D01*
X20701188Y-28032484D01*
X20719091Y-27984483D01*
X20725500Y-27924873D01*
X20725499Y-27799176D01*
X20747173Y-27746851D01*
X20762499Y-27735090D01*
X20805065Y-27710515D01*
X20912215Y-27603365D01*
X20987981Y-27472135D01*
X21027199Y-27325768D01*
X21027200Y-27325768D01*
X21027200Y-26993125D01*
X21039671Y-26952013D01*
X21062353Y-26918067D01*
X21113784Y-26841095D01*
X21170358Y-26704513D01*
X21199200Y-26559518D01*
X21199200Y-26411682D01*
X21170358Y-26266687D01*
X21113784Y-26130105D01*
X21031651Y-26007184D01*
X20927116Y-25902649D01*
X20911953Y-25892517D01*
X20804194Y-25820515D01*
X20667617Y-25763943D01*
X20667607Y-25763940D01*
X20570511Y-25744626D01*
X20522618Y-25735100D01*
X20493655Y-25735100D01*
X20441329Y-25713426D01*
X20419655Y-25661100D01*
X20432126Y-25619988D01*
X20435847Y-25614419D01*
X20459394Y-25579179D01*
X20519737Y-25433497D01*
X20550500Y-25278842D01*
X20550500Y-25181900D01*
X20572174Y-25129574D01*
X20624500Y-25107900D01*
X25273368Y-25107900D01*
X25325694Y-25129574D01*
G37*
%TD.AperFunction*%
%TA.AperFunction,Conductor*%
G36*
X34678326Y-321674D02*
G01*
X34700000Y-374000D01*
X34700000Y-34626000D01*
X34678326Y-34678326D01*
X34626000Y-34700000D01*
X8537942Y-34700000D01*
X8485616Y-34678326D01*
X8463942Y-34626000D01*
X8485616Y-34573674D01*
X8500940Y-34561915D01*
X8503365Y-34560515D01*
X8610515Y-34453365D01*
X8686281Y-34322135D01*
X8725499Y-34175768D01*
X8725500Y-34175768D01*
X8725500Y-32275310D01*
X9189500Y-32275310D01*
X9189500Y-32684689D01*
X9192357Y-32720995D01*
X9237506Y-32876396D01*
X9315421Y-33008142D01*
X9323401Y-33064214D01*
X9313255Y-33086922D01*
X9290606Y-33120819D01*
X9230264Y-33266498D01*
X9230261Y-33266508D01*
X9199500Y-33421159D01*
X9199500Y-33578840D01*
X9230261Y-33733491D01*
X9230264Y-33733501D01*
X9290603Y-33879174D01*
X9290605Y-33879177D01*
X9290606Y-33879179D01*
X9378211Y-34010289D01*
X9489711Y-34121789D01*
X9620821Y-34209394D01*
X9620826Y-34209396D01*
X9620825Y-34209396D01*
X9766498Y-34269735D01*
X9766503Y-34269737D01*
X9921158Y-34300500D01*
X9921160Y-34300500D01*
X10078840Y-34300500D01*
X10078842Y-34300500D01*
X10233497Y-34269737D01*
X10379179Y-34209394D01*
X10510289Y-34121789D01*
X10621789Y-34010289D01*
X10709394Y-33879179D01*
X10769737Y-33733497D01*
X10800500Y-33578842D01*
X10800500Y-33421158D01*
X10769737Y-33266503D01*
X10709394Y-33120821D01*
X10686744Y-33086924D01*
X10675695Y-33031376D01*
X10684577Y-33008145D01*
X10762494Y-32876395D01*
X10807643Y-32720993D01*
X10810500Y-32684690D01*
X10810500Y-32275310D01*
X10807643Y-32239007D01*
X10762494Y-32083605D01*
X10680117Y-31944313D01*
X10565687Y-31829883D01*
X10525648Y-31806204D01*
X10426396Y-31747506D01*
X10270995Y-31702357D01*
X10246791Y-31700452D01*
X10234690Y-31699500D01*
X9765310Y-31699500D01*
X9756234Y-31700214D01*
X9729004Y-31702357D01*
X9573603Y-31747506D01*
X9434312Y-31829883D01*
X9319883Y-31944312D01*
X9237506Y-32083603D01*
X9192357Y-32239004D01*
X9189500Y-32275310D01*
X8725500Y-32275310D01*
X8725500Y-29277126D01*
X16122500Y-29277126D01*
X16122500Y-30047873D01*
X16126342Y-30083603D01*
X16128909Y-30107483D01*
X16169834Y-30217209D01*
X16174500Y-30243067D01*
X16174500Y-30302468D01*
X16213717Y-30448830D01*
X16213718Y-30448833D01*
X16213719Y-30448835D01*
X16289485Y-30580065D01*
X16618085Y-30908665D01*
X16725235Y-31015815D01*
X16856465Y-31091581D01*
X17002831Y-31130799D01*
X17002832Y-31130800D01*
X17002834Y-31130800D01*
X23415224Y-31130800D01*
X23452892Y-31141104D01*
X23573605Y-31212494D01*
X23729007Y-31257643D01*
X23765310Y-31260500D01*
X23765311Y-31260500D01*
X24234689Y-31260500D01*
X24234690Y-31260500D01*
X24270993Y-31257643D01*
X24426395Y-31212494D01*
X24565687Y-31130117D01*
X24680117Y-31015687D01*
X24762494Y-30876395D01*
X24807643Y-30720993D01*
X24810500Y-30684690D01*
X24810500Y-30275310D01*
X24807643Y-30239007D01*
X24762494Y-30083605D01*
X24680117Y-29944313D01*
X24565687Y-29829883D01*
X24426396Y-29747506D01*
X24270995Y-29702357D01*
X24246791Y-29700452D01*
X24234690Y-29699500D01*
X23765310Y-29699500D01*
X23756234Y-29700214D01*
X23729004Y-29702357D01*
X23573603Y-29747506D01*
X23434312Y-29829883D01*
X23319882Y-29944313D01*
X23317031Y-29947990D01*
X23315719Y-29946972D01*
X23275083Y-29977477D01*
X23256687Y-29979800D01*
X22602932Y-29979800D01*
X22550606Y-29958126D01*
X22528932Y-29905800D01*
X22550606Y-29853474D01*
X23284751Y-29119329D01*
X25588576Y-26815502D01*
X25640901Y-26793829D01*
X25693227Y-26815503D01*
X25711963Y-26847184D01*
X25727131Y-26899394D01*
X25769450Y-26970951D01*
X25808865Y-27037598D01*
X25922402Y-27151135D01*
X26060607Y-27232869D01*
X26214793Y-27277664D01*
X26214792Y-27277664D01*
X26214796Y-27277665D01*
X26250819Y-27280500D01*
X26749180Y-27280499D01*
X26785204Y-27277665D01*
X26939393Y-27232869D01*
X27077598Y-27151135D01*
X27121559Y-27107174D01*
X27173885Y-27085500D01*
X28326115Y-27085500D01*
X28378441Y-27107174D01*
X28422402Y-27151135D01*
X28560607Y-27232869D01*
X28714793Y-27277664D01*
X28714792Y-27277664D01*
X28714796Y-27277665D01*
X28750819Y-27280500D01*
X29249180Y-27280499D01*
X29285204Y-27277665D01*
X29439393Y-27232869D01*
X29577598Y-27151135D01*
X29595386Y-27133346D01*
X29647709Y-27111670D01*
X29662150Y-27113092D01*
X29789882Y-27138500D01*
X29789884Y-27138500D01*
X29937716Y-27138500D01*
X29937718Y-27138500D01*
X30082713Y-27109658D01*
X30219295Y-27053084D01*
X30342216Y-26970951D01*
X30446751Y-26866416D01*
X30528884Y-26743495D01*
X30585458Y-26606913D01*
X30614300Y-26461918D01*
X30614300Y-26314082D01*
X30585458Y-26169087D01*
X30528884Y-26032505D01*
X30446751Y-25909584D01*
X30342216Y-25805049D01*
X30303230Y-25778999D01*
X30219294Y-25722915D01*
X30082717Y-25666343D01*
X30082707Y-25666340D01*
X29985611Y-25647026D01*
X29937718Y-25637500D01*
X29937716Y-25637500D01*
X29894500Y-25637500D01*
X29842174Y-25615826D01*
X29820500Y-25563500D01*
X29820499Y-25290820D01*
X29819876Y-25282900D01*
X29817665Y-25254796D01*
X29772869Y-25100607D01*
X29691135Y-24962402D01*
X29577598Y-24848865D01*
X29439394Y-24767131D01*
X29285204Y-24722335D01*
X29285207Y-24722335D01*
X29258186Y-24720208D01*
X29249181Y-24719500D01*
X29249180Y-24719500D01*
X28750820Y-24719500D01*
X28714793Y-24722335D01*
X28560605Y-24767131D01*
X28422401Y-24848865D01*
X28308865Y-24962401D01*
X28227131Y-25100605D01*
X28182335Y-25254793D01*
X28179500Y-25290819D01*
X28179500Y-25350500D01*
X28157826Y-25402826D01*
X28105500Y-25424500D01*
X27394499Y-25424500D01*
X27342173Y-25402826D01*
X27320499Y-25350500D01*
X27320499Y-25290820D01*
X27319876Y-25282900D01*
X27317665Y-25254796D01*
X27272869Y-25100607D01*
X27191135Y-24962402D01*
X27077598Y-24848865D01*
X26939394Y-24767131D01*
X26785204Y-24722335D01*
X26785207Y-24722335D01*
X26758186Y-24720208D01*
X26749181Y-24719500D01*
X26749180Y-24719500D01*
X26574032Y-24719500D01*
X26521706Y-24697826D01*
X26282362Y-24458482D01*
X25895765Y-24071885D01*
X25864758Y-24053983D01*
X25764539Y-23996121D01*
X25764530Y-23996117D01*
X25618168Y-23956900D01*
X25618166Y-23956900D01*
X18012315Y-23956900D01*
X17971203Y-23944429D01*
X17855794Y-23867315D01*
X17719217Y-23810743D01*
X17719207Y-23810740D01*
X17622111Y-23791426D01*
X17574218Y-23781900D01*
X17426382Y-23781900D01*
X17385277Y-23790076D01*
X17281392Y-23810740D01*
X17281382Y-23810743D01*
X17144805Y-23867315D01*
X17021884Y-23949448D01*
X17021883Y-23949450D01*
X16917350Y-24053983D01*
X16917348Y-24053984D01*
X16835215Y-24176905D01*
X16778643Y-24313482D01*
X16778640Y-24313492D01*
X16749800Y-24458483D01*
X16749800Y-24606316D01*
X16778640Y-24751307D01*
X16778643Y-24751317D01*
X16835215Y-24887894D01*
X16835216Y-24887895D01*
X16917349Y-25010816D01*
X17021884Y-25115351D01*
X17144805Y-25197484D01*
X17281387Y-25254058D01*
X17426382Y-25282900D01*
X17426384Y-25282900D01*
X17574216Y-25282900D01*
X17574218Y-25282900D01*
X17719213Y-25254058D01*
X17855795Y-25197484D01*
X17971203Y-25120370D01*
X18012315Y-25107900D01*
X18875500Y-25107900D01*
X18927826Y-25129574D01*
X18949500Y-25181900D01*
X18949500Y-25278842D01*
X18951883Y-25290820D01*
X18980261Y-25433491D01*
X18980264Y-25433501D01*
X19040603Y-25579174D01*
X19128210Y-25710288D01*
X19144595Y-25726673D01*
X19166269Y-25778999D01*
X19161603Y-25804859D01*
X19128910Y-25892512D01*
X19128909Y-25892517D01*
X19122500Y-25952126D01*
X19122500Y-26542993D01*
X19100826Y-26595319D01*
X19055760Y-26616636D01*
X19053085Y-26616899D01*
X18908092Y-26645740D01*
X18908082Y-26645743D01*
X18771505Y-26702315D01*
X18648584Y-26784448D01*
X18648583Y-26784450D01*
X18544050Y-26888983D01*
X18544048Y-26888984D01*
X18461915Y-27011905D01*
X18405343Y-27148482D01*
X18405340Y-27148492D01*
X18388557Y-27232868D01*
X18379647Y-27277664D01*
X18376500Y-27293483D01*
X18376500Y-27441316D01*
X18405340Y-27586307D01*
X18405343Y-27586317D01*
X18461915Y-27722894D01*
X18461916Y-27722895D01*
X18544049Y-27845816D01*
X18648584Y-27950351D01*
X18771505Y-28032484D01*
X18814481Y-28050285D01*
X18850248Y-28081651D01*
X18862782Y-28103361D01*
X18862783Y-28103362D01*
X18862785Y-28103365D01*
X18969935Y-28210515D01*
X19081814Y-28275109D01*
X19116292Y-28320041D01*
X19108900Y-28376194D01*
X19107429Y-28378424D01*
X19106203Y-28380669D01*
X19055910Y-28515512D01*
X19055909Y-28515517D01*
X19049500Y-28575126D01*
X19049500Y-28766854D01*
X19027826Y-28819180D01*
X19001360Y-28836188D01*
X18880670Y-28881202D01*
X18880669Y-28881203D01*
X18765454Y-28967454D01*
X18679203Y-29082669D01*
X18679202Y-29082670D01*
X18628910Y-29217512D01*
X18628909Y-29217517D01*
X18622500Y-29277126D01*
X18622500Y-29577200D01*
X18600826Y-29629526D01*
X18548500Y-29651200D01*
X18451499Y-29651200D01*
X18399173Y-29629526D01*
X18377499Y-29577200D01*
X18377499Y-29277126D01*
X18375955Y-29262766D01*
X18371091Y-29217517D01*
X18371089Y-29217512D01*
X18320797Y-29082670D01*
X18320796Y-29082669D01*
X18249999Y-28988097D01*
X18234546Y-28967454D01*
X18119331Y-28881204D01*
X18119330Y-28881203D01*
X18119329Y-28881202D01*
X17984487Y-28830910D01*
X17984484Y-28830909D01*
X17984483Y-28830909D01*
X17924873Y-28824500D01*
X17575127Y-28824500D01*
X17515514Y-28830909D01*
X17380670Y-28881202D01*
X17380669Y-28881203D01*
X17294347Y-28945825D01*
X17239469Y-28959832D01*
X17205653Y-28945825D01*
X17119330Y-28881203D01*
X17119329Y-28881202D01*
X16984487Y-28830910D01*
X16984484Y-28830909D01*
X16984483Y-28830909D01*
X16924873Y-28824500D01*
X16575127Y-28824500D01*
X16515514Y-28830909D01*
X16380670Y-28881202D01*
X16380669Y-28881203D01*
X16265454Y-28967454D01*
X16179203Y-29082669D01*
X16179202Y-29082670D01*
X16128910Y-29217512D01*
X16128909Y-29217517D01*
X16122500Y-29277126D01*
X8725500Y-29277126D01*
X8725500Y-27575126D01*
X14274500Y-27575126D01*
X14274500Y-27924872D01*
X14281404Y-27989085D01*
X14280558Y-27989175D01*
X14280558Y-28010824D01*
X14281404Y-28010915D01*
X14274500Y-28075126D01*
X14274500Y-28424872D01*
X14280909Y-28484485D01*
X14331202Y-28619329D01*
X14331203Y-28619330D01*
X14331204Y-28619331D01*
X14417454Y-28734546D01*
X14530510Y-28819180D01*
X14532669Y-28820796D01*
X14532670Y-28820797D01*
X14643605Y-28862172D01*
X14667517Y-28871091D01*
X14727127Y-28877500D01*
X15497872Y-28877499D01*
X15557483Y-28871091D01*
X15667209Y-28830166D01*
X15693069Y-28825500D01*
X15915868Y-28825500D01*
X15915868Y-28825499D01*
X16062235Y-28786281D01*
X16193465Y-28710515D01*
X16791355Y-28112623D01*
X16829242Y-28092373D01*
X16845913Y-28089058D01*
X16982495Y-28032484D01*
X17105416Y-27950351D01*
X17209951Y-27845816D01*
X17292084Y-27722895D01*
X17348658Y-27586313D01*
X17377500Y-27441318D01*
X17377500Y-27293482D01*
X17348658Y-27148487D01*
X17341048Y-27130116D01*
X17292084Y-27011905D01*
X17209951Y-26888984D01*
X17105415Y-26784448D01*
X17064810Y-26757317D01*
X16982495Y-26702316D01*
X16982492Y-26702314D01*
X16982491Y-26702314D01*
X16923180Y-26677746D01*
X16883132Y-26637697D01*
X16877499Y-26609379D01*
X16877499Y-25952126D01*
X16875955Y-25937766D01*
X16871091Y-25892517D01*
X16847730Y-25829883D01*
X16820797Y-25757670D01*
X16820796Y-25757669D01*
X16794779Y-25722915D01*
X16734546Y-25642454D01*
X16619331Y-25556204D01*
X16619330Y-25556203D01*
X16619329Y-25556202D01*
X16484487Y-25505910D01*
X16484484Y-25505909D01*
X16484483Y-25505909D01*
X16424873Y-25499500D01*
X16075127Y-25499500D01*
X16024568Y-25504935D01*
X16015517Y-25505909D01*
X16015516Y-25505909D01*
X16010915Y-25506404D01*
X16010824Y-25505560D01*
X15989175Y-25505557D01*
X15989085Y-25506404D01*
X15984483Y-25505909D01*
X15924873Y-25499500D01*
X15575127Y-25499500D01*
X15515514Y-25505909D01*
X15380670Y-25556202D01*
X15380669Y-25556203D01*
X15265454Y-25642454D01*
X15179203Y-25757669D01*
X15179202Y-25757670D01*
X15128910Y-25892512D01*
X15128909Y-25892517D01*
X15122500Y-25952126D01*
X15122500Y-26722873D01*
X15128909Y-26782483D01*
X15169834Y-26892209D01*
X15174500Y-26918067D01*
X15174500Y-27048500D01*
X15152826Y-27100826D01*
X15100500Y-27122500D01*
X14727127Y-27122500D01*
X14667514Y-27128909D01*
X14532670Y-27179202D01*
X14532669Y-27179203D01*
X14417454Y-27265454D01*
X14331203Y-27380669D01*
X14331202Y-27380670D01*
X14280910Y-27515512D01*
X14280909Y-27515517D01*
X14274500Y-27575126D01*
X8725500Y-27575126D01*
X8725500Y-23695200D01*
X8747174Y-23642874D01*
X8799500Y-23621200D01*
X8848196Y-23621200D01*
X8867347Y-23623720D01*
X8973634Y-23652200D01*
X8973635Y-23652200D01*
X9575768Y-23652200D01*
X9575768Y-23652199D01*
X9722135Y-23612981D01*
X9853365Y-23537215D01*
X9960515Y-23430065D01*
X10036281Y-23298835D01*
X10075499Y-23152468D01*
X10075500Y-23152468D01*
X10075500Y-23087705D01*
X10080165Y-23061847D01*
X10119091Y-22957483D01*
X10125500Y-22897873D01*
X10125499Y-22127128D01*
X10119091Y-22067517D01*
X10119090Y-22067514D01*
X10068797Y-21932670D01*
X10068796Y-21932669D01*
X10061462Y-21922872D01*
X9982546Y-21817454D01*
X9883819Y-21743547D01*
X9867330Y-21731203D01*
X9867329Y-21731202D01*
X9732487Y-21680910D01*
X9732484Y-21680909D01*
X9732483Y-21680909D01*
X9702678Y-21677704D01*
X9672874Y-21674500D01*
X9672873Y-21674500D01*
X9649499Y-21674500D01*
X9626001Y-21664767D01*
X9601775Y-21657054D01*
X9600439Y-21654178D01*
X9597173Y-21652826D01*
X9575763Y-21606744D01*
X9575499Y-21603626D01*
X9575499Y-21577128D01*
X9569091Y-21517517D01*
X9567948Y-21514453D01*
X9567253Y-21506244D01*
X9568974Y-21500836D01*
X9568974Y-21487126D01*
X9568596Y-21487086D01*
X9568974Y-21483561D01*
X9568975Y-21482972D01*
X9569089Y-21482488D01*
X9569091Y-21482483D01*
X9575500Y-21422873D01*
X9575500Y-21399499D01*
X9585232Y-21376001D01*
X9592946Y-21351775D01*
X9595821Y-21350439D01*
X9597174Y-21347173D01*
X9643256Y-21325763D01*
X9646374Y-21325499D01*
X9672872Y-21325499D01*
X9732483Y-21319091D01*
X9735547Y-21317948D01*
X9743755Y-21317253D01*
X9749162Y-21318974D01*
X9762873Y-21318974D01*
X9762914Y-21318596D01*
X9766429Y-21318974D01*
X9767024Y-21318974D01*
X9767513Y-21319089D01*
X9767517Y-21319091D01*
X9827127Y-21325500D01*
X10172872Y-21325499D01*
X10232483Y-21319091D01*
X10232489Y-21319088D01*
X10232971Y-21318975D01*
X10234862Y-21318835D01*
X10237086Y-21318596D01*
X10237093Y-21318669D01*
X10256243Y-21317253D01*
X10264453Y-21317948D01*
X10267517Y-21319091D01*
X10327127Y-21325500D01*
X10353634Y-21325499D01*
X10356744Y-21325763D01*
X10379328Y-21337440D01*
X10402824Y-21347171D01*
X10404098Y-21350246D01*
X10407054Y-21351775D01*
X10414766Y-21375999D01*
X10424500Y-21399496D01*
X10424500Y-21422872D01*
X10430909Y-21482487D01*
X10431028Y-21482988D01*
X10431028Y-21483587D01*
X10431404Y-21487085D01*
X10431028Y-21487125D01*
X10431028Y-21512874D01*
X10431404Y-21512915D01*
X10431028Y-21516402D01*
X10431029Y-21517007D01*
X10430909Y-21517512D01*
X10424500Y-21577126D01*
X10424500Y-21922872D01*
X10430909Y-21982487D01*
X10431028Y-21982988D01*
X10431028Y-21983587D01*
X10431404Y-21987085D01*
X10431028Y-21987125D01*
X10431028Y-22012874D01*
X10431404Y-22012915D01*
X10431028Y-22016402D01*
X10431029Y-22017007D01*
X10430909Y-22017512D01*
X10424500Y-22077126D01*
X10424500Y-22422872D01*
X10430909Y-22482485D01*
X10481202Y-22617329D01*
X10481203Y-22617330D01*
X10502886Y-22646295D01*
X10567454Y-22732546D01*
X10682669Y-22818796D01*
X10682670Y-22818797D01*
X10793605Y-22860172D01*
X10817517Y-22869091D01*
X10877127Y-22875500D01*
X11252900Y-22875499D01*
X11305226Y-22897173D01*
X11326900Y-22949499D01*
X11326900Y-22973416D01*
X11355740Y-23118407D01*
X11355743Y-23118417D01*
X11412315Y-23254994D01*
X11441612Y-23298839D01*
X11494449Y-23377916D01*
X11598984Y-23482451D01*
X11721905Y-23564584D01*
X11858487Y-23621158D01*
X12003482Y-23650000D01*
X12003484Y-23650000D01*
X12151316Y-23650000D01*
X12151318Y-23650000D01*
X12296313Y-23621158D01*
X12432895Y-23564584D01*
X12555816Y-23482451D01*
X12660351Y-23377916D01*
X12742484Y-23254995D01*
X12799058Y-23118413D01*
X12807672Y-23075102D01*
X12839136Y-23028011D01*
X12865812Y-23016962D01*
X12880413Y-23014058D01*
X13016995Y-22957484D01*
X13132403Y-22880370D01*
X13173515Y-22867900D01*
X13763368Y-22867900D01*
X13763368Y-22867899D01*
X13909735Y-22828681D01*
X14010656Y-22770414D01*
X14047656Y-22760500D01*
X14234689Y-22760500D01*
X14234690Y-22760500D01*
X14270993Y-22757643D01*
X14426395Y-22712494D01*
X14565687Y-22630117D01*
X14680117Y-22515687D01*
X14762494Y-22376395D01*
X14807643Y-22220993D01*
X14810500Y-22184690D01*
X14810500Y-21775310D01*
X14807643Y-21739007D01*
X14762494Y-21583605D01*
X14754887Y-21570743D01*
X14715995Y-21504979D01*
X14680117Y-21444313D01*
X14565687Y-21329883D01*
X14426396Y-21247506D01*
X14270995Y-21202357D01*
X14246791Y-21200452D01*
X14234690Y-21199500D01*
X13765310Y-21199500D01*
X13756234Y-21200214D01*
X13729004Y-21202357D01*
X13573603Y-21247506D01*
X13434312Y-21329883D01*
X13319883Y-21444312D01*
X13237506Y-21583603D01*
X13219206Y-21646593D01*
X13183793Y-21690794D01*
X13127498Y-21697009D01*
X13107032Y-21687476D01*
X13016994Y-21627315D01*
X12880417Y-21570743D01*
X12880407Y-21570740D01*
X12783311Y-21551426D01*
X12735418Y-21541900D01*
X12587582Y-21541900D01*
X12546477Y-21550076D01*
X12442592Y-21570740D01*
X12442582Y-21570743D01*
X12306005Y-21627315D01*
X12215611Y-21687715D01*
X12196727Y-21691471D01*
X12179478Y-21700018D01*
X12169937Y-21696799D01*
X12160062Y-21698764D01*
X12144053Y-21688067D01*
X12125813Y-21681914D01*
X12121877Y-21673249D01*
X12112970Y-21667298D01*
X12100667Y-21631165D01*
X12100499Y-21628673D01*
X12100499Y-21577128D01*
X12094091Y-21517517D01*
X12092762Y-21513955D01*
X12092157Y-21504979D01*
X12093974Y-21499591D01*
X12093974Y-21487126D01*
X12093596Y-21487086D01*
X12093974Y-21483561D01*
X12093975Y-21482972D01*
X12094089Y-21482488D01*
X12094091Y-21482483D01*
X12100500Y-21422873D01*
X12100499Y-21077128D01*
X12094091Y-21017517D01*
X12094088Y-21017510D01*
X12093974Y-21017025D01*
X12093974Y-21016430D01*
X12093596Y-21012914D01*
X12093974Y-21012873D01*
X12093974Y-20987126D01*
X12093596Y-20987086D01*
X12093974Y-20983561D01*
X12093975Y-20982972D01*
X12094089Y-20982488D01*
X12094091Y-20982483D01*
X12100500Y-20922873D01*
X12100499Y-20577128D01*
X12094091Y-20517517D01*
X12094090Y-20517514D01*
X12043797Y-20382670D01*
X12043796Y-20382669D01*
X12039351Y-20376731D01*
X11957546Y-20267454D01*
X11842331Y-20181204D01*
X11842330Y-20181203D01*
X11842329Y-20181202D01*
X11707487Y-20130910D01*
X11707484Y-20130909D01*
X11707483Y-20130909D01*
X11677678Y-20127704D01*
X11647874Y-20124500D01*
X11647873Y-20124500D01*
X11578188Y-20124500D01*
X11525862Y-20102826D01*
X11504188Y-20050500D01*
X11516658Y-20009389D01*
X11544384Y-19967895D01*
X11600958Y-19831313D01*
X11629800Y-19686318D01*
X11629800Y-19538482D01*
X11600958Y-19393487D01*
X11544384Y-19256905D01*
X11462251Y-19133984D01*
X11357716Y-19029449D01*
X11293819Y-18986754D01*
X11234794Y-18947315D01*
X11098217Y-18890743D01*
X11098210Y-18890741D01*
X11087883Y-18888687D01*
X11040792Y-18857219D01*
X11029744Y-18801670D01*
X11049994Y-18763785D01*
X11738515Y-18075265D01*
X11814281Y-17944035D01*
X11843855Y-17833661D01*
X11878333Y-17788729D01*
X11934485Y-17781336D01*
X11979419Y-17815815D01*
X11983700Y-17824496D01*
X11996416Y-17855195D01*
X12066588Y-17960216D01*
X12078549Y-17978116D01*
X12183084Y-18082651D01*
X12306005Y-18164784D01*
X12442587Y-18221358D01*
X12587582Y-18250200D01*
X12587584Y-18250200D01*
X12735416Y-18250200D01*
X12735418Y-18250200D01*
X12880413Y-18221358D01*
X13016995Y-18164784D01*
X13132403Y-18087670D01*
X13173515Y-18075200D01*
X13556068Y-18075200D01*
X13556068Y-18075199D01*
X13702435Y-18035981D01*
X13833665Y-17960215D01*
X14011706Y-17782174D01*
X14064032Y-17760500D01*
X14234689Y-17760500D01*
X14234690Y-17760500D01*
X14270993Y-17757643D01*
X14426395Y-17712494D01*
X14565687Y-17630117D01*
X14680117Y-17515687D01*
X14762494Y-17376395D01*
X14807643Y-17220993D01*
X14810500Y-17184690D01*
X14810500Y-16775310D01*
X14807643Y-16739007D01*
X14762494Y-16583605D01*
X14680117Y-16444313D01*
X14565687Y-16329883D01*
X14511096Y-16297598D01*
X14426396Y-16247506D01*
X14270995Y-16202357D01*
X14246791Y-16200452D01*
X14234690Y-16199500D01*
X13765310Y-16199500D01*
X13756234Y-16200214D01*
X13729004Y-16202357D01*
X13573603Y-16247506D01*
X13434312Y-16329883D01*
X13319883Y-16444312D01*
X13237506Y-16583603D01*
X13192357Y-16739004D01*
X13189500Y-16775310D01*
X13189500Y-16811435D01*
X13167826Y-16863761D01*
X13115500Y-16885435D01*
X13074388Y-16872964D01*
X13016994Y-16834615D01*
X12880417Y-16778043D01*
X12880407Y-16778040D01*
X12783311Y-16758726D01*
X12735418Y-16749200D01*
X12587582Y-16749200D01*
X12546477Y-16757376D01*
X12442592Y-16778040D01*
X12442582Y-16778043D01*
X12306005Y-16834615D01*
X12183084Y-16916748D01*
X12183083Y-16916750D01*
X12078550Y-17021283D01*
X12078548Y-17021284D01*
X11996416Y-17144204D01*
X11995866Y-17145533D01*
X11995521Y-17145877D01*
X11994703Y-17147409D01*
X11994238Y-17147160D01*
X11955816Y-17185579D01*
X11899178Y-17185577D01*
X11859132Y-17145527D01*
X11853500Y-17117211D01*
X11853500Y-15838736D01*
X11853500Y-15838734D01*
X11853075Y-15837149D01*
X11853077Y-15837133D01*
X11853071Y-15837135D01*
X11853071Y-15837134D01*
X11814281Y-15692365D01*
X11738515Y-15561135D01*
X11401104Y-15223724D01*
X11379431Y-15171400D01*
X11401104Y-15119075D01*
X12423006Y-14097174D01*
X12475332Y-14075500D01*
X12585734Y-14075500D01*
X12737266Y-14075500D01*
X27678794Y-14075500D01*
X27731120Y-14097174D01*
X27752794Y-14149500D01*
X27749856Y-14170146D01*
X27727402Y-14247429D01*
X27724500Y-14284306D01*
X27724500Y-14503500D01*
X27702826Y-14555826D01*
X27650500Y-14577500D01*
X27399115Y-14577500D01*
X27358003Y-14565029D01*
X27242594Y-14487915D01*
X27106017Y-14431343D01*
X27106007Y-14431340D01*
X27008911Y-14412026D01*
X26961018Y-14402500D01*
X26813182Y-14402500D01*
X26772077Y-14410676D01*
X26668192Y-14431340D01*
X26668182Y-14431343D01*
X26531605Y-14487915D01*
X26408684Y-14570048D01*
X26408683Y-14570050D01*
X26304150Y-14674583D01*
X26304148Y-14674584D01*
X26222015Y-14797505D01*
X26165443Y-14934082D01*
X26165440Y-14934092D01*
X26141363Y-15055135D01*
X26136600Y-15079082D01*
X26136600Y-15226918D01*
X26146126Y-15274811D01*
X26165440Y-15371907D01*
X26165443Y-15371917D01*
X26222015Y-15508494D01*
X26283492Y-15600500D01*
X26304149Y-15631416D01*
X26408684Y-15735951D01*
X26531605Y-15818084D01*
X26668187Y-15874658D01*
X26813182Y-15903500D01*
X26813184Y-15903500D01*
X26961016Y-15903500D01*
X26961018Y-15903500D01*
X27106013Y-15874658D01*
X27242595Y-15818084D01*
X27358003Y-15740970D01*
X27399115Y-15728500D01*
X27664848Y-15728500D01*
X27717174Y-15750174D01*
X27735910Y-15781854D01*
X27773256Y-15910399D01*
X27856919Y-16051865D01*
X27973135Y-16168081D01*
X28114602Y-16251744D01*
X28272431Y-16297598D01*
X28309306Y-16300500D01*
X28309307Y-16300500D01*
X29690693Y-16300500D01*
X29690694Y-16300500D01*
X29727569Y-16297598D01*
X29885398Y-16251744D01*
X30026865Y-16168081D01*
X30143081Y-16051865D01*
X30226744Y-15910398D01*
X30272598Y-15752569D01*
X30275500Y-15715694D01*
X30275500Y-15284306D01*
X30272598Y-15247431D01*
X30226744Y-15089602D01*
X30220522Y-15079082D01*
X30196031Y-15037670D01*
X30188050Y-14981598D01*
X30196031Y-14962330D01*
X30226742Y-14910401D01*
X30226741Y-14910401D01*
X30226744Y-14910398D01*
X30272598Y-14752569D01*
X30275500Y-14715694D01*
X30275500Y-14426131D01*
X30297173Y-14373806D01*
X30508215Y-14162765D01*
X30583981Y-14031535D01*
X30623199Y-13885168D01*
X30623200Y-13885168D01*
X30623200Y-13092832D01*
X30611856Y-13050499D01*
X30608905Y-13039485D01*
X30583981Y-12946465D01*
X30571300Y-12924500D01*
X30559397Y-12903883D01*
X30559397Y-12903884D01*
X30508217Y-12815238D01*
X30508216Y-12815237D01*
X30508215Y-12815235D01*
X30401065Y-12708085D01*
X23744865Y-6051885D01*
X23744862Y-6051883D01*
X23613639Y-5976121D01*
X23613630Y-5976117D01*
X23467268Y-5936900D01*
X23467266Y-5936900D01*
X15394499Y-5936900D01*
X15342173Y-5915226D01*
X15320499Y-5862900D01*
X15320499Y-5790820D01*
X15320499Y-5790819D01*
X15317665Y-5754796D01*
X15272869Y-5600607D01*
X15191135Y-5462402D01*
X15077598Y-5348865D01*
X14939394Y-5267131D01*
X14785204Y-5222335D01*
X14785207Y-5222335D01*
X14758186Y-5220208D01*
X14749181Y-5219500D01*
X14749180Y-5219500D01*
X14574032Y-5219500D01*
X14521706Y-5197826D01*
X14454384Y-5130504D01*
X14349365Y-5025485D01*
X14318358Y-5007583D01*
X14218139Y-4949721D01*
X14218130Y-4949717D01*
X14071768Y-4910500D01*
X14071766Y-4910500D01*
X13691515Y-4910500D01*
X13650403Y-4898029D01*
X13534994Y-4820915D01*
X13398417Y-4764343D01*
X13398407Y-4764340D01*
X13301311Y-4745026D01*
X13253418Y-4735500D01*
X13105582Y-4735500D01*
X13064477Y-4743676D01*
X12960592Y-4764340D01*
X12960582Y-4764343D01*
X12824005Y-4820915D01*
X12701084Y-4903048D01*
X12701083Y-4903050D01*
X12596550Y-5007583D01*
X12596548Y-5007584D01*
X12514416Y-5130504D01*
X12481208Y-5210676D01*
X12441159Y-5250724D01*
X12392196Y-5253419D01*
X12285204Y-5222335D01*
X12285207Y-5222335D01*
X12258186Y-5220208D01*
X12249181Y-5219500D01*
X12249180Y-5219500D01*
X11750820Y-5219500D01*
X11714793Y-5222335D01*
X11560605Y-5267131D01*
X11422401Y-5348865D01*
X11308865Y-5462401D01*
X11227131Y-5600605D01*
X11182335Y-5754793D01*
X11179500Y-5790819D01*
X11179500Y-5965967D01*
X11157826Y-6018293D01*
X8796635Y-8379485D01*
X8689483Y-8486637D01*
X8613721Y-8617860D01*
X8613717Y-8617869D01*
X8574500Y-8764231D01*
X8574500Y-10810268D01*
X8552826Y-10862594D01*
X8090583Y-11324837D01*
X8014821Y-11456060D01*
X8014817Y-11456069D01*
X7975600Y-11602431D01*
X7975600Y-16002268D01*
X8014817Y-16148630D01*
X8014821Y-16148639D01*
X8083447Y-16267502D01*
X8090840Y-16323655D01*
X8083447Y-16341502D01*
X8027121Y-16439060D01*
X8027117Y-16439069D01*
X7987900Y-16585431D01*
X7987900Y-16585434D01*
X7987900Y-18910961D01*
X7987893Y-18910988D01*
X7987900Y-18986754D01*
X7987900Y-19062471D01*
X7987907Y-19062520D01*
X8007063Y-19133985D01*
X8007064Y-19133991D01*
X8027120Y-19208842D01*
X8027137Y-19208884D01*
X8064688Y-19273908D01*
X8064689Y-19273915D01*
X8064692Y-19273914D01*
X8102885Y-19340065D01*
X8102887Y-19340067D01*
X8102917Y-19340106D01*
X8102919Y-19340109D01*
X8155757Y-19392937D01*
X8213369Y-19450549D01*
X8213449Y-19450619D01*
X8224046Y-19461215D01*
X8245723Y-19513540D01*
X8224051Y-19565866D01*
X8224049Y-19565869D01*
X7797935Y-19991985D01*
X7690783Y-20099137D01*
X7615021Y-20230360D01*
X7615017Y-20230369D01*
X7575800Y-20376731D01*
X7575800Y-22779640D01*
X7574523Y-22789344D01*
X7575133Y-22789425D01*
X7574500Y-22794233D01*
X7574500Y-32082002D01*
X7552826Y-32134328D01*
X7500500Y-32156002D01*
X7448174Y-32134328D01*
X7431166Y-32107862D01*
X7393797Y-32007670D01*
X7393796Y-32007669D01*
X7307546Y-31892454D01*
X7192331Y-31806204D01*
X7192330Y-31806203D01*
X7192329Y-31806202D01*
X7057487Y-31755910D01*
X7057484Y-31755909D01*
X7057483Y-31755909D01*
X7027678Y-31752704D01*
X6997874Y-31749500D01*
X6997873Y-31749500D01*
X6524000Y-31749500D01*
X6471674Y-31727826D01*
X6450000Y-31675500D01*
X6450000Y-31524000D01*
X6471674Y-31471674D01*
X6524000Y-31450000D01*
X6750000Y-31450000D01*
X6750000Y-31250000D01*
X6060817Y-31250000D01*
X6008491Y-31228326D01*
X5995868Y-31211464D01*
X5993797Y-31207674D01*
X5993796Y-31207669D01*
X5907546Y-31092454D01*
X5792331Y-31006204D01*
X5792330Y-31006203D01*
X5792329Y-31006202D01*
X5657487Y-30955910D01*
X5657484Y-30955909D01*
X5657483Y-30955909D01*
X5597873Y-30949500D01*
X5002126Y-30949500D01*
X4942514Y-30955909D01*
X4807671Y-31006202D01*
X4807669Y-31006203D01*
X4802944Y-31009741D01*
X4758599Y-31024500D01*
X3424232Y-31024500D01*
X3277869Y-31063717D01*
X3277860Y-31063721D01*
X3146637Y-31139483D01*
X3039483Y-31246637D01*
X2963721Y-31377860D01*
X2963717Y-31377869D01*
X2924500Y-31524231D01*
X2924500Y-34175768D01*
X2963717Y-34322130D01*
X2963718Y-34322133D01*
X2963719Y-34322135D01*
X3039485Y-34453365D01*
X3146635Y-34560515D01*
X3146637Y-34560516D01*
X3149060Y-34561915D01*
X3149919Y-34563035D01*
X3150486Y-34563470D01*
X3150369Y-34563621D01*
X3183537Y-34606849D01*
X3176143Y-34663002D01*
X3131209Y-34697479D01*
X3112058Y-34700000D01*
X374000Y-34700000D01*
X321674Y-34678326D01*
X300000Y-34626000D01*
X300000Y-374000D01*
X321674Y-321674D01*
X374000Y-300000D01*
X34626000Y-300000D01*
X34678326Y-321674D01*
G37*
%TD.AperFunction*%
%TA.AperFunction,Conductor*%
G36*
X13657827Y-7109574D02*
G01*
X13679501Y-7161900D01*
X13679501Y-7209179D01*
X13682335Y-7245206D01*
X13727131Y-7399394D01*
X13768655Y-7469607D01*
X13808865Y-7537598D01*
X13922402Y-7651135D01*
X14017887Y-7707605D01*
X14054262Y-7729117D01*
X14060607Y-7732869D01*
X14214793Y-7777664D01*
X14214792Y-7777664D01*
X14214796Y-7777665D01*
X14250819Y-7780500D01*
X14488196Y-7780499D01*
X14516513Y-7786131D01*
X14518563Y-7786980D01*
X14518565Y-7786981D01*
X14518566Y-7786981D01*
X14518568Y-7786982D01*
X14591749Y-7806590D01*
X14664930Y-7826199D01*
X14664931Y-7826200D01*
X14664933Y-7826200D01*
X14664934Y-7826200D01*
X15031885Y-7826200D01*
X15072996Y-7838670D01*
X15188405Y-7915784D01*
X15324987Y-7972358D01*
X15469982Y-8001200D01*
X15469984Y-8001200D01*
X15617816Y-8001200D01*
X15617818Y-8001200D01*
X15762813Y-7972358D01*
X15899395Y-7915784D01*
X16022316Y-7833651D01*
X16126851Y-7729116D01*
X16208984Y-7606195D01*
X16265558Y-7469613D01*
X16294400Y-7324618D01*
X16294400Y-7176782D01*
X16294311Y-7176337D01*
X16294341Y-7176186D01*
X16294044Y-7173167D01*
X16294960Y-7173076D01*
X16305359Y-7120790D01*
X16352449Y-7089322D01*
X16366889Y-7087900D01*
X16700500Y-7087900D01*
X16752826Y-7109574D01*
X16774500Y-7161900D01*
X16774500Y-7750000D01*
X16774500Y-7750005D01*
X16774501Y-7750008D01*
X16785001Y-7852797D01*
X16840186Y-8019334D01*
X16932288Y-8168656D01*
X17056344Y-8292712D01*
X17205666Y-8384814D01*
X17372203Y-8439999D01*
X17474991Y-8450500D01*
X18155967Y-8450499D01*
X18208293Y-8472173D01*
X18309535Y-8573415D01*
X18440765Y-8649181D01*
X18440766Y-8649181D01*
X18440768Y-8649182D01*
X18513949Y-8668790D01*
X18587130Y-8688399D01*
X18587131Y-8688400D01*
X18587133Y-8688400D01*
X18587134Y-8688400D01*
X19361185Y-8688400D01*
X19402297Y-8700871D01*
X19517705Y-8777984D01*
X19631489Y-8825115D01*
X19654287Y-8834558D01*
X19799282Y-8863400D01*
X19799284Y-8863400D01*
X19947116Y-8863400D01*
X19947118Y-8863400D01*
X20092113Y-8834558D01*
X20228695Y-8777984D01*
X20351616Y-8695851D01*
X20456151Y-8591316D01*
X20538284Y-8468395D01*
X20594858Y-8331813D01*
X20623700Y-8186818D01*
X20623700Y-8038982D01*
X20594858Y-7893987D01*
X20538284Y-7757405D01*
X20456151Y-7634484D01*
X20351616Y-7529949D01*
X20344104Y-7524929D01*
X20228694Y-7447815D01*
X20092117Y-7391243D01*
X20092107Y-7391240D01*
X19995011Y-7371926D01*
X19947118Y-7362400D01*
X19799282Y-7362400D01*
X19758177Y-7370576D01*
X19654292Y-7391240D01*
X19654282Y-7391243D01*
X19517705Y-7447815D01*
X19402297Y-7524929D01*
X19361185Y-7537400D01*
X19299500Y-7537400D01*
X19247174Y-7515726D01*
X19225500Y-7463400D01*
X19225499Y-7161900D01*
X19247173Y-7109574D01*
X19299499Y-7087900D01*
X23122468Y-7087900D01*
X23174794Y-7109574D01*
X28638394Y-12573174D01*
X28660068Y-12625500D01*
X28638394Y-12677826D01*
X28586068Y-12699500D01*
X28309306Y-12699500D01*
X28300087Y-12700225D01*
X28272428Y-12702402D01*
X28114600Y-12748256D01*
X27973134Y-12831919D01*
X27902228Y-12902826D01*
X27849902Y-12924500D01*
X13486000Y-12924500D01*
X13433674Y-12902826D01*
X13412000Y-12850500D01*
X13412000Y-12772500D01*
X13433674Y-12720174D01*
X13486000Y-12698500D01*
X13529698Y-12698500D01*
X13567365Y-12708804D01*
X13573605Y-12712494D01*
X13729007Y-12757643D01*
X13765310Y-12760500D01*
X13765311Y-12760500D01*
X14234689Y-12760500D01*
X14234690Y-12760500D01*
X14270993Y-12757643D01*
X14426395Y-12712494D01*
X14565687Y-12630117D01*
X14680117Y-12515687D01*
X14762494Y-12376395D01*
X14807643Y-12220993D01*
X14810500Y-12184690D01*
X14810500Y-11775310D01*
X14807643Y-11739007D01*
X14762494Y-11583605D01*
X14680117Y-11444313D01*
X14565687Y-11329883D01*
X14557151Y-11324835D01*
X14426396Y-11247506D01*
X14270995Y-11202357D01*
X14246791Y-11200452D01*
X14234690Y-11199500D01*
X13765310Y-11199500D01*
X13756234Y-11200214D01*
X13729004Y-11202357D01*
X13573603Y-11247506D01*
X13434312Y-11329883D01*
X13325958Y-11438237D01*
X13273632Y-11459911D01*
X13245314Y-11454278D01*
X13117517Y-11401343D01*
X13117507Y-11401340D01*
X13020411Y-11382026D01*
X12972518Y-11372500D01*
X12824682Y-11372500D01*
X12783577Y-11380676D01*
X12679692Y-11401340D01*
X12679682Y-11401343D01*
X12543105Y-11457915D01*
X12420184Y-11540048D01*
X12420183Y-11540050D01*
X12315650Y-11644583D01*
X12315648Y-11644584D01*
X12233515Y-11767505D01*
X12176943Y-11904082D01*
X12176940Y-11904092D01*
X12148100Y-12049083D01*
X12148100Y-12196916D01*
X12150573Y-12209352D01*
X12139521Y-12264900D01*
X12130321Y-12276110D01*
X12078550Y-12327882D01*
X12078548Y-12327884D01*
X11996415Y-12450805D01*
X11939843Y-12587382D01*
X11939840Y-12587392D01*
X11915833Y-12708085D01*
X11911000Y-12732382D01*
X11911000Y-12880218D01*
X11919808Y-12924500D01*
X11923090Y-12940999D01*
X11912041Y-12996547D01*
X11887514Y-13019520D01*
X11852936Y-13039484D01*
X10318194Y-14574226D01*
X10265868Y-14595900D01*
X10132034Y-14595900D01*
X9985665Y-14635119D01*
X9985664Y-14635119D01*
X9985662Y-14635120D01*
X9963832Y-14647724D01*
X9854434Y-14710885D01*
X9646635Y-14918685D01*
X9539483Y-15025837D01*
X9463719Y-15157063D01*
X9463718Y-15157067D01*
X9443684Y-15231832D01*
X9440573Y-15240996D01*
X9388991Y-15365525D01*
X9388990Y-15365528D01*
X9374500Y-15475600D01*
X9374500Y-15600500D01*
X9352826Y-15652826D01*
X9300500Y-15674500D01*
X9200600Y-15674500D01*
X9148274Y-15652826D01*
X9126600Y-15600500D01*
X9126600Y-13708680D01*
X9148274Y-13656354D01*
X9186164Y-13636102D01*
X9191186Y-13635102D01*
X9246713Y-13624058D01*
X9383295Y-13567484D01*
X9506216Y-13485351D01*
X9610751Y-13380816D01*
X9692884Y-13257895D01*
X9749458Y-13121313D01*
X9753519Y-13100893D01*
X9784982Y-13053802D01*
X9835754Y-13041962D01*
X9900599Y-13050500D01*
X10099400Y-13050499D01*
X10209472Y-13036009D01*
X10346429Y-12979279D01*
X10464036Y-12889036D01*
X10554279Y-12771429D01*
X10611009Y-12634472D01*
X10625500Y-12524401D01*
X10625499Y-12358018D01*
X10647172Y-12305694D01*
X10745351Y-12207516D01*
X10827484Y-12084595D01*
X10874462Y-11971180D01*
X10914510Y-11931132D01*
X10942829Y-11925499D01*
X11024399Y-11925499D01*
X11024400Y-11925499D01*
X11134472Y-11911009D01*
X11271429Y-11854279D01*
X11389036Y-11764036D01*
X11479279Y-11646429D01*
X11536009Y-11509472D01*
X11550500Y-11399401D01*
X11550499Y-11200600D01*
X11536009Y-11090528D01*
X11479279Y-10953571D01*
X11440792Y-10903413D01*
X11425500Y-10858365D01*
X11425500Y-8522920D01*
X11426518Y-8510690D01*
X11426704Y-8509575D01*
X11444400Y-8420618D01*
X11444400Y-8403977D01*
X11445418Y-8397902D01*
X11457413Y-8378714D01*
X11466074Y-8357806D01*
X11665115Y-8158765D01*
X11822680Y-8001200D01*
X12021706Y-7802172D01*
X12074032Y-7780499D01*
X12249180Y-7780499D01*
X12285204Y-7777665D01*
X12439393Y-7732869D01*
X12577598Y-7651135D01*
X12691135Y-7537598D01*
X12772869Y-7399393D01*
X12817665Y-7245204D01*
X12820500Y-7209181D01*
X12820500Y-7161900D01*
X12842174Y-7109574D01*
X12894500Y-7087900D01*
X13605501Y-7087900D01*
X13657827Y-7109574D01*
G37*
%TD.AperFunction*%
%TD*%
M02*
