%TF.GenerationSoftware,KiCad,Pcbnew,10.0.1*%
%TF.CreationDate,2026-05-30T11:07:37+02:00*%
%TF.ProjectId,sensor_board,73656e73-6f72-45f6-926f-6172642e6b69,rev?*%
%TF.SameCoordinates,Original*%
%TF.FileFunction,Paste,Top*%
%TF.FilePolarity,Positive*%
%FSLAX46Y46*%
G04 Gerber Fmt 4.6, Leading zero omitted, Abs format (unit mm)*
G04 Created by KiCad (PCBNEW 10.0.1) date 2026-05-30 11:07:37*
%MOMM*%
%LPD*%
G01*
G04 APERTURE LIST*
G04 Aperture macros list*
%AMRoundRect*
0 Rectangle with rounded corners*
0 $1 Rounding radius*
0 $2 $3 $4 $5 $6 $7 $8 $9 X,Y pos of 4 corners*
0 Add a 4 corners polygon primitive as box body*
4,1,4,$2,$3,$4,$5,$6,$7,$8,$9,$2,$3,0*
0 Add four circle primitives for the rounded corners*
1,1,$1+$1,$2,$3*
1,1,$1+$1,$4,$5*
1,1,$1+$1,$6,$7*
1,1,$1+$1,$8,$9*
0 Add four rect primitives between the rounded corners*
20,1,$1+$1,$2,$3,$4,$5,0*
20,1,$1+$1,$4,$5,$6,$7,0*
20,1,$1+$1,$6,$7,$8,$9,0*
20,1,$1+$1,$8,$9,$2,$3,0*%
G04 Aperture macros list end*
%ADD10RoundRect,0.135000X0.185000X-0.135000X0.185000X0.135000X-0.185000X0.135000X-0.185000X-0.135000X0*%
%ADD11RoundRect,0.140000X0.170000X-0.140000X0.170000X0.140000X-0.170000X0.140000X-0.170000X-0.140000X0*%
%ADD12RoundRect,0.062500X-0.062500X-0.137500X0.062500X-0.137500X0.062500X0.137500X-0.062500X0.137500X0*%
%ADD13RoundRect,0.062500X-0.137500X-0.062500X0.137500X-0.062500X0.137500X0.062500X-0.137500X0.062500X0*%
%ADD14R,0.675000X0.250000*%
%ADD15R,0.250000X0.675000*%
%ADD16RoundRect,0.150000X0.625000X-0.150000X0.625000X0.150000X-0.625000X0.150000X-0.625000X-0.150000X0*%
%ADD17RoundRect,0.250000X0.650000X-0.350000X0.650000X0.350000X-0.650000X0.350000X-0.650000X-0.350000X0*%
%ADD18R,0.500000X0.300000*%
%ADD19R,0.254000X0.675000*%
%ADD20R,0.675000X0.254000*%
%ADD21RoundRect,0.250000X0.475000X-0.250000X0.475000X0.250000X-0.475000X0.250000X-0.475000X-0.250000X0*%
G04 APERTURE END LIST*
D10*
%TO.C,R2*%
X14500000Y-7010000D03*
X14500000Y-5990000D03*
%TD*%
%TO.C,R3*%
X26500000Y-26510000D03*
X26500000Y-25490000D03*
%TD*%
D11*
%TO.C,C2*%
X14000000Y-16980000D03*
X14000000Y-16020000D03*
%TD*%
D12*
%TO.C,U2*%
X10400000Y-15650000D03*
X10000000Y-15650000D03*
X9600000Y-15650000D03*
D13*
X9150000Y-16300000D03*
X9150000Y-16700000D03*
D12*
X9600000Y-17350000D03*
X10000000Y-17350000D03*
X10400000Y-17350000D03*
D13*
X10850000Y-16700000D03*
X10850000Y-16300000D03*
%TD*%
D14*
%TO.C,U3*%
X8737500Y-20750000D03*
X8737500Y-21250000D03*
X8737500Y-21750000D03*
X8737500Y-22250000D03*
D15*
X9500000Y-22512500D03*
X10000000Y-22512500D03*
X10500000Y-22512500D03*
D14*
X11262500Y-22250000D03*
X11262500Y-21750000D03*
X11262500Y-21250000D03*
X11262500Y-20750000D03*
D15*
X10500000Y-20487500D03*
X10000000Y-20487500D03*
X9500000Y-20487500D03*
%TD*%
D11*
%TO.C,C3*%
X14000000Y-21980000D03*
X14000000Y-21020000D03*
%TD*%
D16*
%TO.C,J1*%
X29000000Y-16500000D03*
X29000000Y-15500000D03*
X29000000Y-14500000D03*
X29000000Y-13500000D03*
D17*
X32875000Y-17800000D03*
X32875000Y-12200000D03*
%TD*%
D10*
%TO.C,R1*%
X12000000Y-7010000D03*
X12000000Y-5990000D03*
%TD*%
D12*
%TO.C,U1*%
X10400000Y-10650000D03*
X10000000Y-10650000D03*
X9600000Y-10650000D03*
D13*
X9150000Y-11300000D03*
X9150000Y-11700000D03*
D12*
X9600000Y-12350000D03*
X10000000Y-12350000D03*
X10400000Y-12350000D03*
D13*
X10850000Y-11700000D03*
X10850000Y-11300000D03*
%TD*%
D18*
%TO.C,U5*%
X5300000Y-31600000D03*
X5300000Y-32400000D03*
X6700000Y-32400000D03*
X6700000Y-31600000D03*
%TD*%
D10*
%TO.C,R4*%
X29000000Y-26510000D03*
X29000000Y-25490000D03*
%TD*%
D11*
%TO.C,C4*%
X24000000Y-26480000D03*
X24000000Y-25520000D03*
%TD*%
%TO.C,C7*%
X24000000Y-30480000D03*
X24000000Y-29520000D03*
%TD*%
%TO.C,C5*%
X10000000Y-32480000D03*
X10000000Y-31520000D03*
%TD*%
D19*
%TO.C,U4*%
X15250000Y-26337500D03*
D20*
X15112500Y-27250000D03*
X15112500Y-27750000D03*
X15112500Y-28250000D03*
X15112500Y-28750000D03*
D19*
X15250000Y-29662500D03*
X15750000Y-29662500D03*
X16250000Y-29662500D03*
X16750000Y-29662500D03*
X17250000Y-29662500D03*
X17750000Y-29662500D03*
X18250000Y-29662500D03*
X18750000Y-29662500D03*
X19250000Y-29662500D03*
X19750000Y-29662500D03*
D20*
X19887500Y-28750000D03*
X19887500Y-28250000D03*
X19887500Y-27750000D03*
X19887500Y-27250000D03*
D19*
X19750000Y-26337500D03*
X19250000Y-26337500D03*
X18750000Y-26337500D03*
X18250000Y-26337500D03*
X17750000Y-26337500D03*
X17250000Y-26337500D03*
X16750000Y-26337500D03*
X16250000Y-26337500D03*
X15750000Y-26337500D03*
%TD*%
D11*
%TO.C,C1*%
X14000000Y-11980000D03*
X14000000Y-11020000D03*
%TD*%
D21*
%TO.C,C6*%
X18000000Y-7450000D03*
X18000000Y-5550000D03*
%TD*%
M02*
